<?xml version="1.0" encoding="utf-8"?>
<!-- Generator: Adobe Illustrator 25.2.0, SVG Export Plug-In . SVG Version: 6.00 Build 0)  -->
<svg version="1.1" id="Layer_1" xmlns="http://www.w3.org/2000/svg" xmlns:xlink="http://www.w3.org/1999/xlink" x="0px" y="0px"
	 viewBox="0 0 720 420" style="enable-background:new 0 0 720 420;" xml:space="preserve">
<style type="text/css">
	.st0{fill:#E5F5FC;}
	.st1{fill:#EDEDEE;}
	.st2{clip-path:url(#SVGID_2_);}
	.st3{fill:#B5E3EF;}
	.st4{fill:#FFFFFF;}
	.st5{fill:none;}
	.st6{fill:none;stroke:#F15F4F;stroke-width:1.6087;stroke-miterlimit:10;}
	.st7{fill:#F26C5D;}
	.st8{fill:#CAD2D7;}
	.st9{fill:#00B2D9;}
	.st10{fill:#A3C03A;}
	.st11{fill:#F7F8F8;}
	.st12{fill:#ACACAC;}
	.st13{fill:#FCCBB5;}
	.st14{fill:#01253E;}
	.st15{fill:#CFD0D0;}
	.st16{fill:#DCA58D;}
	.st17{fill:#010101;}
	.st18{fill:#F26A68;}
	.st19{fill:#6C4B3F;}
	.st20{fill:#67ACD0;}
	.st21{fill:#F36F21;}
	.st22{fill:#677D8C;}
	.st23{fill:#F15F4F;}
	.st24{fill:#A09F9F;}
</style>
<rect class="st0" width="720" height="420"/>
<g>
	<g>
		<path class="st1" d="M613.8,115.8h7.8c4.8,0,8.7-4,8.7-8.7V91.5H605v15.6C605,111.9,608.9,115.8,613.8,115.8z"/>
	</g>
</g>
<g>
	<defs>
		<rect id="SVGID_1_" width="720" height="420"/>
	</defs>
	<clipPath id="SVGID_2_">
		<use xlink:href="#SVGID_1_"  style="overflow:visible;"/>
	</clipPath>
	<g class="st2">
		<g>
			<g>
				<path class="st3" d="M303.18,363.48v-133.1c0-7.7,6.21-13.91,13.91-13.91h179.66c7.7,0,13.91,6.21,13.91,13.91v133.19
					c0,7.7-6.21,13.91-13.91,13.91H317.1C309.4,377.39,303.18,371.18,303.18,363.48z"/>
				<path class="st4" d="M303.18,237.2v-6.91c0-7.7,6.21-13.91,13.91-13.91h179.66c7.7,0,13.91,6.21,13.91,13.91v6.91"/>
				<g>
				</g>
				<circle class="st3" cx="317.97" cy="226.87" r="4.03"/>
				<circle class="st3" cx="330.49" cy="226.87" r="4.03"/>
				<circle class="st3" cx="343" cy="226.87" r="4.03"/>
				<g>
					<g>
						<g>
							<g>
								<rect x="415.2" y="316.57" class="st4" width="9.28" height="39.29"/>
								<path class="st4" d="M425.87,357.61H411v-42.71h14.88V357.61z"/>
							</g>
							<g>
								<rect x="452.3" y="285.42" class="st4" width="9.28" height="69.4"/>
								<path class="st4" d="M464.47,357.61h-14.88v-75h14.88V357.61z"/>
							</g>
							<g>
								<rect x="375.29" y="300.9" class="st4" width="9.28" height="53.91"/>
								<path class="st4" d="M387.46,357.61h-14.88V298.1h14.88V357.61z"/>
							</g>
						</g>
					</g>
					<polyline class="st6" points="379.93,276.75 418.44,297.32 456.94,261.7 					"/>
					<circle class="st7" cx="379.93" cy="277.1" r="4.64"/>
					<circle class="st7" cx="418.44" cy="297.32" r="4.64"/>
					<circle class="st7" cx="456.94" cy="261.7" r="4.64"/>
					<path class="st4" d="M346.5,357.61h-14.88v-47.61h14.88V357.61z"/>
					<line class="st6" x1="379.93" y1="277.1" x2="337.05" y2="288.04"/>
					<circle class="st7" cx="337.05" cy="288.04" r="4.64"/>
				</g>
			</g>
		</g>
		<g>
			<path class="st8" d="M218,65.46c-4.36,0-7.92-3.56-7.92-7.92V36.85h-57.86c-5.66,0-10.34,4.69-10.34,10.34v118.64
				c0,5.66,4.69,10.34,10.34,10.34h84.21V65.3L218,65.46L218,65.46L218,65.46z M183.57,91.16h21.01v5.5h-21.01V91.16z
				 M173.88,115.89c0,3.39-2.75,6.14-6.14,6.14h-2.26v2.26h-5.5v-2.26h-5.5v-5.5h13.25c0.32,0,0.65-0.32,0.65-0.65v-5.82
				c0-0.32-0.32-0.65-0.65-0.65h-10.02c-3.23,0-6.14-2.75-6.14-6.14v-5.82c0-3.39,2.75-6.14,6.14-6.14h2.26v-1.94h5.5v2.26h5.5v5.5
				h-13.25c-0.32,0-0.48,0.32-0.48,0.65v5.82c0,0.32,0.32,0.48,0.48,0.48h10.02c3.39,0,6.14,2.75,6.14,6.14V115.89z M220.75,127.04
				h-37.18v-5.5h37.18V127.04z M220.75,110.71h-37.18v-5.5h37.18V110.71z"/>
			<g>
				<g>
					<path class="st9" d="M183.25,99.72v5.82c0,3.39-2.75,6.14-6.14,6.14h-13.25v-5.5h13.25c0.32,0,0.65-0.32,0.65-0.65v-5.82
						c0-0.32-0.32-0.65-0.65-0.65h-10.02c-3.23,0-6.14-2.75-6.14-6.14v-5.82c0-3.39,2.75-6.14,6.14-6.14h13.25v5.5h-13.25
						c-0.32,0-0.48,0.32-0.48,0.65v5.82c0,0.32,0.32,0.48,0.48,0.48h10.02C180.5,93.74,183.25,96.49,183.25,99.72z"/>
					<rect x="169.35" y="79.2" class="st9" width="5.5" height="5.01"/>
					<rect x="169.35" y="108.94" class="st9" width="5.5" height="5.01"/>
				</g>
				<rect x="192.95" y="94.87" class="st10" width="37.18" height="5.5"/>
				<rect x="192.95" y="111.2" class="st10" width="37.18" height="5.5"/>
				<rect x="192.95" y="80.81" class="st10" width="21.01" height="5.5"/>
				<g>
					<g>
						<g>
							<path class="st8" d="M242.25,49.62h-14.87c-1.29,0-2.26-0.97-2.26-2.42v-16L242.25,49.62z"/>
						</g>
						<path class="st11" d="M227.38,55.27c-4.36,0-7.92-3.56-7.92-7.92V26.67h-57.7c-5.66,0-10.34,4.69-10.34,10.34v118.64
							c0,5.66,4.69,10.34,10.34,10.34h84.21V55.11L227.38,55.27L227.38,55.27z M192.95,80.81h21.01v5.5h-21.01V80.81z
							 M183.25,105.54c0,3.39-2.75,6.14-6.14,6.14h-2.26v2.26h-5.5v-2.26h-5.5v-5.5h13.25c0.32,0,0.65-0.32,0.65-0.65v-5.82
							c0-0.32-0.32-0.65-0.65-0.65h-10.02c-3.23,0-6.14-2.75-6.14-6.14v-5.82c0-3.39,2.75-6.14,6.14-6.14h2.26v-2.26h5.5v2.26h5.5
							v5.5h-13.25c-0.32,0-0.48,0.32-0.48,0.65v5.82c0,0.32,0.32,0.48,0.48,0.48h10.02c3.39,0,6.14,2.75,6.14,6.14V105.54z
							 M230.12,116.69h-37.18v-5.5h37.18V116.69z M230.12,100.53h-37.18v-5.5h37.18V100.53z"/>
					</g>
				</g>
			</g>
		</g>
		<g>
			<g>
				<g>
					<path class="st13" d="M173.52,150.47c-2.8-16.36-10.59-39.56-28.88-36.23L98.7,124.48l-14.96,56.53l7.35,27.65l-0.7,7.09
						l-7.18,86.72l104.66,32.29l-40.87-64.58l0.88-24.59c23.98-4.2,37.54-8.75,34.04-49.09l14-5.95
						c-6.56-9.19-20.04-27.3-20.04-27.3S173.78,151.87,173.52,150.47"/>
					<path class="st14" d="M37.97,176.2c-7-41.13,7-76.13,52.07-84.36c45.33-8.31,65.81-1.23,70.27,24.94
						c6.21,36.49-64.41,4.2-53.99,65.63l-16.54,3.06l2.1,12.51c1.84,10.59,8.31,13.3,19.6,11.29c3.06,18.03-9.63,23.89-22.84,26.34
						C68.68,239.21,44.7,215.58,37.97,176.2"/>
					<path class="st14" d="M163.98,176.55l-3.68,0.7c-1.4,0.26-2.8-0.7-3.06-2.19l-0.61-3.85c-0.26-1.49,0.7-2.89,2.1-3.15l3.68-0.7
						c1.4-0.26,2.8,0.7,3.06,2.19l0.61,3.85C166.35,174.89,165.38,176.29,163.98,176.55"/>
				</g>
				<g>
					<path class="st16" d="M173.52,150.47c-2.8-16.36-10.59-39.56-28.88-36.23L98.7,124.48l-14.96,56.53l7.35,27.65l-0.7,7.09
						l-7.18,86.72l104.66,32.29l-40.87-64.58l0.88-24.59c23.98-4.2,37.54-8.75,34.04-49.09l14-5.95
						c-6.56-9.19-20.04-27.3-20.04-27.3S173.78,151.87,173.52,150.47"/>
					<path class="st17" d="M37.97,176.2c-7-41.13,7-76.13,52.07-84.36c45.33-8.31,65.81-1.23,70.27,24.94
						c6.21,36.49-64.41,4.2-53.99,65.63l-16.54,3.06l2.1,12.51c1.84,10.59,8.31,13.3,19.6,11.29c3.06,18.03-9.63,23.89-22.84,26.34
						C68.68,239.21,44.7,215.58,37.97,176.2"/>
					<path class="st14" d="M163.98,176.55l-3.68,0.7c-1.4,0.26-2.8-0.7-3.06-2.19l-0.61-3.85c-0.26-1.49,0.7-2.89,2.1-3.15l3.68-0.7
						c1.4-0.26,2.8,0.7,3.06,2.19l0.61,3.85C166.35,174.89,165.38,176.29,163.98,176.55"/>
				</g>
				<path class="st18" d="M44.53,350.35l6.91,243.63l120.85,21.97l25.82-178.96l9.01-13.48c11.46-17.06,11.73-39.56,0.79-56.88
					l-20.04-31.68L86.45,263.62l-30.54,46.64C48.03,322,44.09,336,44.53,350.35z"/>
				<path class="st4" d="M111.13,280.95l23.1,42.79c7.44,13.74,23.02,20.39,37.54,15.93l16.01-4.81L111.13,280.95z"/>
			</g>
		</g>
		<g>
			<g>
				<path class="st19" d="M516.73,101.29c18.38-9.1,18.99,1.66,18.99,1.66l52.59,35.97l20.65,36.93l-0.96,34.57l6.83,34.65
					l-65.81,63.01l-13.13-48.39c-48.57-7.18-56.97-2.01-50.41-49.79l-16.28-7.88l21.27-39.29
					C493.8,139.53,498.35,110.48,516.73,101.29"/>
				<path class="st17" d="M567.58,90.88c42.18,6.3,68.08,22.32,62.31,64.15c-5.78,41.83-10.85,50.58-20.83,59.42
					c-17.94-4.9-18.03-17.15-17.06-24.42c0.09-0.61,1.84-13.21,1.93-13.91c1.23-9.63-1.23-14.53-12.34-16.45
					c-14.35-2.45-15.93,7.88-17.24,16.01l-16.54-2.45l4.81-34.83c1.93-14.26-7.53-21.44-17.41-22.93
					c-11.55-1.75-31.77-4.64-31.77-4.64C511.31,92.02,524.78,84.58,567.58,90.88"/>
				<path class="st14" d="M493.19,136.82l1.84,0.26l-1.75,12.43l78.06,11.55c-3.68,1.49-4.73,5.6-4.73,5.6l-74.21-11.03l-2.89,21.27
					l-1.58-0.26c-4.46-0.7-3.85-5.78-3.85-5.78l4.03-29.23C488.2,141.63,489.25,136.21,493.19,136.82"/>
				<path class="st14" d="M503.96,170.16l3.68,0.53c1.4,0.18,2.71-0.79,2.98-2.28l0.53-3.85c0.18-1.49-0.79-2.89-2.19-3.06
					l-3.68-0.53c-1.4-0.18-2.71,0.79-2.98,2.28l-0.53,3.85C501.51,168.59,502.47,169.9,503.96,170.16"/>
				<path class="st20" d="M617.81,232.73l-85.85,75.17c-3.15,2.8-5.43,6.56-6.48,10.85l-10.5,44.02l108.51-112.8L617.81,232.73z"/>
				<path class="st14" d="M503.78,733.82V408.28c0-29.84,12.08-58.28,33.25-78.5l86.37-82.17l41.04,26.95
					c14.18,9.28,24.5,23.63,29.14,40.34l39.03,140.89l-0.7,193.4"/>
				<polyline class="st22" points="662.96,649.2 662.96,489.84 630.67,404.78 662.96,649.2 				"/>
			</g>
		</g>
		<g>
			<g>
				<path class="st0" d="M432.28,103.36c6.78-10.17,4.04-23.98-6.14-30.76s-23.98-4.04-30.76,6.14
					c-6.78,10.17-4.04,23.98,6.14,30.76C411.7,116.28,425.5,113.53,432.28,103.36z M423.64,76.24c-8.15-5.41-19.21-3.23-24.62,4.92
					c-5.41,8.15-3.23,19.21,4.92,24.62c8.15,5.41,19.21,3.23,24.62-4.92S431.8,81.73,423.64,76.24z"/>
				<path class="st23" d="M367.14,95.53l9.77-3.71c0.81-0.32,1.37-1.13,1.45-2.02c0.16-3.79,0.89-7.59,2.18-11.14
					c0.32-0.81,0.08-1.78-0.57-2.42l-7.59-7.1l5.33-7.99l9.53,4.28c0.81,0.4,1.78,0.24,2.42-0.4c2.74-2.58,5.97-4.68,9.44-6.3
					c0.4-0.16,0.73-0.48,0.89-0.81c0.24-0.4,0.4-0.81,0.4-1.29l-0.32-10.41l9.36-1.86l3.71,9.77c0.32,0.81,1.13,1.37,2.02,1.45
					c3.79,0.16,7.59,0.89,11.14,2.18c0.81,0.32,1.78,0.08,2.42-0.57l7.1-7.59l7.99,5.33l-4.28,9.53c-0.4,0.81-0.24,1.78,0.4,2.42
					c2.58,2.74,4.68,5.97,6.3,9.44c0.4,0.81,1.21,1.29,2.1,1.29l10.41-0.32l1.86,9.36l-9.77,3.71c-0.81,0.32-1.37,1.13-1.45,2.02
					c-0.16,3.79-0.89,7.59-2.18,11.14c-0.32,0.81-0.08,1.78,0.57,2.42l7.59,7.1l-5.33,7.99l-9.53-4.28c-0.81-0.4-1.78-0.24-2.42,0.4
					c-2.74,2.58-5.97,4.68-9.44,6.3c-0.81,0.4-1.29,1.21-1.29,2.1l0.32,10.41l-9.36,1.86l-3.71-9.77c-0.32-0.81-1.13-1.37-2.02-1.45
					c-3.79-0.16-7.59-0.89-11.14-2.18c-0.81-0.32-1.78-0.08-2.42,0.57l-7.1,7.59l0,0l-7.99-5.33l4.28-9.53
					c0.4-0.81,0.24-1.78-0.4-2.42c-2.58-2.74-4.68-5.97-6.3-9.44c-0.4-0.81-1.21-1.29-2.1-1.29l-10.41,0.32L367.14,95.53z
					 M423.64,76.24c-8.15-5.41-19.21-3.23-24.62,4.92c-5.41,8.15-3.23,19.21,4.92,24.62c8.15,5.41,19.21,3.23,24.62-4.92
					S431.8,81.73,423.64,76.24z"/>
				<path class="st4" d="M345.42,141.54c4.76-7.1,2.83-16.79-4.28-21.55s-16.79-2.83-21.55,4.28c-4.76,7.1-2.83,16.79,4.28,21.55
					C330.97,150.59,340.66,148.65,345.42,141.54z M338.64,123.7c-5.09-3.39-12.03-2.02-15.42,3.07s-2.02,12.03,3.07,15.42
					c5.09,3.39,12.03,2.02,15.42-3.07C345.1,133.96,343.72,127.1,338.64,123.7z"/>
				<path class="st0" d="M341.71,139.12c-3.39,5.09-10.33,6.46-15.42,3.07c-5.09-3.39-6.46-10.33-3.07-15.42
					c3.39-5.09,10.33-6.46,15.42-3.07C343.72,127.1,345.1,133.96,341.71,139.12z"/>
				<path class="st14" d="M355.99,143.48c-0.65-0.65-0.81-1.53-0.57-2.34c0.81-2.26,1.29-4.68,1.45-7.18
					c0.08-0.89,0.57-1.61,1.37-1.94l7.43-3.15l-1.05-5.17h-8.07c-0.89,0-1.61-0.48-2.02-1.29c-1.05-2.26-2.42-4.28-4.04-6.05
					c-0.57-0.65-0.73-1.53-0.4-2.34l3.07-7.43l-4.36-2.91l-5.73,5.65c-0.65,0.65-1.53,0.81-2.34,0.57
					c-2.26-0.81-4.68-1.29-7.18-1.45c-0.81,0-1.61-0.57-1.94-1.37l-3.15-7.43l-5.17,1.05v8.07c0,0.4-0.16,0.89-0.4,1.21
					c-0.24,0.32-0.57,0.57-0.89,0.81c-2.26,1.05-4.28,2.42-6.05,4.04c-0.65,0.57-1.53,0.73-2.34,0.4l-7.43-3.07l-2.91,4.36
					l5.65,5.73c0.65,0.65,0.81,1.53,0.57,2.34c-0.81,2.26-1.29,4.68-1.45,7.18c0,0.81-0.57,1.61-1.37,1.94l-7.43,3.15l1.05,5.17
					h8.07c0.89,0,1.61,0.48,2.02,1.29c1.05,2.26,2.42,4.28,4.04,6.05c0.57,0.65,0.73,1.53,0.4,2.34l-3.07,7.43l4.36,2.91l5.73-5.65
					c0.65-0.65,1.53-0.81,2.34-0.48c2.34,0.81,4.76,1.29,7.18,1.37c0.89,0.08,1.61,0.57,1.94,1.37l3.15,7.43l5.17-1.05v-8.07
					c0-0.89,0.48-1.61,1.29-2.02c2.26-1.05,4.28-2.42,6.05-4.04c0.65-0.57,1.53-0.73,2.34-0.4l7.43,3.07l2.91-4.36L355.99,143.48z
					 M326.29,142.19c-5.09-3.39-6.46-10.33-3.07-15.42c3.39-5.09,10.33-6.46,15.42-3.07c5.09,3.39,6.46,10.33,3.07,15.42
					C338.32,144.21,331.37,145.58,326.29,142.19z"/>
			</g>
		</g>
	</g>
</g>
<g>
	<path class="st23" d="M418.42,103.65H406.3v-2.49h12.12c1.02,0,1.7-0.79,1.7-1.7v-5.21c0-1.02-0.79-1.7-1.7-1.7h-9.17
		c-2.38,0-4.3-1.93-4.3-4.3v-5.32c0-2.38,1.93-4.3,4.3-4.3h12.12v2.49h-12.12c-1.02,0-1.7,0.79-1.7,1.7v5.32
		c0,1.02,0.79,1.7,1.7,1.7h9.17c2.38,0,4.3,1.93,4.3,4.3v5.32C422.61,101.73,420.8,103.65,418.42,103.65z"/>
	<rect x="412.53" y="75.23" class="st23" width="2.49" height="4.53"/>
	<rect x="412.53" y="102.52" class="st23" width="2.49" height="4.53"/>
</g>
<g>
	<path class="st24" d="M259.49,258.04h42.64c6.64,0,11.92,4.41,11.92,9.66v72.83c0,5.38-5.44,9.66-11.92,9.66h-42.64
		c-6.64,0-11.92-4.41-11.92-9.66v-72.83C247.41,262.32,252.85,258.04,259.49,258.04z"/>
	<path class="st0" d="M303.93,292.39h-46.24c-1.87,0-3.39-1.52-3.39-3.39v-18.27c0-1.87,1.52-3.39,3.39-3.39h46.24
		c1.87,0,3.39,1.52,3.39,3.39V289C307.33,290.88,305.81,292.39,303.93,292.39z"/>
	<g>
		<g>
			<path class="st23" d="M266.94,309.48h-9.25c-1.87,0-3.39-1.52-3.39-3.39v-6.36c0-1.87,1.52-3.39,3.39-3.39h9.25
				c1.87,0,3.39,1.52,3.39,3.39v6.36C270.33,307.96,268.81,309.48,266.94,309.48z"/>
			<path class="st4" d="M285.38,309.48h-9.25c-1.87,0-3.39-1.52-3.39-3.39v-6.36c0-1.87,1.52-3.39,3.39-3.39h9.25
				c1.87,0,3.39,1.52,3.39,3.39v6.36C288.77,307.96,287.25,309.48,285.38,309.48z"/>
			<path class="st4" d="M303.93,309.48h-9.25c-1.87,0-3.39-1.52-3.39-3.39v-6.36c0-1.87,1.52-3.39,3.39-3.39h9.25
				c1.87,0,3.39,1.52,3.39,3.39v6.36C307.33,307.96,305.81,309.48,303.93,309.48z"/>
		</g>
		<g>
			<path class="st4" d="M266.94,326.04h-9.25c-1.87,0-3.39-1.52-3.39-3.39v-6.36c0-1.87,1.52-3.39,3.39-3.39h9.25
				c1.87,0,3.39,1.52,3.39,3.39v6.36C270.33,324.52,268.81,326.04,266.94,326.04z"/>
			<path class="st4" d="M285.38,326.04h-9.25c-1.87,0-3.39-1.52-3.39-3.39v-6.36c0-1.87,1.52-3.39,3.39-3.39h9.25
				c1.87,0,3.39,1.52,3.39,3.39v6.36C288.77,324.52,287.25,326.04,285.38,326.04z"/>
			<path class="st4" d="M303.93,326.04h-9.25c-1.87,0-3.39-1.52-3.39-3.39v-6.36c0-1.87,1.52-3.39,3.39-3.39h9.25
				c1.87,0,3.39,1.52,3.39,3.39v6.36C307.33,324.52,305.81,326.04,303.93,326.04z"/>
		</g>
		<g>
			<path class="st4" d="M266.94,342.6h-9.25c-1.87,0-3.39-1.52-3.39-3.39v-6.36c0-1.87,1.52-3.39,3.39-3.39h9.25
				c1.87,0,3.39,1.52,3.39,3.39v6.36C270.33,341.08,268.81,342.6,266.94,342.6z"/>
			<path class="st4" d="M285.38,342.6h-9.25c-1.87,0-3.39-1.52-3.39-3.39v-6.36c0-1.87,1.52-3.39,3.39-3.39h9.25
				c1.87,0,3.39,1.52,3.39,3.39v6.36C288.77,341.08,287.25,342.6,285.38,342.6z"/>
			<path class="st10" d="M303.93,342.6h-9.25c-1.87,0-3.39-1.52-3.39-3.39v-6.36c0-1.87,1.52-3.39,3.39-3.39h9.25
				c1.87,0,3.39,1.52,3.39,3.39v6.36C307.33,341.08,305.81,342.6,303.93,342.6z"/>
		</g>
	</g>
</g>
</svg>
