<svg xmlns="http://www.w3.org/2000/svg" viewBox="0 0 327.77 154.67"><defs><style>.cls-1{fill:none;}.cls-2{fill:#057dc8;}.cls-3{fill:#021859;}</style></defs><g id="Layer_1" data-name="Layer 1"><rect class="cls-1" width="348.03" height="163.28"/><path class="cls-2" d="M54.5,43.45a2.53,2.53,0,0,0-2.69,2.36L43.49,86.9H66.33l-1.57-8.37H54.83l.4-2.18L56.72,68l2.91-16.14H64S62.43,43.6,54.5,43.45Z"/><path class="cls-3" d="M48.73,100.2H46.5a.33.33,0,0,0-.34.28l-2.75,10.58h.9l1-3.82H50l1,3.82h.92l-2.76-10.58A.33.33,0,0,0,48.73,100.2Zm-3.25,6.23L46.86,101h1.5l1.38,5.43Z"/><path class="cls-3" d="M63,109.86,59,100.2H57.94v10.86h.82v-9.39l3.66,8.94c.08.2.19.26.33.26h.39c.14,0,.24-.06.32-.26l3.66-9v9.4H68V100.2h-1Z"/><path class="cls-3" d="M73,102.84a14.8,14.8,0,0,0-2.57.23v.79a15.88,15.88,0,0,1,2.54-.22c1.79,0,2,.48,2,1.34v1.63l-2.76.2c-1.55.12-2.25.68-2.25,2.26s.54,2.14,2.28,2.14a8,8,0,0,0,2.76-.65l.17.5h.64v-6C75.8,103.39,75.18,102.84,73,102.84ZM75,110.08a13.62,13.62,0,0,1-2.67.37c-1.15,0-1.47-.26-1.47-1.38s.17-1.46,1.38-1.55l2.76-.2Z"/><path class="cls-3" d="M81,102.84c-2,0-3.23.57-3.23,4,0,2.78.44,4.42,3.39,4.42a8.1,8.1,0,0,0,2.51-.37v-.79a8.21,8.21,0,0,1-2.56.36c-2.09,0-2.43-1-2.5-3.17H84v-1.07C84,103.35,82.78,102.84,81,102.84Zm2.17,3.67H78.56c0-2.64.89-2.87,2.52-2.87,1.38,0,2,.48,2,2.22Z"/><polygon class="cls-3" points="86.52 102.99 85.83 102.99 85.83 111.06 86.66 111.06 86.66 103.81 89.47 103.81 89.47 102.83 86.63 103.36 86.52 102.99"/><path class="cls-3" d="M94.11,106.65l-1.49-.39c-.71-.18-1.05-.41-1.05-1.35s.48-1.27,1.8-1.27a10.85,10.85,0,0,1,2.26.23v-.79a11.5,11.5,0,0,0-2.26-.24c-1.77,0-2.66.54-2.66,2.07A1.83,1.83,0,0,0,92.36,107l1.63.42c.68.17,1.07.42,1.07,1.54s-.47,1.41-2,1.41A9.12,9.12,0,0,1,90.7,110v.8a7.72,7.72,0,0,0,2.34.38c1.93,0,2.87-.57,2.87-2.32A2,2,0,0,0,94.11,106.65Z"/><polygon class="cls-3" points="103.19 102.99 102.14 102.99 98.52 106.65 98.52 100.2 97.68 100.2 97.68 111.06 98.52 111.06 98.52 106.75 102.34 111.06 103.41 111.06 99.47 106.68 103.19 102.99"/><path class="cls-3" d="M109.32,105.55c0-4.2.61-4.67,3.37-4.67a19.4,19.4,0,0,1,2.12.14v-.82a16.68,16.68,0,0,0-2.09-.16c-3.31,0-4.3.72-4.3,5.54,0,5.22,1.37,5.63,4.27,5.63a13.79,13.79,0,0,0,2.2-.21v-.83a13,13,0,0,1-2.12.21C110.52,110.38,109.32,110.36,109.32,105.55Z"/><path class="cls-3" d="M119.5,102.84c-2.44,0-3.41.83-3.41,4.18s1,4.19,3.41,4.19,3.38-.8,3.38-4.19S121.89,102.84,119.5,102.84Zm0,7.57c-1.92,0-2.54-.55-2.54-3.39s.62-3.38,2.54-3.38S122,104.2,122,107,121.39,110.41,119.5,110.41Z"/><path class="cls-3" d="M133.92,102.84a10.62,10.62,0,0,0-3.35.86,1.79,1.79,0,0,0-1.76-.86,10.66,10.66,0,0,0-3.13.79l-.13-.64h-.69v8.07h.83v-7a13.29,13.29,0,0,1,2.94-.47c1,0,1.33.42,1.33,1.41v6h.84V104.9a3.55,3.55,0,0,0-.08-.76,14,14,0,0,1,3-.5c1,0,1.34.42,1.34,1.41v6h.83V104.9C135.9,103.53,135.28,102.84,133.92,102.84Z"/><path class="cls-3" d="M141.6,102.84a6.86,6.86,0,0,0-2.62.63l-.17-.48h-.61v10.86H139v-3.12a5.84,5.84,0,0,0,2.36.48c1.8,0,3-.54,3-4S143.76,102.84,141.6,102.84Zm-.28,7.57A6.7,6.7,0,0,1,139,110v-6a10.71,10.71,0,0,1,2.36-.3c1.72,0,2.16.72,2.16,3.59S142.73,110.41,141.32,110.41Z"/><path class="cls-3" d="M149.1,102.84a14.93,14.93,0,0,0-2.58.23v.79a15.91,15.91,0,0,1,2.55-.22c1.78,0,2,.48,2,1.34v1.63l-2.77.2c-1.55.12-2.25.68-2.25,2.26s.55,2.14,2.28,2.14a8.1,8.1,0,0,0,2.77-.65l.17.5h.63v-6C151.87,103.39,151.25,102.84,149.1,102.84Zm1.94,7.24a13.82,13.82,0,0,1-2.67.37c-1.15,0-1.48-.26-1.48-1.38s.17-1.46,1.38-1.55l2.77-.2Z"/><path class="cls-3" d="M158.17,102.84a10.59,10.59,0,0,0-3.19.79l-.13-.64h-.69v8.07H155v-7a13.28,13.28,0,0,1,3-.47c1,0,1.4.42,1.4,1.41v6h.83V104.9A1.79,1.79,0,0,0,158.17,102.84Z"/><polygon class="cls-3" points="165 109.97 162.38 102.99 161.5 102.99 164.58 110.89 163.41 113.85 164.26 113.85 168.4 102.99 167.53 102.99 165 109.97"/><polygon class="cls-3" points="112.55 78.52 95.98 78.52 95.98 43.45 86.04 43.45 86.04 86.9 112.55 86.9 112.55 78.52"/><rect class="cls-3" x="118.14" y="43.45" width="9.93" height="43.45"/><polygon class="cls-3" points="201.01 71.57 195.04 59.85 186.67 43.45 176.67 43.45 176.67 86.9 185.8 86.9 185.8 59.21 200.26 86.9 210.13 86.9 210.13 43.45 201.01 43.45 201.01 71.57"/><path class="cls-3" d="M159.48,43.45H144.84a2.53,2.53,0,0,0-2.68,2.36L133.84,86.9H170.9l-8.63-41.1A2.53,2.53,0,0,0,159.48,43.45Zm-.14,35.08-.94-5,.52,2.79.41,2.18H145.18l.39-2.18L147.06,68,150,51.83h4.35l0,.21,4,21.44v.08l.94,5Z"/><path class="cls-3" d="M225.65,64.92c0-11.05,1.37-13.47,8.69-13.47,3.29,0,6.64.31,8.51.5V43.38a82.54,82.54,0,0,0-9.13-.55c-14.15,0-18.25,5-18.25,22.22,0,16.2,3.48,21.54,14.15,22.35v0h0v5.3c5,0,5.84.19,5.84,1.25s-.62,1.24-3.66,1.24a20.86,20.86,0,0,1-3.85-.31v4.34a31.07,31.07,0,0,0,5,.37c6.7,0,8.5-1.8,8.5-5.71,0-2.91-1.43-4.78-6.64-4.78V87.46l.85,0h0a60.41,60.41,0,0,0,7.71-.78V78.08a55.72,55.72,0,0,1-9.38.81C228,78.89,225.65,76.53,225.65,64.92Z"/><path class="cls-3" d="M80.55,86.9,71.92,45.8a2.53,2.53,0,0,0-2.79-2.35H54.5c7.93.15,9.48,8.37,9.48,8.38h0L67,68l1,5.59,2.5,13.34Z"/><path class="cls-2" d="M276,45.81a2.52,2.52,0,0,0-2.69-2.36c-7.93.15-9.48,8.37-9.48,8.38h4.35L271.13,68l1.49,8.38.4,2.18h-9.93l-1.57,8.37h22.84Z"/><path class="cls-3" d="M273.35,43.45H258.72a2.53,2.53,0,0,0-2.79,2.35L247.3,86.9h10l2.51-13.34v-.07l1-5.52,3-16,0-.17h0S265.42,43.6,273.35,43.45Z"/></g><g id="Layer_2" data-name="Layer 2"><rect class="cls-1" width="327.77" height="154.67"/></g></svg>