<?xml version="1.0" encoding="utf-8"?>
<!-- Generator: Adobe Illustrator 24.2.3, SVG Export Plug-In . SVG Version: 6.00 Build 0)  -->
<svg version="1.1" id="Layer_1" xmlns="http://www.w3.org/2000/svg" xmlns:xlink="http://www.w3.org/1999/xlink" x="0px" y="0px"
	 viewBox="0 0 638.7 229.4" style="enable-background:new 0 0 638.7 229.4;" xml:space="preserve">
<style type="text/css">
	.st0{fill:#FF6441;}
	.st1{fill:#3C3C46;}
</style>
<g>
	<polygon class="st0" points="157.7,102.2 157.7,93.9 220.1,65.3 220.1,76.3 	"/>
	<polygon class="st0" points="91.8,112.6 91.8,118.4 188.6,69.8 188.6,59.4 	"/>
	<polygon class="st0" points="68.7,139 122.1,116.9 122.1,110.2 68.7,134.6 	"/>
</g>
<path class="st1" d="M477.8,108.5L464.9,138h7.5l2.8-6.4h14.9l2.8,6.4h7.9L488,108.5H477.8z M477.7,125.9l5-11.4l5,11.4H477.7z
	 M381.9,138h5.7l7.9-16.6V138h7.1v-29.5h-8.4l-9.4,21.4l-9.4-21.4h-8.7V138h7.1v-16.6L381.9,138z M214.9,138h5.7l7.9-16.6V138h7.1
	v-29.5h-8.4l-9.4,21.4l-9.4-21.4h-8.7V138h7.1v-16.6L214.9,138z M322.6,108.5v6.1h-20.5v6h17.1v5.9l-17.1,0v5.5h20.4v6.1h-28v-29.5
	H322.6z M136.8,108.5L123.9,138h7.5l2.8-6.4h14.9l2.8,6.4h7.9L147,108.5H136.8z M136.7,125.9l5-11.4l5,11.4H136.7z M186.5,121.9
	h-14.4v-7.6h14.4V121.9z M164.2,108.5l0,29.5h7.7v-10h17.3c2.2,0,4-1.3,4.2-4.2v-11c0-2.4-2.1-4.3-4.6-4.3H164.2z M513.5,108.5h-7.7
	V138h26.5v-6.1h-18.8V108.5z M427.5,108.5V138h7.6v-20.3l16.3,20.3h8.4v-29.5h-7.7v20.3l-15.9-20.3H427.5z M411.3,138h7.4v-14.7
	v-14.7h-7.4V138z M256.6,108.5v6.3h11.9V138h7.9v-23.2h11.9v-6.3H256.6z M542,108.5c-2.2-0.1-4.3,1.9-4.3,4v9.6
	c0,2.5,2.1,4.3,4.2,4.3H559v5.7h-13.6v-2.4h-8v4.1c0,2.2,2,4.3,4.3,4.3h20.8c2.1,0,4.2-1.6,4.2-4.4v-9.2c-0.1-2.7-2.1-4.3-4.3-4.4
	l-16.8,0v-5.5h13.2v1.9h7.5v-3.9c0.1-1.9-1.8-4.1-4.3-4H542z M329.6,108.5V138h7.5v-10.8h8.6l5.8,10.8h8l-6-10.8h0.7
	c2.3-0.2,4-1.9,4-4.4v-10c0-2.4-2.1-4.3-4.6-4.3H329.6z M351.5,121.3h-14.5v-6.7h14.5V121.3z"/>
<g>
	<path class="st0" d="M361.8,168.1v1.8h-10.4v-17h2.2v15.2H361.8z"/>
	<path class="st0" d="M364.2,152.6h2.4v2.4h-2.4V152.6z M364.3,157.3h2.1v12.6h-2.1V157.3z"/>
	<path class="st0" d="M378.1,159h-4.5v11h-2.1v-11H369v-1.7h2.5v-1c0-2.2,0.9-4.3,4.5-4.3c0.7,0,1.5,0.1,2,0.3v1.7
		c-0.5-0.1-1.2-0.2-1.9-0.2c-1.6,0-2.6,0.7-2.6,2.6v1h4.5V159z"/>
	<path class="st0" d="M382.1,166.2V159h-2.3v-1.7h2.3v-3l2.1-0.6v3.6h4v1.7h-4v7.2c0,2,0.9,2.2,1.8,2.2c0.8,0,1.8-0.2,2.3-0.4v1.7
		c-0.6,0.2-1.6,0.4-2.7,0.4C383.2,170.2,382.1,169,382.1,166.2z"/>
	<path class="st0" d="M390.7,152.6h2.4v2.4h-2.4V152.6z M390.9,157.3h2.1v12.6h-2.1V157.3z"/>
	<path class="st0" d="M396.7,157.3h1.8l0.2,1.1c0,0.2,0.1,0.2,0.2,0.2s0.2,0,0.4-0.2c0.8-0.6,2-1.3,4-1.3c2.5,0,3.8,1.1,3.8,3.7v9.2
		h-2.1v-8.7c0-1.9-0.9-2.4-2.4-2.4c-1.7,0-3.1,0.8-3.8,1.4v9.7h-2.1V157.3z"/>
	<path class="st0" d="M409.8,171.8c0-1.4,1-2.6,2.2-3.5c-1-0.4-1.4-1-1.4-1.9c0-0.8,0.5-1.5,1.2-2c-1-0.7-1.6-1.9-1.6-3.2
		c0-2.9,1.6-4.2,5.4-4.2c0.7,0,1.3,0.1,2,0.2h4.5l0.2,1.2l-2.3,0.3c0.5,0.6,0.8,1.5,0.8,2.4c0,2.9-1.6,4.2-5.2,4.2
		c-0.9,0-1.8-0.1-2.5-0.4c-0.4,0.3-0.6,0.7-0.6,1.1c0,0.6,0.4,0.8,1.6,1l4.9,1c1.8,0.4,2.7,1.6,2.7,3.3c0,2.6-1.8,3.7-6,3.7
		C411.6,175.3,409.8,174.2,409.8,171.8z M419.5,171.7c0-1.1-0.6-1.7-1.9-2l-4.3-0.9c-0.9,0.9-1.5,1.7-1.5,2.6c0,1.5,1.2,2.2,3.8,2.2
		C418.5,173.6,419.5,173.1,419.5,171.7z M418.7,161.3c0-2-0.8-2.6-3.1-2.6c-2.4,0-3.3,0.7-3.3,2.6c0,1.9,0.9,2.6,3.2,2.6
		C417.8,163.8,418.7,163.1,418.7,161.3z"/>
	<path class="st0" d="M430.2,161.4c0-6.3,2.3-8.7,7.6-8.7c2.2,0,3.8,0.4,4.4,0.7v1.9c-0.6-0.2-2.2-0.7-4.3-0.7c-4.3,0-5.5,2-5.5,6.7
		c0,5.8,1.9,7,4.4,7c1.9,0,3.2-0.7,4.1-1.1v-4.6h-3.6v-1.8h5.7v9.1h-1.7l-0.2-0.9c0-0.1-0.1-0.3-0.2-0.3c-0.1,0-0.2,0-0.4,0.2
		c-0.5,0.3-2.1,1.2-4.1,1.2C432.7,170.2,430.2,168,430.2,161.4z"/>
	<path class="st0" d="M446.5,167.2v-15h2.1v14.6c0,1.1,0.4,1.6,1.3,1.6c0.5,0,0.8,0,1.3-0.1v1.7c-0.5,0.1-1.1,0.2-1.8,0.2
		C447.7,170.2,446.5,169.2,446.5,167.2z"/>
	<path class="st0" d="M452.9,163.6c0-4.7,1.9-6.6,5.8-6.6c3.9,0,5.8,1.8,5.8,6.6s-1.9,6.6-5.8,6.6
		C454.8,170.2,452.9,168.4,452.9,163.6z M462.3,163.6c0-3.5-1.1-4.8-3.6-4.8c-2.6,0-3.6,1.3-3.6,4.8c0,3.5,1,4.8,3.6,4.8
		C461.3,168.4,462.3,167.1,462.3,163.6z"/>
	<path class="st0" d="M467.7,169.3v-17.1h2.1v6.3c0.5-0.3,2.1-1.4,4.1-1.4c2.8,0,4.8,1.2,4.8,6.4c0,5.1-1.8,6.8-5.9,6.8
		C470.4,170.2,468.8,169.7,467.7,169.3z M476.5,163.5c0-3.6-1-4.6-3.1-4.6c-1.8,0-3,0.8-3.6,1.2v7.9c0.6,0.2,1.5,0.5,3,0.5
		C475.1,168.4,476.5,167.4,476.5,163.5z"/>
	<path class="st0" d="M481.2,166.7c0-2.2,1.1-3,4-3.8l3.9-1.2v-0.6c0-1.2-0.6-2.3-3-2.3c-1.8,0-3.2,0.5-4,0.8v-1.8
		c1-0.4,2.4-0.8,4.3-0.8c3.3,0,4.8,1.5,4.8,4.1v8.8h-1.8l-0.2-1.1c0-0.2-0.1-0.2-0.2-0.2c-0.1,0-0.2,0-0.3,0.1
		c-0.7,0.5-2.3,1.4-4,1.4C482.2,170.2,481.2,169.1,481.2,166.7z M489,167.3v-4l-3.7,1.1c-1.7,0.5-2.1,1-2.1,2.2
		c0,1.3,0.5,1.9,1.9,1.9C486.6,168.5,488,167.8,489,167.3z"/>
	<path class="st0" d="M494.7,167.2v-15h2.1v14.6c0,1.1,0.4,1.6,1.3,1.6c0.5,0,0.8,0,1.3-0.1v1.7c-0.5,0.1-1.1,0.2-1.8,0.2
		C495.9,170.2,494.7,169.2,494.7,167.2z"/>
	<path class="st0" d="M512.1,154.7h-5.4v-1.8h12.9v1.8h-5.4v15.2h-2.2V154.7z"/>
	<path class="st0" d="M520.1,157.3h1.8l0.2,1.3c0,0.2,0.1,0.3,0.2,0.3c0.1,0,0.2,0,0.3-0.2c0.8-0.7,2.1-1.6,3.8-1.6
		c0.2,0,0.5,0,0.7,0.1v1.9c-1.6-0.1-3.4,0.4-4.8,1.5v9.4h-2.1V157.3z"/>
	<path class="st0" d="M528.8,166.7c0-2.2,1.1-3,4-3.8l3.9-1.2v-0.6c0-1.2-0.6-2.3-3-2.3c-1.8,0-3.2,0.5-4,0.8v-1.8
		c1-0.4,2.4-0.8,4.3-0.8c3.3,0,4.8,1.5,4.8,4.1v8.8H537l-0.2-1.1c0-0.2-0.1-0.2-0.2-0.2s-0.2,0-0.3,0.1c-0.7,0.5-2.3,1.4-4,1.4
		C529.9,170.2,528.8,169.1,528.8,166.7z M536.7,167.3v-4l-3.7,1.1c-1.7,0.5-2.1,1-2.1,2.2c0,1.3,0.5,1.9,1.9,1.9
		C534.3,168.5,535.7,167.8,536.7,167.3z"/>
	<path class="st0" d="M541.8,163.6c0-4.9,2.1-6.6,5.5-6.6c1.5,0,2.6,0.3,3.4,0.8v-5.6h2.1v17.7H551l-0.2-1.1c0-0.1-0.1-0.2-0.2-0.2
		c-0.1,0-0.1,0-0.2,0.1c-0.5,0.5-1.9,1.4-3.7,1.4C544,170.2,541.8,168.7,541.8,163.6z M550.7,167v-7.6c-0.6-0.3-1.7-0.6-3-0.6
		c-2.6,0-3.7,1.2-3.7,4.8c0,3.6,1.3,4.8,3.2,4.8C548.7,168.4,550.1,167.5,550.7,167z"/>
	<path class="st0" d="M566.6,164.1h-8.5c0.1,3.1,1.3,4.2,3.9,4.2c1.9,0,3.4-0.6,4.3-1v1.9c-0.8,0.4-2.2,0.9-4.4,0.9
		c-4.2,0-5.8-2.2-5.8-6.9c0-4.6,1.9-6.2,5.5-6.2c3.5,0,5.1,1.8,5.1,5.3V164.1z M564.6,161.9c0-2.1-1-3.1-3.2-3.1
		c-2.3,0-3.3,0.9-3.4,3.8h6.5V161.9z"/>
</g>
</svg>
