<?xml version="1.0" encoding="utf-8"?>
<!-- Generator: Adobe Illustrator 24.0.3, SVG Export Plug-In . SVG Version: 6.00 Build 0)  -->
<svg version="1.1" id="Layer_1" xmlns="http://www.w3.org/2000/svg" xmlns:xlink="http://www.w3.org/1999/xlink" x="0px" y="0px"
	 viewBox="0 0 96 96" style="enable-background:new 0 0 96 96;" xml:space="preserve">
<style type="text/css">
	.st0{display:none;}
	.st1{display:inline;}
	.st2{fill:#00243D;}
	.st3{display:inline;fill:#00243D;}
	.st4{display:inline;opacity:0.3;}
	.st5{fill:none;stroke:#00243D;stroke-miterlimit:10;}
	.st6{fill:#02243C;stroke:#00243D;stroke-miterlimit:10;}
	.st7{display:none;fill:#00243D;}
</style>
<g id="Layer_1_1_" class="st0">
	<g class="st1">
		<path class="st2" d="M-352.5-115.5v-20c0-0.6-0.4-1-1-1h-2.8c-0.5,0-1.1,0.1-1.6,0.4l-6.6,3.3v-2.7c0-0.6-0.4-1-1-1h-2.8
			c-0.5,0-1.1,0.1-1.6,0.4l-6.6,3.3v-10.7c0-0.6-0.4-1-1-1h-5c-0.6,0-1,0.4-1,1v28h-7.5v1h46v-1H-352.5z M-382.5-143.5h5v10.7
			c0,0.3,0.2,0.7,0.5,0.9s0.7,0.2,1,0l6.6-3.3c0.3-0.2,0.7-0.3,1.1-0.3h2.8v2.7c0,0.3,0.2,0.7,0.5,0.9s0.7,0.2,1,0l6.6-3.3
			c0.3-0.2,0.7-0.3,1.1-0.3h2.8v20h-29V-143.5z"/>
		<rect x="-377.5" y="-125.5" class="st2" width="1" height="3"/>
		<rect x="-371.5" y="-125.5" class="st2" width="1" height="3"/>
		<rect x="-365.5" y="-125.5" class="st2" width="1" height="3"/>
		<rect x="-359.5" y="-125.5" class="st2" width="1" height="3"/>
	</g>
	<g class="st1">
		<path class="st2" d="M-278.5-115.5v-21.6c0-0.8-0.4-1.4-1.1-1.8l-10.5-5.3c-0.5-0.2-1-0.4-1.6-0.4h-4.6c-0.5,0-1.1,0.1-1.6,0.4
			l-10.5,5.3c-0.7,0.3-1.1,1-1.1,1.8v21.6h-7.5v1h46v-1C-271-115.5-278.5-115.5-278.5-115.5z M-285.5-126.5v2h-17v-2H-285.5z
			 M-285.5-118.5h-17v-2h17V-118.5z M-285.5-121.5h-17v-2h17V-121.5z M-302.5-117.5h17v2h-17V-117.5z M-284.5-126.5h5v11h-5V-126.5z
			 M-307.9-138l10.5-5.3c0.3-0.2,0.7-0.3,1.1-0.3h4.6c0.4,0,0.8,0.1,1.1,0.3l10.5,5.3c0.3,0.2,0.6,0.5,0.6,0.9v9.6h-29v-9.6
			C-308.5-137.5-308.3-137.8-307.9-138z M-308.5-126.5h5v11h-5V-126.5z"/>
		<rect x="-285.5" y="-134.5" class="st2" width="1" height="3"/>
		<rect x="-303.5" y="-134.5" class="st2" width="1" height="3"/>
		<rect x="-297.5" y="-134.5" class="st2" width="1" height="3"/>
		<rect x="-291.5" y="-134.5" class="st2" width="1" height="3"/>
	</g>
	<g class="st1">
		<path class="st2" d="M-947-115.5v-24c0-0.5-0.5-1-1-1h-24c-0.5,0-1,0.5-1,1v24h-10v1h46v-1H-947z M-948-115.5h-24V-127h24V-115.5z
			 M-948-128h-24v-11.5h24V-128z"/>
		<rect x="-968" y="-136.5" class="st2" width="1" height="5.5"/>
		<rect x="-953" y="-136.5" class="st2" width="1" height="5.5"/>
		<rect x="-958" y="-136.5" class="st2" width="1" height="5.5"/>
		<rect x="-963" y="-136.5" class="st2" width="1" height="5.5"/>
		<rect x="-968" y="-124" class="st2" width="1" height="5.5"/>
		<rect x="-953" y="-124" class="st2" width="1" height="5.5"/>
		<rect x="-958" y="-124" class="st2" width="1" height="5.5"/>
		<rect x="-963" y="-124" class="st2" width="1" height="5.5"/>
	</g>
	<g class="st1">
		<path class="st2" d="M307.2-132.1l-3.2-4v-2.3h1c0.3,0,0.5-0.2,0.5-0.5v-3.5c0-1.1-0.9-2-2-2h-11c-1.1,0-2,0.9-2,2v3.5
			c0,0.3,0.2,0.5,0.5,0.5h1v2.3l-3.2,4c-0.5,0.6-0.8,1.4-0.8,2.2v11.9c0,1.9,1.6,3.5,3.5,3.5h13c1.9,0,3.5-1.6,3.5-3.5v-11.9
			C308-130.7,307.7-131.5,307.2-132.1z M291.5-142.5c0-0.6,0.4-1,1-1h11c0.6,0,1,0.4,1,1v3H302v-2h-1v2h-2.5v-2h-1v2H295v-2h-1v2
			h-2.5V-142.5z M289.5-131.5l3.3-4.2c0.1-0.1,0.1-0.2,0.1-0.3v-2.5h10v2.5c0,0.1,0,0.2,0.1,0.3l3.3,4.2c0.4,0.4,0.5,1,0.5,1.6v0.4
			h-18v-0.4C289-130.5,289.2-131.1,289.5-131.5z M307-128.5v8h-18v-8H307z M304.5-115.5h-13c-1.4,0-2.5-1.1-2.5-2.5v-1.5h18v1.5
			C307-116.6,305.9-115.5,304.5-115.5z"/>
		<polygon class="st2" points="296,-124 297.5,-124 297.5,-122.5 298.5,-122.5 298.5,-124 300,-124 300,-125 298.5,-125 
			298.5,-126.5 297.5,-126.5 297.5,-125 296,-125 		"/>
	</g>
	<g class="st1">
		<rect x="-1120" y="-132.5" class="st2" width="3" height="1"/>
		<rect x="-1115" y="-132.5" class="st2" width="3" height="1"/>
		<rect x="-1110" y="-132.5" class="st2" width="3" height="1"/>
		<path class="st2" d="M-1089.7-132.1l-2.5-3.1c-0.7-0.8-1.7-1.3-2.7-1.3h-5.7l-9.3-11.6c-0.2-0.2-0.5-0.4-0.8-0.4h-1.2
			c-0.3,0-0.6,0.1-0.8,0.4c-0.2,0.2-0.3,0.5-0.2,0.8l2.2,10.8h-8.6l-3.7-4.6c-0.2-0.2-0.5-0.4-0.8-0.4h-2.3c-0.6,0-1,0.5-1,1v6.5
			c0,0.8,0.3,1.6,0.8,2.2l3.2,4.1c0.7,0.8,1.7,1.3,2.7,1.3h9.6l-2.2,10.8c-0.1,0.3,0,0.6,0.2,0.8c0.2,0.2,0.5,0.4,0.8,0.4h1.2
			c0.3,0,0.6-0.1,0.8-0.4l9.3-11.6h8.2c1.9,0,3.5-1.6,3.5-3.5C-1089-130.8-1089.3-131.5-1089.7-132.1z M-1111.9-147.5h1.2l8.8,11
			h-7.8L-1111.9-147.5z M-1126-140.5h2.3l3.2,4h-5.5V-140.5z M-1110.7-115.5h-1.2l2.2-11h7.8L-1110.7-115.5z M-1092.5-127.5h-27.8
			c-0.8,0-1.5-0.3-1.9-0.9l-3.2-4c-0.4-0.4-0.6-1-0.6-1.6v-1.5h31.1c0.8,0,1.5,0.3,1.9,0.9l1.7,2.1h-6.7v1h7.5l0,0
			c0.3,0.4,0.5,0.9,0.5,1.5C-1090-128.6-1091.1-127.5-1092.5-127.5z"/>
	</g>
	<g class="st1">
		<path class="st2" d="M-207-115.5v-17h1.5c0.5,0,1-0.5,1-1v-3.5c0-1.9-1.6-3.5-3.5-3.5h-4v-2c0-1.1-0.9-2-2-2h-12c-1.1,0-2,0.9-2,2
			v2h-4c-1.9,0-3.5,1.6-3.5,3.5v3.5c0,0.5,0.5,1,1,1h1.5v17h-10v1h46v-1H-207z M-227-142.5c0-0.5,0.5-1,1-1h12c0.5,0,1,0.5,1,1v2
			h-14V-142.5z M-234.5-133.5v-3.5c0-1.4,1.1-2.5,2.5-2.5h24c1.4,0,2.5,1.1,2.5,2.5v3.5H-234.5z M-218-115.5h-14v-17h14V-115.5z
			 M-208-115.5h-9v-17h9V-115.5z"/>
		<rect x="-225.5" y="-137.5" class="st2" width="1" height="2"/>
		<rect x="-230.5" y="-137.5" class="st2" width="1" height="2"/>
		<rect x="-215.5" y="-137.5" class="st2" width="1" height="2"/>
		<rect x="-220.5" y="-137.5" class="st2" width="1" height="2"/>
		<rect x="-215.5" y="-125" class="st2" width="1" height="2"/>
		<rect x="-210.5" y="-137.5" class="st2" width="1" height="2"/>
	</g>
	<g class="st1">
		<rect x="-1037" y="-129.5" class="st2" width="1" height="4"/>
		<path class="st2" d="M-1012-116.5c0,0.6-0.4,1-1,1h-2c-0.6,0-1-0.4-1-1h-1c0,0.6-0.4,1-1,1h-2c-0.6,0-1-0.4-1-1h-1
			c0,0.6-0.4,1-1,1h-0.7l5.9-7.4c0.5-0.6,0.8-1.4,0.8-2.2v-1.4c0-0.6-0.4-1-1-1h-5.1c-1.1,0-2.1,0.5-2.7,1.3l-0.5,0.7h-3.7
			c-0.3,0-0.6,0.1-0.9,0.1v-5.1c0-1.1-0.9-2-2-2h-3v-4h-1v4h-3c-1.1,0-2,0.9-2,2v7h-6.5c-0.6,0-1,0.4-1,1v7h-0.5c-0.6,0-1-0.4-1-1
			h-1c0,0.6-0.4,1-1,1h-2c-0.6,0-1-0.4-1-1h-1c0,1.1,0.9,2,2,2h2c0.6,0,1.1-0.3,1.5-0.7c0.4,0.4,0.9,0.7,1.5,0.7h2
			c0.6,0,1.1-0.3,1.5-0.7c0.4,0.4,0.9,0.7,1.5,0.7h2c0.6,0,1.1-0.3,1.5-0.7c0.4,0.4,0.9,0.7,1.5,0.7h2c0.6,0,1.1-0.3,1.5-0.7
			c0.4,0.4,0.9,0.7,1.5,0.7h2c0.6,0,1.1-0.3,1.5-0.7c0.4,0.4,0.9,0.7,1.5,0.7h2c0.6,0,1.1-0.3,1.5-0.7c0.4,0.4,0.9,0.7,1.5,0.7h2
			c0.6,0,1.1-0.3,1.5-0.7c0.4,0.4,0.9,0.7,1.5,0.7h2c0.6,0,1.1-0.3,1.5-0.7c0.4,0.4,0.9,0.7,1.5,0.7h2c1.1,0,2-0.9,2-2H-1012z
			 M-1041-130.5c0-0.6,0.4-1,1-1h7c0.6,0,1,0.4,1,1v5.6c-0.3,0.2-0.6,0.4-0.8,0.7l-0.5,0.7h-7.7V-130.5z M-1033.1-122.5
			c0.2,0,0.3-0.1,0.4-0.2l0.7-0.9c0.5-0.6,1.2-0.9,2-0.9h4c0.2,0,0.3-0.1,0.4-0.2l0.7-0.9c0.5-0.6,1.2-0.9,2-0.9h5.1v1.4
			c0,0.6-0.2,1.1-0.5,1.6l-3.2,4h-26.8v-3H-1033.1z M-1026-116.5h-1c0,0.6-0.4,1-1,1h-2c-0.6,0-1-0.4-1-1h-1c0,0.6-0.4,1-1,1h-2
			c-0.6,0-1-0.4-1-1h-1c0,0.6-0.4,1-1,1h-2c-0.6,0-1-0.4-1-1h-1c0,0.6-0.4,1-1,1h-2c-0.6,0-1-0.4-1-1h-1c0,0.6-0.4,1-1,1h-0.5v-3h26
			l-2.4,3h-0.1C-1025.6-115.5-1026-115.9-1026-116.5z"/>
	</g>
	<path class="st3" d="M-1540-115.5v-13c0-0.6-0.4-1-1-1h-1v-8c0-0.6-0.4-1-1-1h-4v-2.7c0-0.2-0.1-0.4-0.2-0.6l-1.8-2.2v-1.6
		c0-0.2-0.1-0.4-0.2-0.6l-2.3-2.9v-3.3h-1v3.3l-2.3,2.9c-0.1,0.2-0.2,0.4-0.2,0.6v1.6l-1.8,2.2c-0.1,0.2-0.2,0.4-0.2,0.6v8.7h-4
		c-0.6,0-1,0.4-1,1v8h-1c-0.6,0-1,0.4-1,1v7h-11v1h46v-1H-1540z M-1542-128.5h1v13h-8v-10h2v-1h-2v-2h2v-1h-2v-2h2v-1h-2v-2h2v-1h-2
		v-2h6v8C-1543-128.9-1542.6-128.5-1542-128.5z M-1556-141.2l1.8-2.2c0.1-0.2,0.2-0.4,0.2-0.6v-1.6l2-2.5l2,2.5v1.6
		c0,0.2,0.1,0.4,0.2,0.6l1.8,2.2v2.7h-1c-0.6,0-1,0.4-1,1v22h-4v-16c0-0.6-0.4-1-1-1h-1V-141.2z M-1563-122.5h1c0.6,0,1-0.4,1-1v-8
		h6v16h-8V-122.5z"/>
	<path class="st3" d="M679.5-135.5H679v-2.5c0-0.8-0.3-1.6-0.8-2.2l-2.4-3.1c-0.7-0.8-1.7-1.3-2.7-1.3H663c-1.1,0-2.1,0.5-2.7,1.3
		l-2.4,3.1c-0.5,0.6-0.8,1.4-0.8,2.2v2.5h-0.5c-1.4,0-2.5,1.1-2.5,2.5v7c0,1.4,1.1,2.5,2.5,2.5h0.5v1c0,0.8,0.3,1.6,0.8,2.2l2.4,3.1
		c0.7,0.8,1.7,1.3,2.7,1.3h1.6v0.5c0,0.5,0.5,1,1,1h5.5c0.5,0,1-0.5,1-1v-2c0-0.5-0.5-1-1-1h-5.5c-0.5,0-1,0.5-1,1v0.5H663
		c-0.8,0-1.5-0.3-2-0.9l-2.4-3c-0.4-0.4-0.5-1-0.5-1.6v-1h2c0.5,0,1-0.5,1-1v-10c0-0.5-0.5-1-1-1h-2v-2.5c0-0.6,0.2-1.1,0.5-1.6
		l2.4-3c0.5-0.6,1.2-0.9,2-0.9h0.1v2c0,0.5,0.5,1,1,1h8c0.5,0,1-0.5,1-1v-2h0.1c0.8,0,1.5,0.3,2,0.9l2.4,3c0.4,0.4,0.5,1,0.5,1.6
		v2.5h-2c-0.5,0-1,0.5-1,1v10c0,0.5,0.5,1,1,1h3.5c1.4,0,2.5-1.1,2.5-2.5v-7C682-134.4,680.9-135.5,679.5-135.5z M665.5-117.5h5.5v2
		h-5.5V-117.5z M660-134.5v2h-2v1h2v1.5h-2v1h2v1.5h-2v1h2v2h-3.5c-0.8,0-1.5-0.7-1.5-1.5v-7c0-0.8,0.7-1.5,1.5-1.5H660z M672-141.5
		h-8v-2h8V-141.5z M681-126c0,0.8-0.7,1.5-1.5,1.5H676v-2h2v-1h-2v-1.5h2v-1h-2v-1.5h2v-1h-2v-2h3.5c0.8,0,1.5,0.7,1.5,1.5V-126z"/>
	<path class="st3" d="M232.5-119.6l-5.5-11.1v-10c0.9-0.2,1.5-1,1.5-1.9v-1c0-0.6-0.4-1-1-1h-7c-0.6,0-1,0.4-1,1v1
		c0,0.9,0.6,1.7,1.5,1.9v10l-5.5,11.1c-0.5,1.1-0.5,2.4,0.2,3.4c0.6,1,1.8,1.7,3,1.7h10.8c1.2,0,2.3-0.6,3-1.7
		C233-117.2,233.1-118.5,232.5-119.6z M220.5-142.5v-1h7v1c0,0.6-0.4,1-1,1h-5C220.9-141.5,220.5-141.9,220.5-142.5z M221.9-130.2
		c0.1-0.1,0.1-0.3,0.1-0.4v-1.9h2v-1h-2v-1.5h2v-1h-2v-1.5h2v-1h-2v-2h4v9.9c0,0.2,0,0.3,0.1,0.4l3.8,7.7H228c-0.6,0-1-0.4-1-1h-1
		c0,0.6-0.4,1-1,1h-2c-0.6,0-1-0.4-1-1h-1c0,0.6-0.4,1-1,1h-1.9L221.9-130.2z M231.5-116.7c-0.5,0.7-1.3,1.2-2.1,1.2h-10.8
		c-0.9,0-1.7-0.4-2.1-1.2s-0.5-1.7-0.1-2.4l1.2-2.4h2.4c0.6,0,1.1-0.3,1.5-0.7c0.4,0.4,0.9,0.7,1.5,0.7h2c0.6,0,1.1-0.3,1.5-0.7
		c0.4,0.4,0.9,0.7,1.5,0.7h2.4l1.2,2.4C232-118.3,232-117.4,231.5-116.7z"/>
	<path class="st3" d="M-134-115.5v-4h3v-1h-3v-2h1c1.1,0,2-0.9,2-2v-5.5c0-0.3-0.2-0.5-0.5-0.5c-1.3,0-2.4,0.7-3,1.7
		c-0.6-1-1.7-1.7-3-1.7c-0.3,0-0.5,0.2-0.5,0.5v5.5c0,1.1,0.9,2,2,2h1v4h-3v1h3v2h-16v-9h5.5c1.9,0,3.5-1.6,3.5-3.5v-13
		c0-1.9-1.6-3.5-3.5-3.5h-12c-1.9,0-3.5,1.6-3.5,3.5v13c0,1.9,1.6,3.5,3.5,3.5h5.5v9h-17v1h46v-1H-134z M-152-130.5h-4v1h4v4h-5.5
		c-1.4,0-2.5-1.1-2.5-2.5v-13c0-1.4,1.1-2.5,2.5-2.5h12c1.4,0,2.5,1.1,2.5,2.5v13c0,1.4-1.1,2.5-2.5,2.5h-5.5v-9h4v-1h-4v-4h-1
		V-130.5z M-136-123.5c-0.5,0-1-0.5-1-1v-5c1.1,0.2,2,1.2,2,2.5v1.5h1v-1.5c0-1.2,0.9-2.2,2-2.5v5c0,0.5-0.5,1-1,1H-136z"/>
	<g class="st1">
		<polygon class="st2" points="-1246.5,-115.5 -1266.5,-115.5 -1279,-115.5 -1279,-114.5 -1233,-114.5 -1233,-115.5 		"/>
		<path class="st2" d="M-1263.1-118.5h2.1h1h10.1c0.2,1.7,1.7,3,3.4,3s3.2-1.3,3.4-3h3.1c0.6,0,1-0.4,1-1v-6c0-0.6-0.4-1-1-1h-6.3
			l-6.5-5.2c-0.6-0.5-1.4-0.8-2.2-0.8h-8.9c-0.8,0-1.6,0.3-2.2,0.8l-6.7,5.3l0,0c-0.1,0.1-0.2,0.2-0.2,0.4v6.5c0,0.6,0.4,1,1,1h2.1
			c0.2,1.7,1.7,3,3.4,3S-1263.3-116.8-1263.1-118.5z M-1246.5-116.5c-1.4,0-2.5-1.1-2.5-2.5s1.1-2.5,2.5-2.5s2.5,1.1,2.5,2.5
			S-1245.1-116.5-1246.5-116.5z M-1240-119.5h-3.1c-0.2-1.7-1.7-3-3.4-3s-3.2,1.3-3.4,3h-10.1v-6h20V-119.5z M-1255.1-131.5
			c0.6,0,1.1,0.2,1.6,0.5l5.6,4.5h-12.1v-5H-1255.1z M-1265.5-131c0.4-0.4,1-0.5,1.6-0.5h2.9v5h-10.1L-1265.5-131z M-1272-125.5h11
			v6h-2.1c-0.2-1.7-1.7-3-3.4-3s-3.2,1.3-3.4,3h-2.1V-125.5z M-1266.5-116.5c-1.4,0-2.5-1.1-2.5-2.5s1.1-2.5,2.5-2.5
			s2.5,1.1,2.5,2.5S-1265.1-116.5-1266.5-116.5z"/>
		<rect x="-1258" y="-124" class="st2" width="2" height="1"/>
	</g>
	<path class="st3" d="M-438-115.5v-17h6v5h-3v1h7v-1h-3v-5h6c0.5,0,1-0.5,1-1v-3c0-0.5-0.5-1-1-1h-6.4l-13.7-6.8
		c-0.3-0.1-0.6-0.1-0.9,0l-13.8,6.9l0,0c-0.2,0.1-0.3,0.2-0.3,0.4v2.5c0,1.1,0.9,2,2,2h2v17h-9v1h46v-1L-438-115.5L-438-115.5z
		 M-445-143.2l11.4,5.7H-445V-143.2z M-446-143.2v5.7h-11.4L-446-143.2z M-458-133.5c-0.5,0-1-0.5-1-1v-2h34v3H-458z M-453-115.5h-2
		v-17h2V-115.5z M-442-115.5h-10v-2.2l10-5V-115.5z M-442-123.8l-10,5v-5.4l10-5V-123.8z M-442-130.3l-10,5v-7.2h10V-130.3z
		 M-439-115.5h-2v-17h2V-115.5z"/>
	<g class="st1">
		<path class="st2" d="M534-131.5h-5v-7c0-1.1-0.9-2-2-2h-21c-1.1,0-2,0.9-2,2v12c0,1.1,0.9,2,2,2h10v3h-5v1h11v-1h-5v-3h8v8
			c0,1.1,0.9,2,2,2h7c1.1,0,2-0.9,2-2v-13C536-130.6,535.1-131.5,534-131.5z M506-125.5c-0.6,0-1-0.4-1-1v-1h20v2H506z M525-129.5v1
			h-20v-10c0-0.6,0.4-1,1-1h21c0.6,0,1,0.4,1,1v7h-1C525.9-131.5,525-130.6,525-129.5z M535-116.5c0,0.6-0.4,1-1,1h-7
			c-0.6,0-1-0.4-1-1v-13c0-0.6,0.4-1,1-1h7c0.6,0,1,0.4,1,1V-116.5z"/>
		<rect x="529" y="-118" class="st2" width="3" height="1"/>
	</g>
	<g class="st1">
		<rect x="-909" y="-115.5" class="st2" width="46" height="1"/>
		<path class="st2" d="M-871.2-127.5h0.2v6h1v-6h0.2l1.9,3.1l0.9-0.5l-1.9-3.1c-0.2-0.3-0.5-0.5-0.9-0.5h-1.4
			c-0.4,0-0.7,0.2-0.9,0.5l-1.9,3.1l0.9,0.5L-871.2-127.5z"/>
		<path class="st2" d="M-879-132.5h-2.3l-9.2-6.3v-0.8c0.9-0.2,1.5-1,1.5-1.9h-1c0,0.5-0.5,1-1,1s-1-0.5-1-1s0.5-1,1-1
			c0.3,0,0.5-0.2,0.5-0.5v-1.5h-1v1.1c-0.9,0.2-1.5,1-1.5,1.9s0.6,1.7,1.5,1.9v0.8l-9.2,6.3h-2.3c-0.5,0-1,0.5-1,1v13
			c0,0.5,0.5,1,1,1h24c0.5,0,1-0.5,1-1v-13C-878-132-878.5-132.5-879-132.5z M-891-137.9l7.9,5.4h-15.8L-891-137.9z M-879-118.5h-24
			v-13h24V-118.5z"/>
		<rect x="-899" y="-128.5" class="st2" width="1" height="7"/>
		<rect x="-884" y="-128.5" class="st2" width="1" height="7"/>
		<rect x="-889" y="-128.5" class="st2" width="1" height="7"/>
		<rect x="-894" y="-128.5" class="st2" width="1" height="7"/>
	</g>
	<path class="st3" d="M80.5-144.5h-9c-1.9,0-3.5,1.6-3.5,3.5v10.8c0,0.9,0.3,1.7,0.9,2.3l3.3,3.6c0.4,0.4,0.9,0.7,1.5,0.7H74v4h-0.5
		c-1.1,0-2,0.9-2,2v1c0,1.1,0.9,2,2,2h1c0.6,0,1.1-0.3,1.5-0.7c0.4,0.4,0.9,0.7,1.5,0.7h1c1.1,0,2-0.9,2-2v-1c0-1.1-0.9-2-2-2H78v-4
		h0.3c0.6,0,1.1-0.2,1.5-0.7l3.3-3.6c0.6-0.6,0.9-1.5,0.9-2.3V-141C84-142.9,82.4-144.5,80.5-144.5z M77.5-118.5h1c0.6,0,1,0.4,1,1
		v1c0,0.6-0.4,1-1,1h-1c-0.6,0-1-0.4-1-1v-1h-1v1c0,0.6-0.4,1-1,1h-1c-0.6,0-1-0.4-1-1v-1c0-0.6,0.4-1,1-1h1c0.3,0,0.5-0.2,0.5-0.5
		v-4.5h2v4.5C77-118.7,77.2-118.5,77.5-118.5z M83-130.2c0,0.6-0.2,1.2-0.6,1.7l-3.3,3.6c-0.2,0.2-0.5,0.3-0.7,0.3h-4.7
		c-0.3,0-0.6-0.1-0.7-0.3l-3.3-3.6c-0.4-0.5-0.6-1.1-0.6-1.7v-3.3h4v-1h-4v-2h4v-1h-4v-2h4v-1h-4v-0.5c0-1.4,1.1-2.5,2.5-2.5h9
		c1.4,0,2.5,1.1,2.5,2.5v10.8H83z"/>
	<path class="st3" d="M164.2-133.7l-4.4-8.9c-0.6-1.2-1.8-1.9-3.1-1.9h-13.3c-1.3,0-2.5,0.7-3.1,1.9l-4.4,8.9
		c-0.2,0.5-0.1,1.1,0.4,1.3l4.8,2.6v14.2c0,0.5,0.5,1,1,1h16c0.5,0,1-0.5,1-1v-14.2l4.8-2.6C164.3-132.6,164.5-133.2,164.2-133.7z
		 M146-143.5h8v1c0,0.5-0.5,1-1,1h-6c-0.5,0-1-0.5-1-1V-143.5z M159-130.8v-4.7h-1v20h-16v-20h-1v4.7l-4.3-2.4l4.5-8.9
		c0.4-0.9,1.3-1.4,2.2-1.4h1.7v1c0,1.1,0.9,2,2,2h6c1.1,0,2-0.9,2-2v-1h1.7c0.9,0,1.8,0.5,2.2,1.4l4.5,8.9L159-130.8z"/>
	<g class="st1">
		<path class="st2" d="M383-134.5l1.3-2.4c0.2-0.4,0.1-0.9-0.2-1.2l-1.6-1.6c-0.3-0.3-0.8-0.4-1.2-0.2l-2.4,1.3
			c-1.2-0.8-2.6-1.4-4.1-1.7l-0.8-3.5c-0.1-0.5-0.5-0.8-1-0.8h-2.2c-0.5,0-0.9,0.3-1,0.8l-0.8,3.5c-5.8,1.3-10.1,6.5-10.1,12.7
			c0,7.2,5.8,13,13,13s13-5.8,13-13C385-130.1,384.2-132.4,383-134.5z M381.8-138.9l1.6,1.6l-1.1,1.9c-0.7-0.9-1.5-1.7-2.5-2.5
			L381.8-138.9z M370.9-143.5h2.2l0.7,3.1c-0.6-0.1-1.2-0.1-1.8-0.1s-1.2,0.1-1.8,0.1L370.9-143.5z M372-115.5c-6.6,0-12-5.4-12-12
			c0-6.6,5.4-12,12-12s12,5.4,12,12S378.6-115.5,372-115.5z"/>
		<path class="st2" d="M372.5-129.4v-3.6h-1v3.6c-0.9,0.2-1.5,1-1.5,1.9c0,1.1,0.9,2,2,2s2-0.9,2-2
			C374-128.4,373.4-129.2,372.5-129.4z M372-126.5c-0.6,0-1-0.4-1-1c0-0.6,0.4-1,1-1s1,0.4,1,1S372.6-126.5,372-126.5z"/>
		<rect x="371.5" y="-138" class="st2" width="1" height="2"/>
		<rect x="361.5" y="-128" class="st2" width="2" height="1"/>
		<rect x="371.5" y="-119" class="st2" width="1" height="2"/>
		<rect x="380.5" y="-128" class="st2" width="2" height="1"/>
	</g>
	<g class="st1">
		<path class="st2" d="M-1162-134.5h-12c-0.6,0-1,0.5-1,1v5h-2v-10c0-1.1-0.9-2-2-2h-6c-1.1,0-2,0.9-2,2v10h-2v-5c0-0.5-0.4-1-1-1
			h-12c-0.6,0-1,0.5-1,1v6.8c0,0.2,0.1,0.4,0.2,0.6l1.7,2.2c0.2,0.2,0.5,0.4,0.8,0.4h10.3c0.6,0,1-0.5,1-1v-3h2v8c0,0.5,0.4,1,1,1
			h3.5v4h1v-4h3.5c0.6,0,1-0.5,1-1v-8h2v3c0,0.5,0.4,1,1,1h10.3c0.3,0,0.6-0.1,0.8-0.4l1.7-2.2c0.1-0.2,0.2-0.4,0.2-0.6v-6.8
			C-1161-134-1161.4-134.5-1162-134.5z M-1190-124.5h-10.3l-1.7-2.2v-6.8h12V-124.5z M-1178-119.5h-8v-4h8V-119.5z M-1178-124.5h-8
			v-14c0-0.5,0.4-1,1-1h6c0.6,0,1,0.5,1,1V-124.5z M-1162-126.7l-1.7,2.2h-10.3v-9h12V-126.7z"/>
		<rect x="-1199.5" y="-130.5" class="st2" width="1" height="3"/>
		<rect x="-1196.5" y="-130.5" class="st2" width="1" height="3"/>
		<rect x="-1193.5" y="-130.5" class="st2" width="1" height="3"/>
		<rect x="-1171.5" y="-130.5" class="st2" width="1" height="3"/>
		<rect x="-1168.5" y="-130.5" class="st2" width="1" height="3"/>
		<rect x="-1165.5" y="-130.5" class="st2" width="1" height="3"/>
	</g>
	<g class="st1">
		<path class="st2" d="M751.3-126.9c1.7-1.9,2.7-4.3,2.7-7.1c0-5.8-4.7-10.5-10.5-10.5c-2.7,0-5.2,1-7.1,2.7l-1.4-1.4
			c-0.2-0.2-0.5-0.3-0.7-0.3c-0.3,0-0.5,0.1-0.7,0.3c-4.9,5.3-4.8,13.6,0.4,18.7c2.5,2.5,5.8,3.8,9,3.9v2h-4.5c-1.1,0-2,0.9-2,2v1.5
			c0,0.3,0.2,0.5,0.5,0.5h13c0.3,0,0.5-0.2,0.5-0.5v-1.5c0-1.1-0.9-2-2-2H744v-2c3.1-0.1,6.2-1.3,8.7-3.6c0.2-0.2,0.3-0.4,0.3-0.7
			s-0.1-0.5-0.3-0.7L751.3-126.9z M749.5-116.5v1h-12v-1c0-0.6,0.4-1,1-1h10C749.1-117.5,749.5-117.1,749.5-116.5z M743.5-143.5
			c5.2,0,9.5,4.3,9.5,9.5s-4.3,9.5-9.5,9.5c-2,0-3.9-0.6-5.4-1.7l1.7-4.3c0.1-0.4,0.1-0.8-0.2-1.1l-2.5-2.5
			c-0.3-0.3-0.9-0.4-1.3-0.1L734-133c0-0.3-0.1-0.7-0.1-1C734-139.2,738.3-143.5,743.5-143.5z M734.2-131.9l2.2-1.5l2.5,2.5
			l-1.6,4.1C735.8-128.1,734.7-129.9,734.2-131.9z M734.7-125.2c-4.8-4.8-4.9-12.4-0.3-17.3l1.4,1.4c-1.7,1.9-2.7,4.3-2.7,7.1
			c0,5.8,4.7,10.5,10.5,10.5c2.7,0,5.2-1,7.1-2.7l1.4,1.4C747-120.2,739.4-120.4,734.7-125.2z"/>
		<path class="st2" d="M740.1-135.3l2.4,1.6l0.9,4.4c0.1,0.5,0.5,0.8,1,0.8h1.2c0.5,0,0.9-0.3,1-0.8l0.8-3.4l1.6-0.8
			c0.2-0.1,0.4-0.3,0.5-0.6l0.8-2.5l0,0c0.1-0.4,0-0.8-0.2-1l-1.6-1.6c-0.2-0.2-0.4-0.3-0.7-0.3h-5.5c-0.3,0-0.6,0.2-0.8,0.4
			l-1.6,2.4c-0.1,0.2-0.2,0.5-0.1,0.8C739.8-135.7,739.9-135.5,740.1-135.3z M742.3-138.5h5.5l1.6,1.6l-0.8,2.5l-1.6,0.8
			c-0.3,0.1-0.5,0.4-0.5,0.7l-0.8,3.4h-1.2l-0.9-4.4c-0.1-0.3-0.2-0.5-0.4-0.6l-2.4-1.6L742.3-138.5z"/>
	</g>
	<g class="st1">
		<rect x="582" y="-132.5" class="st2" width="10" height="1"/>
		<rect x="582" y="-127.5" class="st2" width="4" height="1"/>
		<rect x="582" y="-130" class="st2" width="7" height="1"/>
		<rect x="596.5" y="-138" class="st2" width="2" height="1"/>
		<rect x="608.5" y="-130" class="st2" width="2" height="1"/>
		<path class="st2" d="M611-132.5h-10v-6c0-1.1-0.9-2-2-2h-18c-1.1,0-2,0.9-2,2v14c0,1.1,0.9,2,2,2h10v6c0,1.1,0.9,2,2,2h18
			c1.1,0,2-0.9,2-2v-14C613-131.6,612.1-132.5,611-132.5z M611-131.5c0.6,0,1,0.4,1,1v3h-11v-4H611z M581-139.5h18c0.6,0,1,0.4,1,1
			v3h-20v-3C580-139.1,580.4-139.5,581-139.5z M580-124.5v-10h20v10c0,0.6-0.4,1-1,1h-18C580.4-123.5,580-123.9,580-124.5z
			 M611-115.5h-18c-0.6,0-1-0.4-1-1v-6h7c1.1,0,2-0.9,2-2v-2h11v10C612-115.9,611.6-115.5,611-115.5z"/>
	</g>
	<g class="st1">
		<path class="st2" d="M1937-116.5c0,0.6-0.4,1-1,1h-2c-0.6,0-1-0.4-1-1h-1c0,0.6-0.4,1-1,1h-2c-0.6,0-1-0.4-1-1h-1c0,0.6-0.4,1-1,1
			h-0.5c-0.3-5.6-4.9-10-10.5-10s-10.2,4.4-10.5,10h-0.5c-0.6,0-1-0.4-1-1h-1c0,0.6-0.4,1-1,1h-2c-0.6,0-1-0.4-1-1h-1
			c0,0.6-0.4,1-1,1h-2c-0.6,0-1-0.4-1-1h-1c0,0.6-0.4,1-1,1h-2c-0.6,0-1-0.4-1-1h-1c0,0.6-0.4,1-1,1h-2c-0.6,0-1-0.4-1-1h-1
			c0,0.6-0.4,1-1,1h-2c-0.6,0-1-0.4-1-1h-1c0,0.6-0.4,1-1,1h-2c-0.6,0-1-0.4-1-1h-1c0,0.6-0.4,1-1,1h-2c-0.6,0-1-0.4-1-1h-1
			c0,0.6-0.4,1-1,1h-2c-0.6,0-1-0.4-1-1h-1c0,1.1,0.9,2,2,2h2c0.6,0,1.1-0.3,1.5-0.7c0.4,0.4,0.9,0.7,1.5,0.7h2
			c0.6,0,1.1-0.3,1.5-0.7c0.4,0.4,0.9,0.7,1.5,0.7h2c0.6,0,1.1-0.3,1.5-0.7c0.4,0.4,0.9,0.7,1.5,0.7h2c0.6,0,1.1-0.3,1.5-0.7
			c0.4,0.4,0.9,0.7,1.5,0.7h2c0.6,0,1.1-0.3,1.5-0.7c0.4,0.4,0.9,0.7,1.5,0.7h2c0.6,0,1.1-0.3,1.5-0.7c0.4,0.4,0.9,0.7,1.5,0.7h2
			c0.6,0,1.1-0.3,1.5-0.7c0.4,0.4,0.9,0.7,1.5,0.7h2c0.6,0,1.1-0.3,1.5-0.7c0.4,0.4,0.9,0.7,1.5,0.7h2c0.6,0,1.1-0.3,1.5-0.7
			c0.4,0.4,0.9,0.7,1.5,0.7h2c0.6,0,1.1-0.3,1.5-0.7c0.4,0.4,0.9,0.7,1.5,0.7h2c0.6,0,1.1-0.3,1.5-0.7c0.4,0.4,0.9,0.7,1.5,0.7h2
			c0.6,0,1.1-0.3,1.5-0.7c0.4,0.4,0.9,0.7,1.5,0.7h2c0.6,0,1.1-0.3,1.5-0.7c0.4,0.4,0.9,0.7,1.5,0.7h2c0.6,0,1.1-0.3,1.5-0.7
			c0.4,0.4,0.9,0.7,1.5,0.7h2c1.1,0,2-0.9,2-2H1937z M1923-116.5h-1c0,0.6-0.4,1-1,1h-2c-0.6,0-1-0.4-1-1h-1c0,0.6-0.4,1-1,1h-2
			c-0.6,0-1-0.4-1-1h-1c0,0.6-0.4,1-1,1h-2c-0.6,0-1-0.4-1-1h-1c0,0.6-0.4,1-1,1h-0.5c0.3-5,4.4-9,9.5-9s9.2,4,9.5,9h-0.5
			C1923.4-115.5,1923-115.9,1923-116.5z"/>
		<path class="st2" d="M1883-137.5h13c0.6,0,1-0.4,1-1v-1c0-1.1-0.9-2-2-2h-1c-0.2-1.7-1.7-3-3.5-3h-2c-1.8,0-3.2,1.3-3.5,3h-1
			c-1.1,0-2,0.9-2,2v1C1882-137.9,1882.4-137.5,1883-137.5z M1883-139.5c0-0.6,0.4-1,1-1h2v-0.5c0-1.4,1.1-2.5,2.5-2.5h2
			c1.4,0,2.5,1.1,2.5,2.5v0.5h2c0.6,0,1,0.4,1,1v1h-13V-139.5z"/>
		
			<rect x="1919.4" y="-129" transform="matrix(0.3828 -0.9238 0.9238 0.3828 1304.1127 1694.9822)" class="st2" width="2.5" height="1"/>
		
			<rect x="1927.3" y="-121.1" transform="matrix(0.9238 -0.3828 0.3828 0.9238 193.0695 729.1008)" class="st2" width="2.5" height="1"/>
		
			<rect x="1908.7" y="-129.9" transform="matrix(0.9238 -0.3828 0.3828 0.9238 194.6672 721.0852)" class="st2" width="1" height="2.5"/>
		
			<rect x="1900.8" y="-121.9" transform="matrix(0.3828 -0.9238 0.9238 0.3828 1284.9093 1682.0549)" class="st2" width="1" height="2.5"/>
		<rect x="1914.5" y="-133.5" class="st2" width="1" height="5"/>
		<path class="st2" d="M1873-126.5c0-0.6,0.4-1,1-1h2c0.6,0,1,0.4,1,1v2h1v-2c0-0.6,0.4-1,1-1h2c0.6,0,1,0.4,1,1v1h1v-1
			c0-1.1-0.9-2-2-2h-2c-0.6,0-1.1,0.3-1.5,0.7c-0.4-0.4-0.9-0.7-1.5-0.7h-2c-1.1,0-2,0.9-2,2v1h1V-126.5z"/>
		
			<rect x="1923.8" y="-126.8" transform="matrix(0.7071 -0.7071 0.7071 0.7071 653.4858 1325.0952)" class="st2" width="5" height="1"/>
		
			<rect x="1903.2" y="-128.8" transform="matrix(0.7071 -0.7071 0.7071 0.7071 646.8777 1309.1194)" class="st2" width="1" height="5"/>
	</g>
	<g class="st1">
		<rect x="-835" y="-115.5" class="st2" width="46" height="1"/>
		<path class="st2" d="M-805-132.5h-2.3l-9.2-6.3v-0.8c0.9-0.2,1.5-1,1.5-1.9h-1c0,0.5-0.5,1-1,1s-1-0.5-1-1s0.5-1,1-1
			c0.3,0,0.5-0.2,0.5-0.5v-1.5h-1v1.1c-0.9,0.2-1.5,1-1.5,1.9s0.6,1.7,1.5,1.9v0.8l-9.2,6.3h-2.3c-0.5,0-1,0.5-1,1v13
			c0,0.5,0.5,1,1,1h24c0.5,0,1-0.5,1-1v-13C-804-132-804.5-132.5-805-132.5z M-817-137.9l7.9,5.4h-15.8L-817-137.9z M-805-118.5h-24
			v-13h24V-118.5z"/>
		<rect x="-825" y="-128.5" class="st2" width="1" height="7"/>
		<rect x="-810" y="-128.5" class="st2" width="1" height="7"/>
		<rect x="-815" y="-128.5" class="st2" width="1" height="7"/>
		<rect x="-820" y="-128.5" class="st2" width="1" height="7"/>
		<path class="st2" d="M-797.2-121.5h1.4c0.4,0,0.7-0.2,0.9-0.5l1.9-3.1l-0.9-0.5l-1.9,3.1h-0.2v-6h-1v6h-0.2l-1.9-3.1l-0.9,0.5
			l1.9,3.1C-797.9-121.7-797.6-121.5-797.2-121.5z"/>
	</g>
	<g class="st1">
		<rect x="1982" y="-129.5" class="st2" width="1" height="4"/>
		<rect x="1985" y="-129.5" class="st2" width="1" height="4"/>
		<rect x="1988" y="-129.5" class="st2" width="1" height="4"/>
		<path class="st2" d="M2043-116.5c0,0.6-0.4,1-1,1h-2c-0.6,0-1-0.4-1-1h-1c0,0.6-0.4,1-1,1h-2c-0.6,0-1-0.4-1-1h-1c0,0.6-0.4,1-1,1
			h-0.7l5.9-7.4c0.5-0.6,0.8-1.4,0.8-2.2v-1.4c0-0.6-0.4-1-1-1h-5.1c-1.1,0-2.1,0.5-2.7,1.3l-0.5,0.7h-3.7c-1.1,0-2.1,0.5-2.7,1.3
			l-0.5,0.7h-29.2v-7c0-1.1-0.9-2-2-2h-1.5v-3c0-0.6-0.4-1-1-1h-5c-0.6,0-1,0.4-1,1v3h-1c-1.1,0-2,0.9-2,2v7h-2.5c-0.6,0-1,0.4-1,1
			v7h-0.5c-0.6,0-1-0.4-1-1h-1c0,0.6-0.4,1-1,1h-2c-0.6,0-1-0.4-1-1h-1c0,1.1,0.9,2,2,2h2c0.6,0,1.1-0.3,1.5-0.7
			c0.4,0.4,0.9,0.7,1.5,0.7h2c0.6,0,1.1-0.3,1.5-0.7c0.4,0.4,0.9,0.7,1.5,0.7h2c0.6,0,1.1-0.3,1.5-0.7c0.4,0.4,0.9,0.7,1.5,0.7h2
			c0.6,0,1.1-0.3,1.5-0.7c0.4,0.4,0.9,0.7,1.5,0.7h2c0.6,0,1.1-0.3,1.5-0.7c0.4,0.4,0.9,0.7,1.5,0.7h2c0.6,0,1.1-0.3,1.5-0.7
			c0.4,0.4,0.9,0.7,1.5,0.7h2c0.6,0,1.1-0.3,1.5-0.7c0.4,0.4,0.9,0.7,1.5,0.7h2c0.6,0,1.1-0.3,1.5-0.7c0.4,0.4,0.9,0.7,1.5,0.7h2
			c0.6,0,1.1-0.3,1.5-0.7c0.4,0.4,0.9,0.7,1.5,0.7h2c0.6,0,1.1-0.3,1.5-0.7c0.4,0.4,0.9,0.7,1.5,0.7h2c0.6,0,1.1-0.3,1.5-0.7
			c0.4,0.4,0.9,0.7,1.5,0.7h2c0.6,0,1.1-0.3,1.5-0.7c0.4,0.4,0.9,0.7,1.5,0.7h2c0.6,0,1.1-0.3,1.5-0.7c0.4,0.4,0.9,0.7,1.5,0.7h2
			c0.6,0,1.1-0.3,1.5-0.7c0.4,0.4,0.9,0.7,1.5,0.7h2c1.1,0,2-0.9,2-2H2043z M1983-135.5h5v3h-5V-135.5z M1980-130.5c0-0.6,0.4-1,1-1
			h9.5c0.6,0,1,0.4,1,1v7H1980V-130.5z M2021.7-122.5c0.3,0,0.6-0.1,0.8-0.4l0.5-0.7c0.5-0.6,1.2-0.9,2-0.9h3.7
			c0.3,0,0.6-0.1,0.8-0.4l0.5-0.7c0.5-0.6,1.2-0.9,2-0.9h5.1v1.4c0,0.6-0.2,1.1-0.5,1.6l-3.2,4h-56.8v-3H2021.7z M2029-116.5h-1
			c0,0.6-0.4,1-1,1h-2c-0.6,0-1-0.4-1-1h-1c0,0.6-0.4,1-1,1h-2c-0.6,0-1-0.4-1-1h-1c0,0.6-0.4,1-1,1h-2c-0.6,0-1-0.4-1-1h-1
			c0,0.6-0.4,1-1,1h-2c-0.6,0-1-0.4-1-1h-1c0,0.6-0.4,1-1,1h-2c-0.6,0-1-0.4-1-1h-1c0,0.6-0.4,1-1,1h-2c-0.6,0-1-0.4-1-1h-1
			c0,0.6-0.4,1-1,1h-2c-0.6,0-1-0.4-1-1h-1c0,0.6-0.4,1-1,1h-2c-0.6,0-1-0.4-1-1h-1c0,0.6-0.4,1-1,1h-2c-0.6,0-1-0.4-1-1h-1
			c0,0.6-0.4,1-1,1h-2c-0.6,0-1-0.4-1-1h-1c0,0.6-0.4,1-1,1h-0.5v-3h56l-2.4,3h-0.1C2029.4-115.5,2029-115.9,2029-116.5z"/>
	</g>
	<g class="st1">
		<path class="st2" d="M-1397.1-115.5l-2.4-22h0.4c1.1,0,2-0.9,2-2v-3c0-1.1-0.9-2-2-2h-1c0-2-1.5-3.7-3.5-3.9v-4.1h-1v4.1
			c-2,0.2-3.5,1.9-3.5,3.9h-1c-1.1,0-2,0.9-2,2v3c0,1.1,0.9,2,2,2h0.4l-2.4,22h-16.1v1h46v-1H-1397.1z M-1404-147.5c1.7,0,3,1.3,3,3
			h-6C-1407-146.2-1405.7-147.5-1404-147.5z M-1410-139.5v-3c0-0.6,0.4-1,1-1h1.5h7h1.5c0.6,0,1,0.4,1,1v3c0,0.6-0.4,1-1,1h-10
			C-1409.6-138.5-1410-138.9-1410-139.5z M-1407.6-137.5h7.1l2.4,22h-11.9L-1407.6-137.5z"/>
		<rect x="-1408" y="-142" class="st2" width="1" height="2"/>
		<rect x="-1401" y="-142" class="st2" width="1" height="2"/>
		<rect x="-1404.5" y="-142" class="st2" width="1" height="2"/>
		<rect x="-1406" y="-120.5" class="st2" width="4" height="1"/>
		<rect x="-1406" y="-124.5" class="st2" width="4" height="1"/>
		<rect x="-1406" y="-128.5" class="st2" width="4" height="1"/>
		<rect x="-1406" y="-132.5" class="st2" width="4" height="1"/>
	</g>
	<g class="st1">
		<path class="st2" d="M13.2-130.9l-3.4-4.3c-0.7-0.8-1.7-1.3-2.7-1.3H-9v-0.5c0-1.4,1.1-2.5,2.5-2.5H8c1.1,0,2-0.9,2-2v-1
			c0-1.1-0.9-2-2-2H4v1h4c0.5,0,1,0.5,1,1v1c0,0.5-0.5,1-1,1H-6.5c-1.9,0-3.5,1.6-3.5,3.5v2.7c0,0.8,0.3,1.6,0.8,2.2l2.6,3.3
			C-6-128-5-127.6-4-127.5v2h1v-2h2v2h1v-2h2v2h1v-2h0.8c0.3,0,0.6,0.1,0.8,0.4l3,3.7c0.3,0.4,0.3,0.9,0,1.3L5-118.9
			c-0.2-0.9-1-1.6-2-1.6h-4.5c-0.3,0-0.5,0.2-0.5,0.5c0,1,0.5,2,1.3,2.5C-1.5-117-2-116-2-115c0,0.3,0.2,0.5,0.5,0.5H3
			c1.1,0,2-0.9,2-2v-0.7l7.1-3.5c1.2-0.6,1.9-1.8,1.9-3.1v-4.9C14-129.5,13.7-130.3,13.2-130.9z M4-116.5c0,0.5-0.5,1-1,1h-3.9
			c0.2-0.9,1-1.5,1.9-1.5h1v-1H1c-0.9,0-1.7-0.6-1.9-1.5H3c0.5,0,1,0.5,1,1V-116.5z M13-123.9c0,1-0.5,1.8-1.4,2.2L6.3-119l2-2.5
			c0.6-0.7,0.6-1.8,0-2.5l-3-3.8c-0.4-0.5-1-0.8-1.6-0.8h-7.6c-0.8,0-1.5-0.3-2-0.9l-2.6-3.3c-0.4-0.4-0.5-1-0.5-1.6v-1.2H7.1
			c0.8,0,1.5,0.3,2,0.9l3.4,4.3c0.4,0.4,0.5,1,0.5,1.6V-123.9z"/>
		<rect x="-4" y="-133.5" class="st2" width="2" height="1"/>
	</g>
	<g class="st1">
		<rect x="-82" y="-125.5" class="st2" width="1" height="5"/>
		<path class="st2" d="M-64.5-129.5H-66v-2.3c0-0.2-0.1-0.4-0.2-0.6l-1.9-2.4l-0.8,0.6l1.9,2.4v2.3h-1.5c-0.4,0-0.8,0-1.2,0.1
			l-1.7-2.1c-0.4-0.4-0.5-1-0.5-1.6v-3c0-1.9-1.6-3.5-3.5-3.5H-76v-1.8l1.9-2.4l-0.8-0.6l-1.9,2.4c-0.1,0.2-0.2,0.4-0.2,0.6v1.8
			h-0.5c-1.9,0-3.5,1.6-3.5,3.5v3c0,0.6-0.2,1.1-0.5,1.6l-2,2.5c-0.9,1.1-1.4,2.6-1.4,4.1v3.9c0,3.6,2.9,6.5,6.5,6.5h4
			c1.1,0,2.2-0.3,3.1-0.8c0.8,0.5,1.8,0.8,2.9,0.8h4c3,0,5.5-2.5,5.5-5.5v-4C-59-127-61.5-129.5-64.5-129.5z M-74.5-115.5h-4
			c-3,0-5.5-2.5-5.5-5.5v-3.9c0-1.2,0.4-2.5,1.2-3.4l2-2.5c0.5-0.6,0.8-1.4,0.8-2.2v-3c0-1.4,1.1-2.5,2.5-2.5h0.5v2h1v-2h0.5
			c1.4,0,2.5,1.1,2.5,2.5v3c0,0.8,0.3,1.6,0.8,2.2l1.5,1.9c-1.9,0.8-3.2,2.8-3.2,5v4c0,1.6,0.7,3,1.8,4
			C-72.9-115.7-73.7-115.5-74.5-115.5z M-60-120c0,2.5-2,4.5-4.5,4.5h-4c-0.7,0-1.3-0.2-1.9-0.4c-0.3-0.1-0.6-0.3-0.9-0.6
			c-1-0.8-1.7-2.1-1.7-3.5v-4c0-1.9,1.2-3.5,2.9-4.2c0.3-0.1,0.7-0.2,1-0.3c0.2,0,0.4,0,0.6,0h1.5v2h1v-2h1.5c2.5,0,4.5,2,4.5,4.5
			V-120z"/>
		<rect x="-71" y="-124.5" class="st2" width="1" height="5"/>
	</g>
	<g class="st1">
		<path class="st2" d="M-525.5-138c-2.8,0-5,2.2-5,5s2.2,5,5,5s5-2.2,5-5S-522.7-138-525.5-138z M-525.5-129c-2.2,0-4-1.8-4-4
			s1.8-4,4-4s4,1.8,4,4S-523.3-129-525.5-129z"/>
		<path class="st2" d="M-517.7-128.6c0.4-0.6,0.6-1.3,0.8-2l2-0.3c0.5-0.1,0.8-0.5,0.8-1v-2.2c0-0.5-0.4-0.9-0.8-1l-2-0.3
			c-0.2-0.7-0.5-1.4-0.8-2l1.2-1.6c0.3-0.4,0.2-0.9-0.1-1.3l-1.5-1.5c-0.3-0.3-0.9-0.4-1.3-0.1l-1.6,1.2c-0.6-0.4-1.3-0.6-2-0.8
			l-0.3-2c-0.1-0.5-0.5-0.8-1-0.8h-2.2c-0.5,0-0.9,0.4-1,0.8l-0.3,2c-0.7,0.2-1.4,0.5-2,0.8l-1.6-1.2c-0.4-0.3-0.9-0.2-1.3,0.1
			l-1.5,1.5c-0.3,0.3-0.4,0.9-0.1,1.3l1.2,1.6c-0.4,0.6-0.6,1.3-0.8,2l-2,0.3c-0.5,0.1-0.8,0.5-0.8,1v2.2c0,0.5,0.4,0.9,0.8,1l2,0.3
			c0.2,0.7,0.5,1.4,0.8,2l-1.2,1.6c-0.3,0.4-0.2,0.9,0.1,1.3l1.5,1.5c0.3,0.3,0.9,0.4,1.3,0.1l1.6-1.2c0.6,0.4,1.3,0.6,2,0.8l0.3,2
			c0.1,0.5,0.5,0.8,1,0.8h2.2c0.5,0,0.9-0.4,1-0.8l0.3-2c0.7-0.2,1.4-0.5,2-0.8l1.6,1.2c0.4,0.3,0.9,0.2,1.3-0.1l1.5-1.5
			c0.3-0.3,0.4-0.9,0.1-1.3L-517.7-128.6z M-518.8-124.8l-1.9-1.4c-0.2-0.1-0.4-0.1-0.6,0c-0.7,0.5-1.5,0.8-2.4,1
			c-0.2,0-0.3,0.2-0.4,0.4l-0.4,2.3h-2.2l-0.4-2.3c0-0.2-0.2-0.4-0.4-0.4c-0.8-0.2-1.6-0.5-2.4-1c-0.1,0-0.2-0.1-0.3-0.1
			s-0.2,0-0.3,0.1l-1.9,1.4l-1.5-1.5l1.4-1.9c0.1-0.2,0.1-0.4,0-0.6c-0.5-0.7-0.8-1.5-1-2.4c0-0.2-0.2-0.3-0.4-0.4l-2.3-0.4v-2.2
			l2.3-0.4c0.2,0,0.4-0.2,0.4-0.4c0.2-0.8,0.5-1.6,1-2.4c0.1-0.2,0.1-0.4,0-0.6l-1.4-1.9l1.5-1.5l1.9,1.4c0.2,0.1,0.4,0.1,0.6,0
			c0.7-0.5,1.5-0.8,2.4-1c0.2,0,0.3-0.2,0.4-0.4l0.4-2.3h2.2l0.4,2.3c0,0.2,0.2,0.4,0.4,0.4c0.8,0.2,1.6,0.5,2.4,1
			c0.2,0.1,0.4,0.1,0.6,0l1.9-1.4l1.5,1.5l-1.4,1.9c-0.1,0.2-0.1,0.4,0,0.6c0.5,0.7,0.8,1.5,1,2.4c0,0.2,0.2,0.3,0.4,0.4l2.3,0.4
			l0,0v2.2l-2.3,0.4c-0.2,0-0.4,0.2-0.4,0.4c-0.2,0.8-0.5,1.6-1,2.4c-0.1,0.2-0.1,0.4,0,0.6l1.4,1.9L-518.8-124.8z"/>
		<path class="st2" d="M-507.5-126.5c-1.9,0-3.5,1.6-3.5,3.5s1.6,3.5,3.5,3.5s3.5-1.6,3.5-3.5S-505.6-126.5-507.5-126.5z
			 M-507.5-120.5c-1.4,0-2.5-1.1-2.5-2.5s1.1-2.5,2.5-2.5s2.5,1.1,2.5,2.5S-506.1-120.5-507.5-120.5z"/>
		<path class="st2" d="M-499.8-124.6l-1.5-0.3c-0.1-0.4-0.3-0.8-0.5-1.2l0.8-1.3c0.3-0.4,0.2-0.9-0.1-1.3l-0.8-0.8
			c-0.3-0.3-0.9-0.4-1.3-0.1l-1.3,0.8c-0.4-0.2-0.8-0.4-1.2-0.5l-0.3-1.5c-0.1-0.5-0.5-0.8-1-0.8h-1.2c-0.5,0-0.9,0.3-1,0.8
			l-0.3,1.5c-0.4,0.1-0.8,0.3-1.2,0.5l-1.3-0.8c-0.4-0.3-0.9-0.2-1.3,0.1l-0.8,0.8c-0.3,0.3-0.4,0.9-0.1,1.3l0.8,1.3
			c-0.2,0.4-0.4,0.8-0.5,1.2l-1.5,0.3c-0.5,0.1-0.8,0.5-0.8,1v1.2c0,0.5,0.3,0.9,0.8,1l1.5,0.3c0.1,0.4,0.3,0.8,0.5,1.2l-0.8,1.3
			c-0.3,0.4-0.2,0.9,0.1,1.3l0.8,0.8c0.3,0.3,0.9,0.4,1.3,0.1l1.3-0.8c0.4,0.2,0.8,0.4,1.2,0.5l0.3,1.5c0.1,0.5,0.5,0.8,1,0.8h1.2
			c0.5,0,0.9-0.3,1-0.8l0.3-1.5c0.4-0.1,0.8-0.3,1.2-0.5l1.3,0.8c0.4,0.3,0.9,0.2,1.3-0.1l0.8-0.8c0.3-0.3,0.4-0.9,0.1-1.3l-0.8-1.3
			c0.2-0.4,0.4-0.8,0.5-1.2l1.5-0.3c0.5-0.1,0.8-0.5,0.8-1v-1.2C-499-124.1-499.3-124.5-499.8-124.6z M-500-122.4l-1.8,0.4
			c-0.2,0-0.3,0.2-0.4,0.4c-0.1,0.5-0.3,1.1-0.6,1.5c-0.1,0.2-0.1,0.4,0,0.5l1,1.5l-0.8,0.8l-1.5-1c-0.2-0.1-0.4-0.1-0.5,0
			c-0.5,0.3-1,0.5-1.5,0.6c-0.2,0-0.3,0.2-0.4,0.4l-0.4,1.8h-1.2l-0.4-1.8c0-0.2-0.2-0.3-0.4-0.4c-0.5-0.1-1-0.3-1.5-0.6
			c-0.1,0-0.2-0.1-0.3-0.1c-0.1,0-0.2,0-0.3,0.1l-1.5,1l-0.8-0.8l1-1.5c0.1-0.2,0.1-0.4,0-0.5c-0.3-0.5-0.5-1-0.6-1.5
			c0-0.2-0.2-0.3-0.4-0.4l-1.8-0.4v-1.2l1.8-0.4c0.2,0,0.3-0.2,0.4-0.4c0.1-0.5,0.3-1,0.6-1.5c0.1-0.2,0.1-0.4,0-0.5l-1-1.5l0.8-0.8
			l1.5,1c0.2,0.1,0.4,0.1,0.5,0c0.5-0.3,1-0.5,1.5-0.6c0.2,0,0.3-0.2,0.4-0.4l0.4-1.8h1.2l0.4,1.8c0,0.2,0.2,0.3,0.4,0.4
			c0.5,0.1,1,0.3,1.5,0.6c0.2,0.1,0.4,0.1,0.5,0l1.5-1l0.8,0.8l-1,1.5c-0.1,0.2-0.1,0.4,0,0.5c0.3,0.5,0.5,1,0.6,1.5
			c0,0.2,0.2,0.3,0.4,0.4l1.8,0.4L-500-122.4L-500-122.4z"/>
	</g>
	<g class="st1">
		<polygon class="st2" points="902.5,-115.5 882.5,-115.5 867,-115.5 867,-114.5 913,-114.5 913,-115.5 		"/>
		<path class="st2" d="M888-118.5h10.3c0.6,1.7,2.3,3,4.2,3c2.5,0,4.5-2,4.5-4.5c0-1.3-0.6-2.5-1.5-3.3v-2.5c0-0.2-0.1-0.4-0.2-0.6
			l-2.1-2.7c-0.2-0.2-0.5-0.4-0.8-0.4H901v-4h-1v4h-6.4l-2-10.2c-0.1-0.5-0.5-0.8-1-0.8h-8.1c-1.7,0-3.1,1.2-3.4,2.8l-0.8,4.2h-0.4
			c-0.3,0-0.6,0.1-0.8,0.4l-3.7,4.7c-0.1,0.2-0.2,0.4-0.2,0.6v8.3c0,0.6,0.4,1,1,1h3v-0.1c1.2,1.8,3.2,3.1,5.5,3.1
			C884.8-115.5,886.8-116.7,888-118.5z M906-120c0,1.9-1.6,3.5-3.5,3.5s-3.5-1.6-3.5-3.5s1.6-3.5,3.5-3.5S906-121.9,906-120z
			 M880-137.5c0.2-1.2,1.3-2,2.5-2h8.1l2,10H891l-2.9-3.6c-0.2-0.2-0.5-0.4-0.8-0.4h-8.1L880-137.5z M874-119.5v-8.3l3.7-4.7h9.5
			l2.9,3.6c0.2,0.2,0.5,0.4,0.8,0.4h11.4l2.1,2.7v1.8c-0.6-0.3-1.3-0.5-2-0.5c-2.5,0-4.5,2-4.5,4.5c0,0.2,0,0.3,0.1,0.5h-9.6
			c0.3-0.8,0.5-1.6,0.5-2.5c0-3.6-2.9-6.5-6.5-6.5s-6.5,2.9-6.5,6.5c0,0.9,0.2,1.7,0.5,2.5H874z M882.5-116.5c-3,0-5.5-2.5-5.5-5.5
			s2.5-5.5,5.5-5.5s5.5,2.5,5.5,5.5S885.5-116.5,882.5-116.5z"/>
		<rect x="891" y="-126.5" class="st2" width="2.5" height="1"/>
	</g>
	<path class="st3" d="M-1314.4-115.5l-2.9-8.6c-0.3-0.8-1-1.4-1.9-1.4h-2.6l-5.9-17.6c-0.3-0.8-1-1.4-1.9-1.4h-1.3
		c-0.9,0-1.6,0.5-1.9,1.4l-3.9,11.6h-2.1c-0.9,0-1.6,0.5-1.9,1.4l-4.9,14.6h-7.4v1h46v-1C-1307-115.5-1314.4-115.5-1314.4-115.5z
		 M-1339.7-129.8c0.1-0.4,0.5-0.7,0.9-0.7h2.1c0.4,0,0.8-0.3,0.9-0.7l3.9-11.6c0.1-0.4,0.5-0.7,0.9-0.7h1.3c0.4,0,0.8,0.3,0.9,0.7
		l3.8,11.3h-3.4c-0.9,0-1.6,0.5-1.9,1.4l-0.9,2.6h-2.7c-0.9,0-1.6,0.5-1.9,1.4l-0.9,2.6h-5.3L-1339.7-129.8z M-1342.2-122.5h5.7
		c0.4,0,0.8-0.3,0.9-0.7l0.9-2.6c0.1-0.4,0.5-0.7,0.9-0.7h2.7c0.4,0,0.8-0.3,0.9-0.7l0.9-2.6c0.1-0.4,0.5-0.7,0.9-0.7h3.8l1.8,5.3
		c0.1,0.4,0.5,0.7,0.9,0.7h2.6c0.4,0,0.8,0.3,0.9,0.7l2.8,8.3h-29.1L-1342.2-122.5z"/>
	<path class="st3" d="M-1466.2-115.5l-4-8c1-0.1,1.7-1,1.7-2v-1.5c0-0.3-0.2-0.5-0.5-0.5h-3.1l-2.9-9.6l-0.9-7.5
		c0.8-0.2,1.4-1,1.4-1.9v-1.5c0-0.3-0.2-0.5-0.5-0.5h-2.5v-4h-1v4h-2.5c-0.3,0-0.5,0.2-0.5,0.5v1.5c0,0.9,0.6,1.7,1.4,1.9l-0.9,7.4
		l-2.9,9.6h-3.1c-0.3,0-0.5,0.2-0.5,0.5v1.5c0,1,0.7,1.8,1.7,2l-4,8h-10.7v1h45v-1h-10.7V-115.5z M-1480.5-146.5v-1h5v1
		c0,0.6-0.4,1-1,1h-3C-1480.1-145.5-1480.5-145.9-1480.5-146.5z M-1480-136.9l0.9-7.6h2.1l1,7.6l2.8,9.4h-2.9l-0.9-4.1
		c-0.1-0.2-0.3-0.4-0.5-0.4h-1c-0.2,0-0.4,0.2-0.5,0.4l-0.9,4.1h-2.9L-1480-136.9z M-1477.1-127.5h-1.8l0.8-3.5h0.2L-1477.1-127.5z
		 M-1486.5-125.5v-1h17v1c0,0.6-0.4,1-1,1h-15C-1486.1-124.5-1486.5-124.9-1486.5-125.5z M-1484.7-123.5h13.4l4,8h-4.4l-2-3.7
		c-0.6-1.1-1.8-1.8-3.1-1.8h-2.4c-1.3,0-2.5,0.7-3.1,1.8l-2,3.7h-4.4L-1484.7-123.5z M-1472.8-115.5h-10.3l1.7-3.2
		c0.4-0.8,1.3-1.3,2.2-1.3h2.4c0.9,0,1.8,0.5,2.2,1.3L-1472.8-115.5z"/>
	<path class="st3" d="M832-133.5h-6.3l-2-2c-0.6-0.7-1.6-1-2.5-1h-10.5c-0.9,0-1.8,0.4-2.5,1l-2,2H800c-0.6,0-1,0.5-1,1v9
		c0,0.5,0.4,1,1,1h4.6c0.1,0.3,0.2,0.6,0.5,0.9l6.5,6.5c0.4,0.4,0.9,0.6,1.4,0.6s1-0.2,1.4-0.6l0.9-0.9c0.2-0.2,0.4-0.5,0.6-0.8
		l1.7,1.7c0.4,0.4,0.9,0.6,1.4,0.6s1-0.2,1.4-0.6l6.5-6.5c0.3-0.3,0.4-0.6,0.5-0.9h4.6c0.6,0,1-0.5,1-1v-9
		C833-133,832.6-133.5,832-133.5z M805.8-122.3c-0.4-0.4-0.4-1,0-1.4l0.9-0.9c0.5-0.5,1.1-0.7,1.8-0.7c0.5,0,1,0.2,1.4,0.4l-3.3,3.3
		L805.8-122.3z M807.2-120.8l3.4-3.4l1.4,1.5l-3.4,3.4L807.2-120.8z M809.4-118.7l3.3-3.4l1.4,1.5l-3.4,3.3L809.4-118.7z
		 M814.6-116.7l-0.9,0.9c-0.4,0.4-1,0.4-1.4,0l-0.7-0.7l3.3-3.3c0.3,0.4,0.5,0.9,0.5,1.4C815.3-117.8,815.1-117.1,814.6-116.7z
		 M826.2-122.3l-0.8,0.8l-2.6-2.6l-0.7,0.7l2.6,2.6l-1.4,1.4l-2.7-2.6l-0.7,0.7l2.6,2.7l-1.4,1.4l-2.6-2.6l-0.7,0.7l2.7,2.6
		l-0.7,0.7c-0.4,0.4-1,0.4-1.4,0l-2-2c0-0.2,0.1-0.4,0.1-0.6c0-0.9-0.4-1.8-1-2.5l-4.4-4.4c-1.3-1.3-3.6-1.3-4.9,0l-0.9,0.9
		c-0.3,0.3-0.4,0.6-0.5,0.9H800v-9h6.3c0.3,0,0.5-0.1,0.7-0.3l2-2c0.5-0.5,1.1-0.7,1.8-0.7h2.1l-3.3,3.3c-0.4,0.4-0.4,1,0,1.4
		l0.5,0.5c1.4,1.4,3.6,1.4,4.9,0l0.7-0.7h3.2l7.3,7.3C826.6-123.3,826.6-122.7,826.2-122.3z M832-123.5h-4.6
		c-0.1-0.3-0.3-0.6-0.5-0.9l-7.3-7.3c-0.2-0.2-0.4-0.3-0.7-0.3h-3.2c-0.3,0-0.5,0.1-0.7,0.3l-0.7,0.7c-1,1-2.6,1-3.5,0l-0.5-0.5l4-4
		h7.1c0.7,0,1.3,0.3,1.8,0.7l2,2c0.2,0.2,0.4,0.3,0.7,0.3h6.3v9H832z"/>
	<g class="st1">
		<rect x="-603" y="-132.5" class="st2" width="1" height="11"/>
		<rect x="-578" y="-132.5" class="st2" width="1" height="11"/>
		<path class="st2" d="M-573-136.5h-4.4l-12.1-6.3v-0.8c0.9-0.2,1.5-1,1.5-1.9h-1c0,0.5-0.5,1-1,1s-1-0.5-1-1s0.5-1,1-1
			c0.3,0,0.5-0.2,0.5-0.5v-1.5h-1v1.1c-0.9,0.2-1.5,1-1.5,1.9s0.6,1.7,1.5,1.9v0.8l-12.1,6.3h-4.4c-0.5,0-1,0.5-1,1v17
			c0,0.5,0.5,1,1,1h34c0.5,0,1-0.5,1-1v-17C-572-136-572.5-136.5-573-136.5z M-590-141.9l10.5,5.4h-20.9L-590-141.9z M-573-118.5
			h-34v-17h34V-118.5z"/>
		<path class="st2" d="M-591.1-126.6l-3.2,3.2l-0.2-0.2l0.6-2.6l-1-0.2l-0.6,2.6c-0.1,0.3,0,0.7,0.3,0.9l1,1
			c0.2,0.2,0.4,0.3,0.7,0.3c0.1,0,0.2,0,0.2,0l2.6-0.6l-0.2-1l-2.6,0.6l-0.2-0.2l3.2-3.2L-591.1-126.6z"/>
		<path class="st2" d="M-585.9-132.2c-0.2-0.2-0.6-0.3-0.9-0.3l-2.6,0.6l0.2,1l2.6-0.6l0.2,0.2l-3.2,3.2l0.7,0.7l3.2-3.2l0.2,0.2
			l-0.6,2.6l1,0.2l0.6-2.6c0.1-0.3,0-0.7-0.3-0.9L-585.9-132.2z"/>
		<rect x="-613" y="-115.5" class="st2" width="46" height="1"/>
	</g>
	<g class="st1">
		<path class="st2" d="M1350.8-128.7l-2.7-3.4c-0.2-0.2-0.5-0.4-0.8-0.4h-5.3c-0.6,0-1,0.5-1,1v6h-2v-10c0-0.5-0.4-1-1-1h-20
			c-0.6,0-1,0.5-1,1v16c0,0.5,0.4,1,1,1h2.1c0.2,1.7,1.7,3,3.4,3s3.2-1.3,3.4-3h2.1c0.2,1.7,1.7,3,3.4,3s3.2-1.3,3.4-3h5.1
			c0.2,1.7,1.7,3,3.4,3s3.2-1.3,3.4-3h2.1c0.6,0,1-0.5,1-1v-8.6C1351-128.3,1350.9-128.5,1350.8-128.7z M1318-135.5h20v10h-20
			V-135.5z M1323.5-116.5c-1.4,0-2.5-1.1-2.5-2.5s1.1-2.5,2.5-2.5s2.5,1.1,2.5,2.5S1324.9-116.5,1323.5-116.5z M1332.5-116.5
			c-1.4,0-2.5-1.1-2.5-2.5s1.1-2.5,2.5-2.5s2.5,1.1,2.5,2.5S1333.9-116.5,1332.5-116.5z M1344.5-116.5c-1.4,0-2.5-1.1-2.5-2.5
			s1.1-2.5,2.5-2.5s2.5,1.1,2.5,2.5S1345.9-116.5,1344.5-116.5z M1350-119.5h-2.1c-0.2-1.7-1.7-3-3.4-3s-3.2,1.3-3.4,3h-5.1
			c-0.2-1.7-1.7-3-3.4-3s-3.2,1.3-3.4,3h-2.1c-0.2-1.7-1.7-3-3.4-3s-3.2,1.3-3.4,3h-2.1v-5h32v5H1350z M1350-125.5h-8v-6h5.3
			l2.7,3.4V-125.5z"/>
		<rect x="1322.5" y="-132.5" class="st2" width="1" height="4"/>
		<rect x="1332.5" y="-132.5" class="st2" width="1" height="4"/>
		<rect x="1327.5" y="-132.5" class="st2" width="1" height="4"/>
		<polygon class="st2" points="1344.5,-115.5 1332.5,-115.5 1323.5,-115.5 1311,-115.5 1311,-114.5 1357,-114.5 1357,-115.5 		"/>
	</g>
	<g class="st1">
		<rect x="966" y="-127.5" class="st2" width="1" height="8"/>
		<rect x="961" y="-127.5" class="st2" width="1" height="8"/>
		<rect x="956" y="-127.5" class="st2" width="1" height="8"/>
		<rect x="951" y="-127.5" class="st2" width="1" height="8"/>
		<path class="st2" d="M978.7-120.6l0.6-0.8l-2.3-1.8v-0.3h6v-1h-6v-0.3l2.3-1.8l-0.6-0.8l-2.3,1.9c-0.2,0.2-0.4,0.5-0.4,0.8v1.5
			c0,0.3,0.1,0.6,0.4,0.8L978.7-120.6z"/>
		<path class="st2" d="M972-115.5v-16c0-0.5-0.4-1-1-1h-24c-0.6,0-1,0.5-1,1v16h-5v1h46v-1H972z M971-115.5h-24v-16h24V-115.5z"/>
	</g>
	<g class="st1">
		<path class="st2" d="M1715-115.5v-9.5c0-0.5-0.4-1-1-1h-20c-0.6,0-1,0.5-1,1v9.5h-12.5v1h47v-1H1715z M1714-115.5h-20v-9.5h20
			V-115.5z"/>
		<rect x="1708.5" y="-122" class="st2" width="1" height="3.5"/>
		<rect x="1703.5" y="-122" class="st2" width="1" height="3.5"/>
		<rect x="1698.5" y="-122" class="st2" width="1" height="3.5"/>
		<path class="st2" d="M1714-139.5h-2.4l-7.1-3.3v-0.8c0.9-0.2,1.5-1,1.5-1.9h-1c0,0.5-0.4,1-1,1s-1-0.5-1-1s0.4-1,1-1
			c0.3,0,0.5-0.2,0.5-0.5v-1.5h-1v1.1c-0.9,0.2-1.5,1-1.5,1.9s0.6,1.7,1.5,1.9v0.8l-7.1,3.3h-2.4c-0.6,0-1,0.5-1,1v9.5
			c0,0.5,0.4,1,1,1h20c0.6,0,1-0.5,1-1v-9.5C1715-139,1714.6-139.5,1714-139.5z M1704-142l5.2,2.5h-10.5L1704-142z M1714-129h-20
			v-9.5h20V-129z"/>
		<rect x="1698.5" y="-135.5" class="st2" width="1" height="3.5"/>
		<rect x="1708.5" y="-135.5" class="st2" width="1" height="3.5"/>
		<rect x="1703.5" y="-135.5" class="st2" width="1" height="3.5"/>
	</g>
	<g class="st1">
		<rect x="1385" y="-115.5" class="st2" width="46" height="1"/>
		<rect x="1387" y="-132.5" class="st2" width="6" height="1"/>
		<rect x="1389" y="-128.5" class="st2" width="4" height="1"/>
		<rect x="1387" y="-124.5" class="st2" width="6" height="1"/>
		<path class="st2" d="M1428.8-128.7l-2.7-3.4c-0.2-0.2-0.5-0.4-0.8-0.4h-5.3c-0.6,0-1,0.5-1,1v6h-2v-10c0-0.5-0.4-1-1-1h-20
			c-0.6,0-1,0.5-1,1v16c0,0.5,0.4,1,1,1h2.1c0.2,1.7,1.7,3,3.4,3s3.2-1.3,3.4-3h2.1c0.2,1.7,1.7,3,3.4,3s3.2-1.3,3.4-3h5.1
			c0.2,1.7,1.7,3,3.4,3s3.2-1.3,3.4-3h2.1c0.6,0,1-0.5,1-1v-8.6C1429-128.3,1428.9-128.5,1428.8-128.7z M1396-135.5h20v10h-20
			V-135.5z M1401.5-116.5c-1.4,0-2.5-1.1-2.5-2.5s1.1-2.5,2.5-2.5s2.5,1.1,2.5,2.5S1402.9-116.5,1401.5-116.5z M1410.5-116.5
			c-1.4,0-2.5-1.1-2.5-2.5s1.1-2.5,2.5-2.5s2.5,1.1,2.5,2.5S1411.9-116.5,1410.5-116.5z M1422.5-116.5c-1.4,0-2.5-1.1-2.5-2.5
			s1.1-2.5,2.5-2.5s2.5,1.1,2.5,2.5S1423.9-116.5,1422.5-116.5z M1428-119.5h-2.1c-0.2-1.7-1.7-3-3.4-3s-3.2,1.3-3.4,3h-5.1
			c-0.2-1.7-1.7-3-3.4-3s-3.2,1.3-3.4,3h-2.1c-0.2-1.7-1.7-3-3.4-3s-3.2,1.3-3.4,3h-2.1v-5h32v5H1428z M1428-125.5h-8v-6h5.3
			l2.7,3.4V-125.5z"/>
		<rect x="1400.5" y="-132.5" class="st2" width="1" height="4"/>
		<rect x="1410.5" y="-132.5" class="st2" width="1" height="4"/>
		<rect x="1405.5" y="-132.5" class="st2" width="1" height="4"/>
	</g>
	<g class="st1">
		<rect x="1248.5" y="-135.5" class="st2" width="1" height="4"/>
		<rect x="1258.5" y="-135.5" class="st2" width="1" height="4"/>
		<rect x="1253.5" y="-135.5" class="st2" width="1" height="4"/>
		<path class="st2" d="M1264-139.5h-2.4l-7.1-3.3v-0.8c0.9-0.2,1.5-1,1.5-1.9h-1c0,0.5-0.4,1-1,1s-1-0.5-1-1s0.4-1,1-1
			c0.3,0,0.5-0.2,0.5-0.5v-1.5h-1v1.1c-0.9,0.2-1.5,1-1.5,1.9s0.6,1.7,1.5,1.9v0.8l-7.1,3.3h-2.4c-0.6,0-1,0.5-1,1v10
			c0,0.5,0.4,1,1,1h20c0.6,0,1-0.5,1-1v-10C1265-139,1264.6-139.5,1264-139.5z M1254-142l5.2,2.5h-10.5L1254-142z M1264-128.5h-20
			v-10h20V-128.5z"/>
		<polygon class="st2" points="1270.5,-115.5 1258.5,-115.5 1249.5,-115.5 1237,-115.5 1237,-114.5 1283,-114.5 1283,-115.5 		"/>
		<path class="st2" d="M1276.8-128.7l-2.7-3.4c-0.2-0.2-0.5-0.4-0.8-0.4h-5.3c-0.6,0-1,0.5-1,1v6h-23c-0.6,0-1,0.5-1,1v5
			c0,0.5,0.4,1,1,1h2.1c0.2,1.7,1.7,3,3.4,3s3.2-1.3,3.4-3h2.1c0.2,1.7,1.7,3,3.4,3s3.2-1.3,3.4-3h5.1c0.2,1.7,1.7,3,3.4,3
			s3.2-1.3,3.4-3h2.1c0.6,0,1-0.5,1-1v-8.6C1277-128.3,1276.9-128.5,1276.8-128.7z M1249.5-116.5c-1.4,0-2.5-1.1-2.5-2.5
			s1.1-2.5,2.5-2.5s2.5,1.1,2.5,2.5S1250.9-116.5,1249.5-116.5z M1258.5-116.5c-1.4,0-2.5-1.1-2.5-2.5s1.1-2.5,2.5-2.5
			s2.5,1.1,2.5,2.5S1259.9-116.5,1258.5-116.5z M1270.5-116.5c-1.4,0-2.5-1.1-2.5-2.5s1.1-2.5,2.5-2.5s2.5,1.1,2.5,2.5
			S1271.9-116.5,1270.5-116.5z M1276-119.5h-2.1c-0.2-1.7-1.7-3-3.4-3s-3.2,1.3-3.4,3h-5.1c-0.2-1.7-1.7-3-3.4-3s-3.2,1.3-3.4,3
			h-2.1c-0.2-1.7-1.7-3-3.4-3s-3.2,1.3-3.4,3h-2.1v-5h32v5H1276z M1276-125.5h-8v-6h5.3l2.7,3.4V-125.5z"/>
	</g>
	<g class="st1">
		<rect x="2194" y="-129.5" class="st2" width="1" height="4"/>
		<rect x="2197" y="-129.5" class="st2" width="1" height="4"/>
		<rect x="2200" y="-129.5" class="st2" width="1" height="4"/>
		<path class="st2" d="M2255-116.5c0,0.6-0.4,1-1,1h-2c-0.6,0-1-0.4-1-1h-1c0,0.6-0.4,1-1,1h-2c-0.6,0-1-0.4-1-1h-1c0,0.6-0.4,1-1,1
			h-0.7l5.9-7.4c0.5-0.6,0.8-1.4,0.8-2.2v-1.4c0-0.6-0.4-1-1-1h-5.1c-1.1,0-2.1,0.5-2.7,1.3l-0.5,0.7h-3.7c-0.3,0-0.6,0.1-0.9,0.1
			v-4.1v-6c0-0.6-0.4-1-1-1h-11c-0.6,0-1,0.4-1,1v5.5h-11c-0.6,0-1,0.4-1,1v5.5h-6.5v-7c0-1.1-0.9-2-2-2h-1.5v-3c0-0.6-0.4-1-1-1h-5
			c-0.6,0-1,0.4-1,1v3h-1c-1.1,0-2,0.9-2,2v7h-2.5c-0.6,0-1,0.4-1,1v7h-0.5c-0.6,0-1-0.4-1-1h-1c0,0.6-0.4,1-1,1h-2
			c-0.6,0-1-0.4-1-1h-1c0,1.1,0.9,2,2,2h2c0.6,0,1.1-0.3,1.5-0.7c0.4,0.4,0.9,0.7,1.5,0.7h2c0.6,0,1.1-0.3,1.5-0.7
			c0.4,0.4,0.9,0.7,1.5,0.7h2c0.6,0,1.1-0.3,1.5-0.7c0.4,0.4,0.9,0.7,1.5,0.7h2c0.6,0,1.1-0.3,1.5-0.7c0.4,0.4,0.9,0.7,1.5,0.7h2
			c0.6,0,1.1-0.3,1.5-0.7c0.4,0.4,0.9,0.7,1.5,0.7h2c0.6,0,1.1-0.3,1.5-0.7c0.4,0.4,0.9,0.7,1.5,0.7h2c0.6,0,1.1-0.3,1.5-0.7
			c0.4,0.4,0.9,0.7,1.5,0.7h2c0.6,0,1.1-0.3,1.5-0.7c0.4,0.4,0.9,0.7,1.5,0.7h2c0.6,0,1.1-0.3,1.5-0.7c0.4,0.4,0.9,0.7,1.5,0.7h2
			c0.6,0,1.1-0.3,1.5-0.7c0.4,0.4,0.9,0.7,1.5,0.7h2c0.6,0,1.1-0.3,1.5-0.7c0.4,0.4,0.9,0.7,1.5,0.7h2c0.6,0,1.1-0.3,1.5-0.7
			c0.4,0.4,0.9,0.7,1.5,0.7h2c0.6,0,1.1-0.3,1.5-0.7c0.4,0.4,0.9,0.7,1.5,0.7h2c0.6,0,1.1-0.3,1.5-0.7c0.4,0.4,0.9,0.7,1.5,0.7h2
			c1.1,0,2-0.9,2-2H2255z M2234.2-124.2l-0.5,0.7h-9.7v-5.5h11v4.1C2234.7-124.7,2234.4-124.5,2234.2-124.2z M2224-135.5h11v5.5h-11
			V-135.5z M2212-129h11v5.5h-11V-129z M2195-135.5h5v3h-5V-135.5z M2192-130.5c0-0.6,0.4-1,1-1h9.5c0.6,0,1,0.4,1,1v7H2192V-130.5z
			 M2233.7-122.5c0.3,0,0.6-0.1,0.8-0.4l0.5-0.7c0.5-0.6,1.2-0.9,2-0.9h3.7c0.3,0,0.6-0.1,0.8-0.4l0.5-0.7c0.5-0.6,1.2-0.9,2-0.9
			h5.1v1.4c0,0.6-0.2,1.1-0.5,1.6l-3.2,4h-56.8v-3H2233.7z M2241-116.5h-1c0,0.6-0.4,1-1,1h-2c-0.6,0-1-0.4-1-1h-1c0,0.6-0.4,1-1,1
			h-2c-0.6,0-1-0.4-1-1h-1c0,0.6-0.4,1-1,1h-2c-0.6,0-1-0.4-1-1h-1c0,0.6-0.4,1-1,1h-2c-0.6,0-1-0.4-1-1h-1c0,0.6-0.4,1-1,1h-2
			c-0.6,0-1-0.4-1-1h-1c0,0.6-0.4,1-1,1h-2c-0.6,0-1-0.4-1-1h-1c0,0.6-0.4,1-1,1h-2c-0.6,0-1-0.4-1-1h-1c0,0.6-0.4,1-1,1h-2
			c-0.6,0-1-0.4-1-1h-1c0,0.6-0.4,1-1,1h-2c-0.6,0-1-0.4-1-1h-1c0,0.6-0.4,1-1,1h-2c-0.6,0-1-0.4-1-1h-1c0,0.6-0.4,1-1,1h-0.5v-3h56
			l-2.4,3h-0.1C2241.4-115.5,2241-115.9,2241-116.5z"/>
		<rect x="2214" y="-127.5" class="st2" width="1" height="2.5"/>
		<rect x="2217" y="-127.5" class="st2" width="1" height="2.5"/>
		<rect x="2220" y="-127.5" class="st2" width="1" height="2.5"/>
		<rect x="2226" y="-127.5" class="st2" width="1" height="2.5"/>
		<rect x="2229" y="-127.5" class="st2" width="1" height="2.5"/>
		<rect x="2232" y="-127.5" class="st2" width="1" height="2.5"/>
		<rect x="2226" y="-134" class="st2" width="1" height="2.5"/>
		<rect x="2229" y="-134" class="st2" width="1" height="2.5"/>
		<rect x="2232" y="-134" class="st2" width="1" height="2.5"/>
	</g>
	<g class="st1">
		<rect x="2088" y="-129.5" class="st2" width="1" height="4"/>
		<rect x="2091" y="-129.5" class="st2" width="1" height="4"/>
		<rect x="2094" y="-129.5" class="st2" width="1" height="4"/>
		<path class="st2" d="M2149-116.5c0,0.5-0.4,1-1,1h-2c-0.6,0-1-0.5-1-1h-1c0,0.5-0.4,1-1,1h-2c-0.6,0-1-0.5-1-1h-1c0,0.5-0.4,1-1,1
			h-0.7l5.9-7.4c0.5-0.6,0.8-1.4,0.8-2.2v-1.5c0-0.5-0.4-1-1-1h-5.1c-1.1,0-2.1,0.5-2.7,1.3l-0.6,0.7h-3.7c-1.1,0-2.1,0.5-2.7,1.3
			l-0.6,0.7h-29.2v-7c0-1.1-0.9-2-2-2h-1.5v-3c0-0.5-0.4-1-1-1h-5c-0.6,0-1,0.5-1,1v3h-1c-1.1,0-2,0.9-2,2v7h-2.5c-0.6,0-1,0.5-1,1
			v7h-0.5c-0.6,0-1-0.5-1-1h-1c0,0.5-0.4,1-1,1h-2c-0.6,0-1-0.5-1-1h-1c0,1.1,0.9,2,2,2h2c0.6,0,1.1-0.3,1.5-0.7
			c0.4,0.4,0.9,0.7,1.5,0.7h2c0.6,0,1.1-0.3,1.5-0.7c0.4,0.4,0.9,0.7,1.5,0.7h2c0.6,0,1.1-0.3,1.5-0.7c0.4,0.4,0.9,0.7,1.5,0.7h2
			c0.6,0,1.1-0.3,1.5-0.7c0.4,0.4,0.9,0.7,1.5,0.7h2c0.6,0,1.1-0.3,1.5-0.7c0.4,0.4,0.9,0.7,1.5,0.7h2c0.6,0,1.1-0.3,1.5-0.7
			c0.4,0.4,0.9,0.7,1.5,0.7h2c0.6,0,1.1-0.3,1.5-0.7c0.4,0.4,0.9,0.7,1.5,0.7h2c0.6,0,1.1-0.3,1.5-0.7c0.4,0.4,0.9,0.7,1.5,0.7h2
			c0.6,0,1.1-0.3,1.5-0.7c0.4,0.4,0.9,0.7,1.5,0.7h2c0.6,0,1.1-0.3,1.5-0.7c0.4,0.4,0.9,0.7,1.5,0.7h2c0.6,0,1.1-0.3,1.5-0.7
			c0.4,0.4,0.9,0.7,1.5,0.7h2c0.6,0,1.1-0.3,1.5-0.7c0.4,0.4,0.9,0.7,1.5,0.7h2c0.6,0,1.1-0.3,1.5-0.7c0.4,0.4,0.9,0.7,1.5,0.7h2
			c0.6,0,1.1-0.3,1.5-0.7c0.4,0.4,0.9,0.7,1.5,0.7h2c1.1,0,2-0.9,2-2h-0.9V-116.5z M2089-135.5h5v3h-5V-135.5z M2086-130.5
			c0-0.5,0.4-1,1-1h9.5c0.6,0,1,0.5,1,1v7H2086V-130.5z M2082.5-122.5h45.2c0.3,0,0.6-0.1,0.8-0.4l0.6-0.7c0.5-0.6,1.2-0.9,1.9-0.9
			h3.7c0.3,0,0.6-0.1,0.8-0.4l0.6-0.7c0.5-0.6,1.2-0.9,1.9-0.9h5.1v1.5c0,0.6-0.2,1.1-0.6,1.6l-3.2,4h-56.8V-122.5z M2136-115.5
			c-0.6,0-1-0.5-1-1h-1c0,0.5-0.4,1-1,1h-2c-0.6,0-1-0.5-1-1h-1c0,0.5-0.4,1-1,1h-2c-0.6,0-1-0.5-1-1h-1c0,0.5-0.4,1-1,1h-2
			c-0.6,0-1-0.5-1-1h-1c0,0.5-0.4,1-1,1h-2c-0.6,0-1-0.5-1-1h-1c0,0.5-0.4,1-1,1h-2c-0.6,0-1-0.5-1-1h-1c0,0.5-0.4,1-1,1h-2
			c-0.6,0-1-0.5-1-1h-1c0,0.5-0.4,1-1,1h-2c-0.6,0-1-0.5-1-1h-1c0,0.5-0.4,1-1,1h-2c-0.6,0-1-0.5-1-1h-1c0,0.5-0.4,1-1,1h-2
			c-0.6,0-1-0.5-1-1h-1c0,0.5-0.4,1-1,1h-2c-0.6,0-1-0.5-1-1h-1c0,0.5-0.4,1-1,1h-0.5v-3h56L2136-115.5L2136-115.5z"/>
		<path class="st2" d="M2123-133h-0.8l-4.2-3.7v-0.8c0.9-0.2,1.5-1,1.5-1.9h-1c0,0.5-0.4,1-1,1s-1-0.5-1-1s0.4-1,1-1
			c0.3,0,0.5-0.2,0.5-0.5v-1.5h-1v1.1c-0.9,0.2-1.5,1-1.5,1.9s0.6,1.7,1.5,1.9v0.8l-4.2,3.7h-0.8c-0.6,0-1,0.5-1,1v5.5
			c0,0.5,0.4,1,1,1h11c0.6,0,1-0.5,1-1v-5.5C2124-132.5,2123.6-133,2123-133z M2117.5-135.8l3.2,2.8h-6.4L2117.5-135.8z M2123-126.5
			h-11v-5.5h11V-126.5z"/>
		<rect x="2114" y="-130.5" class="st2" width="1" height="2.5"/>
		<rect x="2117" y="-130.5" class="st2" width="1" height="2.5"/>
		<rect x="2120" y="-130.5" class="st2" width="1" height="2.5"/>
	</g>
	<g class="st1">
		<rect x="1040" y="-127.5" class="st2" width="1" height="8"/>
		<rect x="1035" y="-127.5" class="st2" width="1" height="8"/>
		<rect x="1030" y="-127.5" class="st2" width="1" height="8"/>
		<rect x="1025" y="-127.5" class="st2" width="1" height="8"/>
		<path class="st2" d="M1056-123.2l-2.3,1.8l0.6,0.8l2.3-1.9c0.2-0.2,0.4-0.5,0.4-0.8v-1.5c0-0.3-0.1-0.6-0.4-0.8l-2.3-1.8l-0.6,0.8
			l2.3,1.8v0.3h-6v1h6V-123.2z"/>
		<path class="st2" d="M1046-115.5v-16c0-0.5-0.4-1-1-1h-24c-0.6,0-1,0.5-1,1v16h-5v1h46v-1H1046z M1045-115.5h-24v-16h24V-115.5z"
			/>
	</g>
	<g class="st1">
		<path class="st2" d="M1127.1-124.1l0.6-0.8l-1.7-1.3v-0.3h5v-1h-5v-0.3l1.7-1.3l-0.6-0.8l-1.7,1.4c-0.2,0.2-0.4,0.5-0.4,0.8v1.5
			c0,0.3,0.1,0.6,0.4,0.8L1127.1-124.1z"/>
		<path class="st2" d="M1130-120.2l-1.7,1.3l0.6,0.8l1.7-1.4c0.2-0.2,0.4-0.5,0.4-0.8v-1.5c0-0.3-0.1-0.6-0.4-0.8l-1.7-1.3l-0.6,0.8
			l1.7,1.3v0.3h-5v1h5V-120.2z"/>
		<rect x="1114" y="-127.5" class="st2" width="1" height="8"/>
		<rect x="1109" y="-127.5" class="st2" width="1" height="8"/>
		<rect x="1104" y="-127.5" class="st2" width="1" height="8"/>
		<rect x="1099" y="-127.5" class="st2" width="1" height="8"/>
		<path class="st2" d="M1120-115.5v-16c0-0.5-0.4-1-1-1h-24c-0.6,0-1,0.5-1,1v16h-5v1h46v-1H1120z M1119-115.5h-24v-16h24V-115.5z"
			/>
	</g>
	<g class="st1">
		<path class="st2" d="M1202.8-128.7l-2.7-3.4c-0.2-0.2-0.5-0.4-0.8-0.4h-5.3c-0.6,0-1,0.5-1,1v6h-23c-0.6,0-1,0.5-1,1v5
			c0,0.5,0.4,1,1,1h2.1c0.2,1.7,1.7,3,3.4,3s3.2-1.3,3.4-3h2.1c0.2,1.7,1.7,3,3.4,3s3.2-1.3,3.4-3h5.1c0.2,1.7,1.7,3,3.4,3
			s3.2-1.3,3.4-3h2.1c0.6,0,1-0.5,1-1v-8.6C1203-128.3,1202.9-128.5,1202.8-128.7z M1175.5-116.5c-1.4,0-2.5-1.1-2.5-2.5
			s1.1-2.5,2.5-2.5s2.5,1.1,2.5,2.5S1176.9-116.5,1175.5-116.5z M1184.5-116.5c-1.4,0-2.5-1.1-2.5-2.5s1.1-2.5,2.5-2.5
			s2.5,1.1,2.5,2.5S1185.9-116.5,1184.5-116.5z M1196.5-116.5c-1.4,0-2.5-1.1-2.5-2.5s1.1-2.5,2.5-2.5s2.5,1.1,2.5,2.5
			S1197.9-116.5,1196.5-116.5z M1202-119.5h-2.1c-0.2-1.7-1.7-3-3.4-3s-3.2,1.3-3.4,3h-5.1c-0.2-1.7-1.7-3-3.4-3s-3.2,1.3-3.4,3
			h-2.1c-0.2-1.7-1.7-3-3.4-3s-3.2,1.3-3.4,3h-2.1v-5h32v5H1202z M1202-125.5h-8v-6h5.3l2.7,3.4V-125.5z"/>
		<polygon class="st2" points="1196.5,-115.5 1184.5,-115.5 1175.5,-115.5 1163,-115.5 1163,-114.5 1209,-114.5 1209,-115.5 		"/>
	</g>
	<g class="st1">
		<rect x="-687" y="-115.5" class="st2" width="46" height="1"/>
		<path class="st2" d="M-657-132.5h-2.3l-9.2-6.3v-0.8c0.9-0.2,1.5-1,1.5-1.9h-1c0,0.5-0.5,1-1,1s-1-0.5-1-1s0.5-1,1-1
			c0.3,0,0.5-0.2,0.5-0.5v-1.5h-1v1.1c-0.9,0.2-1.5,1-1.5,1.9s0.6,1.7,1.5,1.9v0.8l-9.2,6.3h-2.3c-0.5,0-1,0.5-1,1v13
			c0,0.5,0.5,1,1,1h24c0.5,0,1-0.5,1-1v-13C-656-132-656.5-132.5-657-132.5z M-669-137.9l7.9,5.4h-15.8L-669-137.9z M-657-118.5h-24
			v-13h24V-118.5z"/>
		<rect x="-677" y="-128.5" class="st2" width="1" height="7"/>
		<rect x="-662" y="-128.5" class="st2" width="1" height="7"/>
		<rect x="-667" y="-128.5" class="st2" width="1" height="7"/>
		<rect x="-672" y="-128.5" class="st2" width="1" height="7"/>
		<path class="st2" d="M-649.7-121.5h0.9c0.4,0,0.7-0.2,0.9-0.5l3.5-5.8l-0.9-0.5l-3.5,5.8h-0.9l-2-3.3l-0.9,0.5l2,3.3
			C-650.4-121.7-650.1-121.5-649.7-121.5z"/>
	</g>
	<g class="st1">
		<polygon class="st2" points="1636.5,-115.5 1623.5,-115.5 1607,-115.5 1607,-114.5 1653,-114.5 1653,-115.5 		"/>
		<path class="st2" d="M1642-123.5h-1v-10c0-0.5-0.4-1-1-1h-20c-0.6,0-1,0.5-1,1v10h-1c-0.6,0-1,0.5-1,1v3c0,0.5,0.4,1,1,1h2.1
			c0.2,1.7,1.7,3,3.4,3s3.2-1.3,3.4-3h6.1c0.2,1.7,1.7,3,3.4,3s3.2-1.3,3.4-3h2.1c0.6,0,1-0.5,1-1v-3
			C1643-123,1642.6-123.5,1642-123.5z M1620-133.5h20v10h-20V-133.5z M1623.5-116.5c-1.2,0-2.2-0.9-2.4-2h4.9
			C1625.7-117.4,1624.7-116.5,1623.5-116.5z M1636.5-116.5c-1.2,0-2.2-0.9-2.4-2h4.9C1638.7-117.4,1637.7-116.5,1636.5-116.5z
			 M1642-119.5h-24v-3h24V-119.5z"/>
		<rect x="1624.5" y="-130.5" class="st2" width="1" height="4"/>
		<rect x="1634.5" y="-130.5" class="st2" width="1" height="4"/>
		<rect x="1629.5" y="-130.5" class="st2" width="1" height="4"/>
	</g>
	<g class="st1">
		<path class="st2" d="M1568-123.5h-24c-0.6,0-1,0.5-1,1v3c0,0.5,0.4,1,1,1h2.1c0.2,1.7,1.7,3,3.4,3s3.2-1.3,3.4-3h6.1
			c0.2,1.7,1.7,3,3.4,3s3.2-1.3,3.4-3h2.1c0.6,0,1-0.5,1-1v-3C1569-123,1568.6-123.5,1568-123.5z M1549.5-116.5
			c-1.2,0-2.2-0.9-2.4-2h4.9C1551.7-117.4,1550.7-116.5,1549.5-116.5z M1562.5-116.5c-1.2,0-2.2-0.9-2.4-2h4.9
			C1564.7-117.4,1563.7-116.5,1562.5-116.5z M1568-119.5h-24v-3h24V-119.5z"/>
		<rect x="1550.5" y="-133.5" class="st2" width="1" height="4"/>
		<rect x="1560.5" y="-133.5" class="st2" width="1" height="4"/>
		<rect x="1555.5" y="-133.5" class="st2" width="1" height="4"/>
		<path class="st2" d="M1566-137.5h-1.4l-8.1-3.3v-0.7c0.9-0.2,1.5-1,1.5-1.9h-1c0,0.5-0.4,1-1,1s-1-0.5-1-1s0.4-1,1-1
			c0.3,0,0.5-0.2,0.5-0.5v-1.5h-1v1.1c-0.9,0.2-1.5,1-1.5,1.9s0.6,1.7,1.5,1.9v0.7l-8.1,3.3h-1.4c-0.6,0-1,0.5-1,1v10
			c0,0.5,0.4,1,1,1h20c0.6,0,1-0.5,1-1v-10C1567-137,1566.6-137.5,1566-137.5z M1556-140l6,2.5h-12L1556-140z M1566-126.5h-20v-10
			h20V-126.5z"/>
		<polygon class="st2" points="1562.5,-115.5 1549.5,-115.5 1533,-115.5 1533,-114.5 1579,-114.5 1579,-115.5 		"/>
	</g>
	<g class="st1">
		<polygon class="st2" points="1488.5,-115.5 1475.5,-115.5 1459,-115.5 1459,-114.5 1505,-114.5 1505,-115.5 		"/>
		<path class="st2" d="M1494-123.5h-24c-0.6,0-1,0.5-1,1v3c0,0.5,0.4,1,1,1h2.1c0.2,1.7,1.7,3,3.4,3s3.2-1.3,3.4-3h6.1
			c0.2,1.7,1.7,3,3.4,3s3.2-1.3,3.4-3h2.1c0.6,0,1-0.5,1-1v-3C1495-123,1494.6-123.5,1494-123.5z M1475.5-116.5
			c-1.2,0-2.2-0.9-2.4-2h4.9C1477.7-117.4,1476.7-116.5,1475.5-116.5z M1488.5-116.5c-1.2,0-2.2-0.9-2.4-2h4.9
			C1490.7-117.4,1489.7-116.5,1488.5-116.5z M1494-119.5h-24v-3h24V-119.5z"/>
	</g>
	<g class="st1">
		<rect x="-761" y="-115.5" class="st2" width="46" height="1"/>
		<path class="st2" d="M-731-132.5h-2.3l-9.2-6.3v-0.8c0.9-0.2,1.5-1,1.5-1.9h-1c0,0.5-0.5,1-1,1s-1-0.5-1-1s0.5-1,1-1
			c0.3,0,0.5-0.2,0.5-0.5v-1.5h-1v1.1c-0.9,0.2-1.5,1-1.5,1.9s0.6,1.7,1.5,1.9v0.8l-9.2,6.3h-2.3c-0.5,0-1,0.5-1,1v13
			c0,0.5,0.5,1,1,1h24c0.5,0,1-0.5,1-1v-13C-730-132-730.5-132.5-731-132.5z M-743-137.9l7.9,5.4h-15.8L-743-137.9z M-731-118.5h-24
			v-13h24V-118.5z"/>
		<rect x="-751" y="-128.5" class="st2" width="1" height="7"/>
		<rect x="-736" y="-128.5" class="st2" width="1" height="7"/>
		<rect x="-741" y="-128.5" class="st2" width="1" height="7"/>
		<rect x="-746" y="-128.5" class="st2" width="1" height="7"/>
		<rect x="-723" y="-126.5" class="st2" width="1" height="2"/>
		<rect x="-723" y="-123.5" class="st2" width="1" height="1"/>
		<path class="st2" d="M-717.2-123l-3.7-6c-0.2-0.3-0.5-0.5-0.8-0.5h-1.4c-0.4,0-0.7,0.2-0.9,0.5l-3.7,6c-0.2,0.3-0.2,0.8,0,1.1
			l0.7,1c0.2,0.3,0.5,0.4,0.8,0.4h7.5c0.3,0,0.6-0.2,0.8-0.4l0,0l0.7-1C-717-122.3-717-122.7-717.2-123z M-718.8-121.5h-7.5l-0.7-1
			l3.7-6h1.4l3.7,6L-718.8-121.5z"/>
	</g>
	<g class="st1">
		
			<rect x="389.4" y="-69" transform="matrix(4.028223e-03 -1 1 4.028223e-03 453.3387 325.2182)" class="st2" width="1" height="8"/>
		<rect x="386" y="-68" class="st2" width="8" height="1"/>
		<path class="st2" d="M395-83.5h-24c-1.1,0-2,0.9-2,2v18c0,1.1,0.9,2,2,2h24c1.1,0,2-0.9,2-2v-18C397-82.6,396.1-83.5,395-83.5z
			 M380-82.5h5v4.1l-2-1.3c-0.2-0.1-0.4-0.2-0.5-0.2s-0.4,0.1-0.5,0.2l-2,1.3V-82.5z M396-63.5c0,0.5-0.5,1-1,1h-24
			c-0.5,0-1-0.5-1-1v-18c0-0.5,0.5-1,1-1h8v4.1c0,0.4,0.2,0.7,0.5,0.9c0.1,0.1,0.3,0.1,0.5,0.1s0.4-0.1,0.5-0.2l2-1.3l2,1.3
			c0.3,0.2,0.7,0.2,1,0.1c0.3-0.2,0.5-0.5,0.5-0.9v-4.1h9c0.5,0,1,0.5,1,1V-63.5z"/>
	</g>
	<text transform="matrix(1 0 0 1 -1563.832 -175.4998)" class="st3" style="font-family:'MaerskHeadline-Light'; font-size:6px;">Buildings</text>
	<text transform="matrix(1 0 0 1 -1492.748 -175.4998)" class="st3" style="font-family:'MaerskHeadline-Light'; font-size:6px;">Eiffel tower</text>
	<text transform="matrix(1 0 0 1 -1342.54 -175.4998)" class="st3" style="font-family:'MaerskHeadline-Light'; font-size:6px;">Mountain</text>
	<text transform="matrix(1 0 0 1 -1418.4175 -175.4998)" class="st3" style="font-family:'MaerskHeadline-Light'; font-size:6px;">Lighthouse</text>
	<text transform="matrix(1 0 0 1 -1044.842 -175.4998)" class="st3" style="font-family:'MaerskHeadline-Light'; font-size:6px;">Tugboat</text>
	<text transform="matrix(1 0 0 1 -1192.6051 -175.4998)" class="st3" style="font-family:'MaerskHeadline-Light'; font-size:6px;">Sattelite</text>
	<text transform="matrix(1 0 0 1 -1271.057 -175.4998)" class="st3" style="font-family:'MaerskHeadline-Light'; font-size:6px;">Automobile</text>
	<text transform="matrix(1 0 0 1 801.5913 -175.4993)" class="st3" style="font-family:'MaerskHeadline-Light'; font-size:6px;">Handshake</text>
	<text transform="matrix(1 0 0 1 574.8989 -175.4993)" class="st3" style="font-family:'MaerskHeadline-Light'; font-size:6px;">Digital services</text>
	<text transform="matrix(1 0 0 1 734.6769 -175.4993)" class="st3" style="font-family:'MaerskHeadline-Light'; font-size:6px;">Globe</text>
	<text transform="matrix(1 0 0 1 657.407 -175.4993)" class="st3" style="font-family:'MaerskHeadline-Light'; font-size:6px;">Headset</text>
	<text transform="matrix(1 0 0 1 -1115.2451 -175.4998)" class="st3" style="font-family:'MaerskHeadline-Light'; font-size:6px;">Plane</text>
	<text transform="matrix(1 0 0 1 -973.719 -175.4998)" class="st3" style="font-family:'MaerskHeadline-Light'; font-size:6px;">Containers</text>
	<text transform="matrix(1 0 0 1 -894.4302 -175.4998)" class="st3" style="font-family:'MaerskHeadline-Light'; font-size:6px;">Export</text>
	<text transform="matrix(1 0 0 1 -820.7841 -175.4998)" class="st3" style="font-family:'MaerskHeadline-Light'; font-size:6px;">Import</text>
	<text transform="matrix(1 0 0 1 -760.032 -175.4998)" class="st3" style="font-family:'MaerskHeadline-Light'; font-size:6px;">Dangerous cargo</text>
	<text transform="matrix(1 0 0 1 -677.032 -175.4998)" class="st3" style="font-family:'MaerskHeadline-Light'; font-size:6px;">Readiness</text>
	<text transform="matrix(1 0 0 1 -610.358 -175.4998)" class="st3" style="font-family:'MaerskHeadline-Light'; font-size:6px;">Oversized cargo</text>
	<text transform="matrix(1 0 0 1 -529.5151 -175.4998)" class="st3" style="font-family:'MaerskHeadline-Light'; font-size:6px;">Machinery</text>
	<text transform="matrix(1 0 0 1 -453.5711 -175.4998)" class="st3" style="font-family:'MaerskHeadline-Light'; font-size:6px;">Terminal</text>
	<text transform="matrix(1 0 0 1 -377.5971 -175.4998)" class="st3" style="font-family:'MaerskHeadline-Light'; font-size:6px;">Factory</text>
	<text transform="matrix(1 0 0 1 -308.6221 -175.4998)" class="st3" style="font-family:'MaerskHeadline-Light'; font-size:6px;">Warehouse</text>
	<text transform="matrix(1 0 0 1 -226.5522 -175.4998)" class="st3" style="font-family:'MaerskHeadline-Light'; font-size:6px;">Shop</text>
	<text transform="matrix(1 0 0 1 -159.7911 -175.4998)" class="st3" style="font-family:'MaerskHeadline-Light'; font-size:6px;">Landscape</text>
	<text transform="matrix(1 0 0 1 -82.6622 -175.4998)" class="st3" style="font-family:'MaerskHeadline-Light'; font-size:6px;">Produce</text>
	<text transform="matrix(1 0 0 1 -8.6141 -175.4998)" class="st3" style="font-family:'MaerskHeadline-Light'; font-size:6px;">Seafood</text>
	<text transform="matrix(1 0 0 1 66.6039 -175.4998)" class="st3" style="font-family:'MaerskHeadline-Light'; font-size:6px;">Protein</text>
	<text transform="matrix(1 0 0 1 140.0369 -175.4998)" class="st3" style="font-family:'MaerskHeadline-Light'; font-size:6px;">Apparel</text>
	<text transform="matrix(1 0 0 1 210.986 -175.4998)" class="st3" style="font-family:'MaerskHeadline-Light'; font-size:6px;">Chemicals</text>
	<text transform="matrix(1 0 0 1 287.7039 -175.4998)" class="st3" style="font-family:'MaerskHeadline-Light'; font-size:6px;">Pharma</text>
	<text transform="matrix(1 0 0 1 358.4039 -175.4998)" class="st3" style="font-family:'MaerskHeadline-Light'; font-size:6px;">Stopwatch</text>
	<text transform="matrix(1 0 0 1 435.2179 -175.4998)" class="st3" style="font-family:'MaerskHeadline-Light'; font-size:6px;">Package</text>
	<text transform="matrix(1 0 0 1 506.0504 -175.4998)" class="st3" style="font-family:'MaerskHeadline-Light'; font-size:6px;">Electronics</text>
	<text transform="matrix(1 0 0 1 875.7625 -175.4998)" class="st3" style="font-family:'MaerskHeadline-Light'; font-size:6px;">Agriculture</text>
	<text transform="matrix(1 0 0 1 944.593 -175.4998)" class="st3" style="font-family:'MaerskHeadline-Light'; font-size:6px;">Load container</text>
	<text transform="matrix(1 0 0 1 1016.652 -175.4998)" class="st3" style="font-family:'MaerskHeadline-Light'; font-size:6px;">Empty container</text>
	<text transform="matrix(1 0 0 1 1077.9111 -175.4998)" class="st3" style="font-family:'MaerskHeadline-Light'; font-size:6px;">Load and empty container</text>
	<text transform="matrix(1 0 0 1 1170.416 -175.4998)" class="st3" style="font-family:'MaerskHeadline-Light'; font-size:6px;">Empty truck</text>
	<text transform="matrix(1 0 0 1 1242.3188 -175.4998)" class="st3" style="font-family:'MaerskHeadline-Light'; font-size:6px;">Loading truck</text>
	<text transform="matrix(1 0 0 1 1317.186 -175.4998)" class="st3" style="font-family:'MaerskHeadline-Light'; font-size:6px;">Loaded truck</text>
	<text transform="matrix(1 0 0 1 1391.666 -175.4998)" class="st3" style="font-family:'MaerskHeadline-Light'; font-size:6px;">Driving truck</text>
	<text transform="matrix(1 0 0 1 1457.4189 -175.4998)" class="st3" style="font-family:'MaerskHeadline-Light'; font-size:6px;">Empty train wagon</text>
	<text transform="matrix(1 0 0 1 1529.3223 -175.4998)" class="st3" style="font-family:'MaerskHeadline-Light'; font-size:6px;">Loading train wagon</text>
	<text transform="matrix(1 0 0 1 1604.188 -175.4998)" class="st3" style="font-family:'MaerskHeadline-Light'; font-size:6px;">Loaded train wagon</text>
	<text transform="matrix(1 0 0 1 1680.1533 -175.4998)" class="st3" style="font-family:'MaerskHeadline-Light'; font-size:6px;">Container stacking</text>
	<text transform="matrix(1 0 0 1 1787.3218 -175.4998)" class="st3" style="font-family:'MaerskHeadline-Light'; font-size:6px;">Train</text>
	<text transform="matrix(1 0 0 1 1876.9641 -175.4998)" class="st3" style="font-family:'MaerskHeadline-Light'; font-size:6px;">Illustration details</text>
	<text transform="matrix(1 0 0 1 1978.5449 -175.4998)" class="st3" style="font-family:'MaerskHeadline-Light'; font-size:6px;">Empty container ship</text>
	<text transform="matrix(1 0 0 1 2082.4482 -175.4998)" class="st3" style="font-family:'MaerskHeadline-Light'; font-size:6px;">Loading container ship</text>
	<text transform="matrix(1 0 0 1 2189.3152 -175.4998)" class="st3" style="font-family:'MaerskHeadline-Light'; font-size:6px;">Loaded container ship</text>
	<g class="st1">
		<rect x="1756" y="-115.5" class="st2" width="76" height="1"/>
		<rect x="1797.5" y="-130.5" class="st2" width="1" height="4"/>
		<rect x="1807.5" y="-130.5" class="st2" width="1" height="4"/>
		<rect x="1802.5" y="-130.5" class="st2" width="1" height="4"/>
		<path class="st2" d="M1824.8-129.5l-3.7-4.7c-0.2-0.2-0.5-0.4-0.8-0.4H1793c-0.6,0-1,0.5-1,1v12h-3v-1c0-0.5-0.4-1-1-1h-1v-10
			c0-0.5-0.4-1-1-1h-20c-0.6,0-1,0.5-1,1v10h-1c-0.6,0-1,0.5-1,1v3c0,0.5,0.4,1,1,1h2.1c0.2,1.7,1.7,3,3.4,3s3.2-1.3,3.4-3h6.1
			c0.2,1.7,1.7,3,3.4,3s3.2-1.3,3.4-3h2.1c0.6,0,1-0.5,1-1v-1h3v1c0,0.5,0.4,1,1,1h1.1c0.2,1.7,1.7,3,3.4,3s3.2-1.3,3.4-3h2.1
			c0.2,1.7,1.7,3,3.4,3s3.2-1.3,3.4-3h6.1c0.2,1.7,1.7,3,3.4,3s3.2-1.3,3.4-3h1.1c0.6,0,1-0.5,1-1v-9.3
			C1825-129,1824.9-129.3,1824.8-129.5z M1766-133.5h20v10h-20V-133.5z M1769.5-116.5c-1.2,0-2.2-0.9-2.4-2h4.9
			C1771.7-117.4,1770.7-116.5,1769.5-116.5z M1782.5-116.5c-1.2,0-2.2-0.9-2.4-2h4.9C1784.7-117.4,1783.7-116.5,1782.5-116.5z
			 M1788-119.5h-24v-3h24V-119.5z M1797.5-116.5c-1.2,0-2.2-0.9-2.4-2h4.9C1799.7-117.4,1798.7-116.5,1797.5-116.5z M1806.5-116.5
			c-1.2,0-2.2-0.9-2.4-2h4.9C1808.7-117.4,1807.7-116.5,1806.5-116.5z M1819.5-116.5c-1.2,0-2.2-0.9-2.4-2h4.9
			C1821.7-117.4,1820.7-116.5,1819.5-116.5z M1824-119.5h-31v-3h31V-119.5z M1824-123.5h-31v-10h20v6.5c0,0.3,0.2,0.5,0.5,0.5h10.5
			V-123.5z M1824-127.5h-10v-6h6.3l3.7,4.7V-127.5z"/>
		<rect x="1770.5" y="-130.5" class="st2" width="1" height="4"/>
		<rect x="1780.5" y="-130.5" class="st2" width="1" height="4"/>
		<rect x="1775.5" y="-130.5" class="st2" width="1" height="4"/>
	</g>
	<g class="st1">
		<path class="st2" d="M401.7-40.6h-2c-0.5,0-1,0.4-1,1v2.5c0,0.6,0.5,1,1,1h2c0.5,0,1-0.4,1-1v-2.5
			C402.7-40.2,402.2-40.6,401.7-40.6z M401.7-37.1h-2v-2.5h2V-37.1z"/>
		<path class="st2" d="M403.7-34.6h-6c-1.1,0-2,0.9-2,2v3.8c0,0.3,0.1,0.6,0.4,0.8l1.6,1.2v3.2c0,0.6,0.4,1,1,1h4c0.6,0,1-0.4,1-1
			v-3.2l1.6-1.2c0.2-0.2,0.4-0.5,0.4-0.8v-3.8C405.7-33.8,404.8-34.6,403.7-34.6z M404.7-28.9l-1,0.8v-3.5h-1v4.5v3.5h-4v-3.5v-4.5
			h-1v3.5l-1-0.8v-3.8c0-0.6,0.4-1,1-1h6c0.6,0,1,0.4,1,1V-28.9z"/>
	</g>
	<g class="st1">
		
			<rect x="452.4" y="-122" transform="matrix(4.028223e-03 -1 1 4.028223e-03 569.0858 335.4296)" class="st2" width="1" height="8"/>
		<rect x="449" y="-121" class="st2" width="8" height="1"/>
		<path class="st2" d="M458-136.5h-24c-1.1,0-2,0.9-2,2v18c0,1.1,0.9,2,2,2h24c1.1,0,2-0.9,2-2v-18C460-135.6,459.1-136.5,458-136.5
			z M443-135.5h5v4.1l-2-1.3c-0.2-0.1-0.4-0.2-0.5-0.2s-0.4,0.1-0.5,0.2l-2,1.3V-135.5z M459-116.5c0,0.5-0.5,1-1,1h-24
			c-0.5,0-1-0.5-1-1v-18c0-0.5,0.5-1,1-1h8v4.1c0,0.4,0.2,0.7,0.5,0.9c0.1,0.1,0.3,0.1,0.5,0.1s0.4-0.1,0.5-0.2l2-1.3l2,1.3
			c0.3,0.2,0.7,0.2,1,0.1c0.3-0.2,0.5-0.5,0.5-0.9v-4.1h9c0.5,0,1,0.5,1,1V-116.5z"/>
	</g>
	<g class="st1">
		<path class="st2" d="M435.7-153.6h-2c-0.5,0-1,0.4-1,1v2.5c0,0.6,0.5,1,1,1h2c0.5,0,1-0.4,1-1v-2.5
			C436.7-153.2,436.2-153.6,435.7-153.6z M435.7-150.1h-2v-2.5h2V-150.1z"/>
		<path class="st2" d="M437.7-147.6h-6c-1.1,0-2,0.9-2,2v3.8c0,0.3,0.1,0.6,0.4,0.8l1.6,1.2v3.2c0,0.6,0.4,1,1,1h4c0.6,0,1-0.4,1-1
			v-3.2l1.6-1.2c0.2-0.2,0.4-0.5,0.4-0.8v-3.8C439.7-146.8,438.8-147.6,437.7-147.6z M438.7-141.9l-1,0.8v-3.5h-1v4.5v3.5h-4v-3.5
			v-4.5h-1v3.5l-1-0.8v-3.8c0-0.6,0.4-1,1-1h6c0.6,0,1,0.4,1,1V-141.9z"/>
	</g>
	<g class="st4">
		<path class="st2" d="M448.3-69.3h-4.5c-1.2,0-2.3,1-2.3,2.3v5.6c0,1.2,1,2.3,2.3,2.3h4.5c1.2,0,2.3-1,2.3-2.3V-67
			C450.5-68.3,449.5-69.3,448.3-69.3z M448.3-61.4h-4.5V-67h4.5V-61.4z"/>
		<path class="st2" d="M452.8-55.7h-13.5c-2.5,0-4.5,2-4.5,4.5v8.5c0,0.7,0.3,1.4,0.9,1.8l3.6,2.7V-28c0,1.2,1,2.3,2.3,2.3h9
			c1.2,0,2.3-1,2.3-2.3v-10.3l3.6-2.7c0.6-0.4,0.9-1.1,0.9-1.8v-8.5C457.3-53.7,455.2-55.7,452.8-55.7z M455-42.8l-2.3,1.7V-49h-2.3
			v10.1V-28h-9v-10.9V-49h-2.3v7.9l-2.3-1.7v-8.5c0-1.2,1-2.3,2.3-2.3h13.5c1.2,0,2.3,1,2.3,2.3L455-42.8L455-42.8z"/>
	</g>
	<g class="st4">
		<path class="st2" d="M428.5-63.3H424c-1.2,0-2.3,1-2.3,2.3v5.6c0,1.2,1,2.3,2.3,2.3h4.5c1.2,0,2.3-1,2.3-2.3V-61
			C430.8-62.3,429.8-63.3,428.5-63.3z M428.5-55.4H424V-61h4.5V-55.4z"/>
		<path class="st2" d="M433-49.8h-13.5c-2.5,0-4.5,2-4.5,4.5v8.5c0,0.7,0.3,1.4,0.9,1.8l3.6,2.7v7.3c0,1.2,1,2.3,2.3,2.3h9
			c1.2,0,2.3-1,2.3-2.3v-7.3l3.6-2.7c0.6-0.4,0.9-1.1,0.9-1.8v-8.5C437.5-47.8,435.5-49.8,433-49.8z M435.3-36.8l-2.3,1.7V-43h-2.3
			v10.1v7.9h-9v-7.9V-43h-2.3v7.9l-2.3-1.7v-8.5c0-1.2,1-2.3,2.3-2.3H433c1.2,0,2.3,1,2.3,2.3V-36.8z"/>
	</g>
	<g class="st4">
		<path class="st2" d="M468-63.3h-4.5c-1.2,0-2.3,1-2.3,2.3v5.6c0,1.2,1,2.3,2.3,2.3h4.5c1.2,0,2.3-1,2.3-2.3V-61
			C470.2-62.3,469.2-63.3,468-63.3z M468-55.4h-4.5V-61h4.5V-55.4z"/>
		<path class="st2" d="M472.5-49.8H459c-2.5,0-4.5,2-4.5,4.5v8.5c0,0.7,0.3,1.4,0.9,1.8l3.6,2.7v7.3c0,1.2,1,2.3,2.3,2.3h9
			c1.2,0,2.3-1,2.3-2.3v-7.3l3.6-2.7c0.6-0.4,0.9-1.1,0.9-1.8v-8.5C477-47.8,475-49.8,472.5-49.8z M474.7-36.8l-2.3,1.7V-43h-2.3
			v10.1v7.9h-9v-7.9V-43H459v7.9l-2.3-1.7v-8.5c0-1.2,1-2.3,2.3-2.3h13.5c1.2,0,2.3,1,2.3,2.3L474.7-36.8L474.7-36.8z"/>
	</g>
</g>
<g id="Layer_2_1_" class="st0">
	<g class="st1">
		<g>
			<path class="st5" d="M440.5-68.5v7.9c0,0.6,0.5,1,1,1h7.5c0.8,0,1.4-0.6,1.4-1.4v-7.5c0-0.6-0.5-1-1-1h-7.9
				C441-69.5,440.5-69.1,440.5-68.5z"/>
			<path class="st5" d="M436.5-55h18.1c0.8,0,1.4,0.6,1.4,1.4V-41l-4,3v10.6c0,0.8-0.6,1.4-1.4,1.4h-10.1c-0.8,0-1.4-0.6-1.4-1.4
				V-38l-3.4-2.6c-0.4-0.3-0.6-0.7-0.6-1.2v-11.8C435-54.4,435.7-55,436.5-55z"/>
		</g>
		<line class="st5" x1="439" y1="-49" x2="439" y2="-38"/>
		<line class="st5" x1="452" y1="-49" x2="452" y2="-38"/>
	</g>
</g>
<g id="Layer_2_copy">
</g>
<g id="Layer_8">
	<g>
		<g>
			<path class="st6" d="M77.7,52.5L77.7,52.5c-4.5,0-8.2-3.7-8.2-8.2v-4.5c0-4.5,3.7-8.2,8.2-8.2l0,0c4.5,0,8.2,3.7,8.2,8.2v4.5
				C85.8,48.8,82.2,52.5,77.7,52.5z M77.7,33.2c-3.7,0-6.7,3-6.7,6.7v4.5c0,3.7,3,6.7,6.7,6.7l0,0c3.7,0,6.7-3,6.7-6.7v-4.5
				C84.4,36.1,81.4,33.2,77.7,33.2L77.7,33.2z"/>
			<path class="st6" d="M89.6,55.4H68.8v1.5h20.8c2,0,3.7,1.7,3.7,3.7v16.5c0,0.2,0,0.4,0,0.5h1.5c0-0.2,0-0.3,0-0.5V60.6
				C94.8,57.8,92.4,55.4,89.6,55.4z"/>
			<rect x="65.1" y="70.3" class="st6" width="1.5" height="7.4"/>
			<rect x="87.3" y="64.3" class="st6" width="1.5" height="13.4"/>
		</g>
		<g>
			<path class="st6" d="M48,39.1L48,39.1c-4.5,0-8.2-3.7-8.2-8.2v-4.5c0-4.5,3.7-8.2,8.2-8.2l0,0c4.5,0,8.2,3.7,8.2,8.2v4.5
				C56.2,35.4,52.5,39.1,48,39.1z M48,19.8c-3.7,0-6.7,3-6.7,6.7V31c0,3.7,3,6.7,6.7,6.7l0,0c3.7,0,6.7-3,6.7-6.7v-4.5
				C54.7,22.8,51.7,19.8,48,19.8L48,19.8z"/>
			<path class="st6" d="M60.6,42.1H35.4c-2.9,0-5.2,2.3-5.2,5.2v16.5c0,0.2,0,0.4,0,0.5c0.1,0.8,0.3,1.5,0.7,2.2
				c0.2,0.3,0.4,0.6,0.6,0.8c0.4,0.5,0.9,0.9,1.5,1.2l1.6,0.8l1.5,0.7v7.7h1.5v-8.6l-3.9-1.9c-1.3-0.6-2-1.9-2-3.3V47.3
				c0-2,1.7-3.7,3.7-3.7h25.2c2,0,3.7,1.7,3.7,3.7v16.5c0,1.2-0.5,2.3-1.5,3c-0.2,0.1-0.4,0.3-0.6,0.4l-3.8,1.9l-0.1,8.6h1.5V70
				l3-1.5c0,0,1.7-1.1,2.2-2c0.4-0.7,0.6-1.4,0.7-2.2c0-0.2,0-0.3,0-0.5V47.3C65.8,44.4,63.5,42.1,60.6,42.1z"/>
			<rect x="36.1" y="51" class="st6" width="1.5" height="20.8"/>
			<polygon class="st6" points="58.4,51 59.9,51 59.8,71.8 58.4,71.8 			"/>
		</g>
		<g>
			<path class="st6" d="M17.8,52.5L17.8,52.5c-4.5,0-8.2-3.7-8.2-8.2v-4.5c0-4.5,3.7-8.2,8.2-8.2l0,0c4.5,0,8.2,3.7,8.2,8.2v4.5
				C26,48.8,22.3,52.5,17.8,52.5z M17.8,33.2c-3.7,0-6.7,3-6.7,6.7v4.5c0,3.7,3,6.7,6.7,6.7l0,0c3.7,0,6.7-3,6.7-6.7v-4.5
				C24.5,36.1,21.5,33.2,17.8,33.2L17.8,33.2z"/>
			<path class="st6" d="M6.4,55.4c-2.9,0-5.2,2.3-5.2,5.2v16.5c0,0.2,0,0.4,0,0.5h1.5c0-0.2,0-0.3,0-0.5V60.6c0-2,1.7-3.7,3.7-3.7
				h20.8v-1.5C27.2,55.4,6.4,55.4,6.4,55.4z"/>
			<rect x="7.2" y="64.3" class="st6" width="1.5" height="13.4"/>
			<rect x="29.4" y="70.3" class="st6" width="1.5" height="7.4"/>
		</g>
	</g>
	<path class="st7" d="M436.4-41.6l0.2,0.1h-1.7c-0.2-0.2-0.3-0.4-0.4-0.5c-0.3-0.4-0.4-0.9-0.5-1.5c0-0.1,0-0.2,0-0.4v-6.6h1v6.6
		C435-42.9,435.5-42,436.4-41.6z"/>
	<rect x="438" y="-50.5" class="st7" width="1" height="9"/>
	<polygon class="st7" points="438,-40.8 438,-39.7 437,-40.2 437,-41.3 	"/>
	<path class="st7" d="M458-50.5v6.6c0,0.1,0,0.2,0,0.4c0,0.5-0.2,1-0.5,1.5c-0.3,0.6-0.8,1-1.4,1.3H456v-1.2c0.6-0.5,1-1.2,1-2v-6.6
		H458z"/>
	<polygon class="st7" points="455,-41.3 455,-40.2 454,-39.7 454,-40.8 	"/>
</g>
<g id="Layer_3">
</g>
<g id="Layer_4">
</g>
<g id="Layer_4_copy" class="st0">
	<g class="st1">
		<path class="st5" d="M460.3-62.3v7.9c0,0.6,0.5,1,1,1h7.5c0.8,0,1.4-0.6,1.4-1.4v-7.5c0-0.6-0.5-1-1-1h-7.9
			C460.8-63.3,460.3-62.9,460.3-62.3z"/>
		<path class="st5" d="M456.3-48.8h18.1c0.8,0,1.4,0.6,1.4,1.4v12.6l-4,3v10.6c0,0.8-0.6,1.4-1.4,1.4h-10.1c-0.8,0-1.4-0.6-1.4-1.4
			v-10.6l-3.4-2.6c-0.4-0.3-0.6-0.7-0.6-1.2v-11.8C454.8-48.2,455.5-48.8,456.3-48.8z"/>
		<line class="st5" x1="458.8" y1="-42.8" x2="458.8" y2="-31.8"/>
		<line class="st5" x1="471.8" y1="-42.8" x2="471.8" y2="-31.8"/>
	</g>
</g>
</svg>
