<svg xmlns="http://www.w3.org/2000/svg" viewBox="0 0 40 40"><defs><style>.cls-1{fill:none;}.cls-2{fill:#00243d;}</style></defs><title>Asset 157</title><g id="Layer_2" data-name="Layer 2"><g id="Layer_1-2" data-name="Layer 1"><rect class="cls-1" x="1.47" y="1.47" width="37.06" height="37.06"/><polygon class="cls-1" points="2.83 16.67 2.83 35.57 15.28 26.12 2.83 16.67"/><polygon class="cls-1" points="7.42 12.84 3.57 15.63 7.42 18.55 7.42 12.84"/><polygon class="cls-1" points="37.17 36.15 37.17 36.13 37.16 36.15 37.17 36.15"/><polygon class="cls-1" points="37.17 35.57 37.17 16.67 24.72 26.12 37.17 35.57"/><polygon class="cls-1" points="2.83 36.15 2.84 36.15 2.83 36.13 2.83 36.15"/><path class="cls-1" d="M20.38,4a.66.66,0,0,0-.76,0l-1.07.78h2.9Z"/><polygon class="cls-1" points="36.43 15.63 32.58 12.84 32.58 18.55 36.43 15.63"/><path class="cls-2" d="M37.66,15l-5.08-3.69V6A1.28,1.28,0,0,0,31.3,4.75H23.62L21.13,2.94a1.92,1.92,0,0,0-2.26,0L16.38,4.75H8.7A1.28,1.28,0,0,0,7.42,6v5.23L2.34,15a1.91,1.91,0,0,0-.79,1.55V36.15a1.28,1.28,0,0,0,1.28,1.28H37.17a1.28,1.28,0,0,0,1.28-1.28V16.5A1.91,1.91,0,0,0,37.66,15Zm-5.08-2.11,3.85,2.79-3.85,2.92ZM19.62,4a.66.66,0,0,1,.76,0l1.07.78h-2.9ZM8.7,11.91V6H31.3V19.52l-7.64,5.8-2.24-1.7a2.34,2.34,0,0,0-2.84,0l-2.24,1.7L8.7,19.52Zm-1.28.93v5.71L3.57,15.63ZM2.83,16.67l12.45,9.45L2.83,35.57ZM4.17,36.15l12.17-9.23,1.06-.8,2-1.49a1.1,1.1,0,0,1,1.29,0l2,1.49,1.06.8,12.16,9.23Zm33-.58L24.72,26.12l12.45-9.45Z"/><rect class="cls-2" x="12.41" y="9.22" width="11.5" height="1.28"/><rect class="cls-2" x="12.41" y="13.06" width="7.67" height="1.28"/><rect class="cls-2" x="12.41" y="16.89" width="3.83" height="1.28"/><rect class="cls-1" width="40" height="40"/></g></g></svg>