<?xml version="1.0" encoding="UTF-8"?>
<svg width="96px" height="96px" viewBox="0 0 96 96" version="1.1" xmlns="http://www.w3.org/2000/svg" xmlns:xlink="http://www.w3.org/1999/xlink">
    <title>Icon</title>
    <g id="----4.26-Page-hero-with-navigation" stroke="none" stroke-width="1" fill="none" fill-rule="evenodd">
        <g id="Page-hero-with-navigation---1280px" transform="translate(-148.000000, -465.000000)">
            <g id="Page-hero-with-navigation" transform="translate(0.000000, 118.000000)">
                <g id="Content" transform="translate(104.000000, 167.000000)">
                    <g id="Menu" transform="translate(0.000000, 180.000000)">
                        <g id="Icon" transform="translate(44.000000, 0.000000)">
                            <rect id="Rectangle" x="0" y="0" width="96" height="96"></rect>
                            <path d="M55.24,68.5 L17,68.5 C14.790861,68.5 13,66.709139 13,64.5 L13,30 C13,27.790861 14.790861,26 17,26 L78.76,26 C80.969139,26 82.76,27.790861 82.76,30 L82.76,64.5 C82.76,66.709139 80.969139,68.5 78.76,68.5" id="Path" stroke="#FFFFFF" stroke-width="2"></path>
                            <circle id="Oval" stroke="#FFFFFF" stroke-width="2" cx="67.38" cy="67.92" r="11.8"></circle>
                            <path d="M60.02,58.66 L60.02,53.22 C60.02,49.1551842 63.3151842,45.86 67.38,45.86 L67.38,45.86 C71.4448158,45.86 74.74,49.1551842 74.74,53.22 L74.74,58.66" id="Path" stroke="#FFFFFF" stroke-width="2"></path>
                            <path d="M70.76,73.94 L68.5,68.3 C69.8097514,67.7521191 70.5511257,66.356328 70.271721,64.9643671 C69.9923163,63.5724062 68.7697261,62.5708365 67.35,62.5708365 C65.9302739,62.5708365 64.7076837,63.5724062 64.428279,64.9643671 C64.1488743,66.356328 64.8902486,67.7521191 66.2,68.3 L63.96,73.86 L70.76,73.94 Z" id="Path" stroke="#FFFFFF" stroke-width="1.5" stroke-linejoin="round"></path>
                            <polygon id="Rectangle" stroke="#FFFFFF" stroke-width="2" points="13 33.24 82.76 33.24 82.76 42.66 13 42.66"></polygon>
                            <line x1="22.48" y1="56.12" x2="48.24" y2="56.12" id="Path" stroke="#FFFFFF" stroke-width="2"></line>
                        </g>
                    </g>
                </g>
            </g>
        </g>
    </g>
</svg>