<svg xmlns="http://www.w3.org/2000/svg" viewBox="0 0 40 40"><defs><style>.cls-1{fill:none;}.cls-2{fill:#00243d;}</style></defs><title>Asset 152</title><g id="Layer_2" data-name="Layer 2"><g id="Layer_1-2" data-name="Layer 1"><rect class="cls-1" x="0.3" y="0.3" width="39.41" height="39.41"/><path class="cls-2" d="M37.67,35.7H2.33a2,2,0,0,1-2-2V7.84a2,2,0,0,1,2-2H37.67a2,2,0,0,1,2,2V33.66A2,2,0,0,1,37.67,35.7ZM2.33,7.16a.68.68,0,0,0-.68.68V33.66a.69.69,0,0,0,.68.68H37.67a.69.69,0,0,0,.68-.68V7.84a.68.68,0,0,0-.68-.68Z"/><rect class="cls-2" x="0.97" y="11.24" width="38.05" height="1.36"/><rect class="cls-2" x="32.91" y="3.76" width="1.36" height="2.72"/><rect class="cls-2" x="23.85" y="3.76" width="1.36" height="2.72"/><rect class="cls-2" x="14.79" y="3.76" width="1.36" height="2.72"/><rect class="cls-2" x="5.73" y="3.76" width="1.36" height="2.72"/><rect class="cls-2" x="6.41" y="18.03" width="5.44" height="1.36"/><rect class="cls-2" x="6.41" y="26.98" width="5.44" height="1.36"/><rect class="cls-2" x="17.28" y="18.03" width="5.44" height="1.36"/><rect class="cls-2" x="17.28" y="26.98" width="5.44" height="1.36"/><rect class="cls-2" x="28.15" y="18.03" width="5.44" height="1.36"/><rect class="cls-2" x="28.15" y="26.98" width="5.44" height="1.36" transform="translate(-10.52 29.93) rotate(-45)"/><rect class="cls-2" x="30.19" y="24.94" width="1.36" height="5.44" transform="translate(-10.52 29.93) rotate(-45)"/><rect class="cls-1" width="40" height="40"/></g></g></svg>