<?xml version="1.0" encoding="utf-8"?>
<!-- Generator: Adobe Illustrator 24.1.0, SVG Export Plug-In . SVG Version: 6.00 Build 0)  -->
<svg version="1.1" id="Ebene_1" xmlns="http://www.w3.org/2000/svg" xmlns:xlink="http://www.w3.org/1999/xlink" x="0px" y="0px"
	 viewBox="0 0 481.9 170.1" style="enable-background:new 0 0 481.9 170.1;" xml:space="preserve">
<style type="text/css">
	.st0{fill:#868586;}
	.st1{fill:#FFFFFF;}
	.st2{fill-rule:evenodd;clip-rule:evenodd;fill:#E4200E;}
	.st3{fill-rule:evenodd;clip-rule:evenodd;fill:#868586;}
</style>
<g>
	<g>
		<path class="st0" d="M360,58.1c0-6.8,6.7-11.7,15.6-10.3c2.5,0.4,5.4,1.6,6.2,2c0.5,0.2,0.8,0.7,0.6,1.1c-0.5,1.2-0.8,1.9-1.2,3
			c-0.1,0.4-0.8,0.3-1,0c-1.4-2.9-4.8-4.6-8.4-4.3c-1.9,0.2-3.4,0.8-4.6,1.7c-1.2,1-1.8,2.3-1.8,4.1c0,1.6,0.5,2.9,1.4,4
			c0.9,1.1,2.4,2.3,4.4,3.5l5.3,3.3c3.3,2.1,5.7,3.9,7,5.7c1.2,1.6,1.9,3.4,2,5.6l0,0.6c0,3.2-1.2,5.8-3.6,7.9
			c-2.4,2.1-5.4,3.2-9.2,3.2c-0.5,0-0.9,0-1.3,0c-0.1,0-0.1,0-0.2,0c-0.9-0.8-2.1-1.9-2.8-2.5c0.1,0,0.1,0,0.2,0.1
			c0.9,0.2,1.9,0.3,3,0.3c1.9,0,4.2-0.6,5.6-1.8c1.4-1.2,2.1-2.9,2.1-5.1c0-0.9-0.2-1.8-0.5-2.6c-0.4-1-0.9-1.8-1.7-2.6
			c-0.9-0.9-2.9-2.3-5.9-4.2l-5.2-3.2c-1.6-1-2.8-2-3.7-3C360.8,62.5,360,60.8,360,58.1L360,58.1z"/>
		<path class="st1" d="M253.7,33.8c35.5-15.6,57.8,32,87.4,17c0.5,1,1,2.1,1.5,3.1c7.6,14.5,20.7,29.1,34.4,40l0.2,0.2
			c0.1,0.1,0.2,0.2,0.4,0.3c0.8,0.7,1.7,1.3,2.5,1.9c-24.4,9.2-48.7-40.4-102.3,7.2c-0.1-1.3-0.2-3.4-0.3-4.7
			c-1.8-21.7-11.1-46.7-22.2-62.6C254.8,35.3,254.3,34.5,253.7,33.8L253.7,33.8z"/>
		<path class="st2" d="M377,93.9l0.2,0.2c0,0,0,0,0,0c-0.4,0.1-0.9,0.2-1.2,0.2c0,0,0,0,0,0c-16.7-4.8-35.7-15.6-53.3-27
			c-23-2.4-38.9,5.7-43.9,30.4c0,0,0,0,0,0c-0.4,0.3-0.8,0.7-1.2,1.1c0,0,0,0,0,0c-1.8-21.7-11.1-46.7-22.2-62.6c0,0,0,0,0,0
			c0.5-0.2,1.5-0.6,2-0.7c0,0,0,0,0.1,0c28.7,2.6,48.8,21.5,65.6,31.7c19.2,2.6,18.6-11.1,18.7-12.8c0,0,0,0,0,0
			c0.3-0.1,0.6-0.3,0.9-0.4c0,0,0,0,0,0C350.2,68.3,363.3,83,377,93.9L377,93.9z"/>
		<path class="st0" d="M253.7,33.8c35.5-15.6,57.8,32,87.4,17c0.5,1,1,2.1,1.5,3.1c-27.7,13.5-50.9-31.4-87.2-17.8
			C254.8,35.3,254.3,34.5,253.7,33.8L253.7,33.8z"/>
		<path class="st0" d="M377.3,94.1c0.1,0.1,0.2,0.2,0.4,0.3c0.8,0.7,1.7,1.3,2.5,1.9c-24.4,9.2-48.7-40.4-102.3,7.2
			c-0.1-1.3-0.2-3.4-0.3-4.7c11.6-10.5,26.1-17.8,45.3-17.8C346.9,80.9,359,97.6,377.3,94.1L377.3,94.1z"/>
		<path class="st0" d="M174,76c0,3.6,0.3,4.7,1.1,6.2c1.3,2.7,3.8,4,7.6,4c3.3,0,6.5-1.4,7.9-4.2c1-2,1.3-4.3,1.3-7.1
			c0-7.6,0-19.6,0-19.6c0-0.6,0.5-1,1-1h0.5c0.6,0,1,0.5,1,1l0,19.6c0,3.5-0.5,6.2-1.6,8.2c-2,3.6-5.7,5.4-11.3,5.4
			c-5.5,0-9.2-1.8-11.2-5.3c-1.1-1.9-1.6-4.4-1.6-7.6l0-19.7c0-0.9,0.7-1.6,1.6-1.6h2c0.9,0,1.6,0.7,1.6,1.6V76L174,76z"/>
		<path class="st3" d="M148.6,69c0,0-2,0-2.7,0c-0.6,0-0.9,0.2-0.5,0.8c0.2,0.2,0.3,0.4,0.5,0.7c0.3,0.4,0.7,0.6,1,0.6
			c2.6,0.1,5.2,0.5,7.2,1.5c2.1,1.1,3.1,3,3.1,5.9c0,2.9-0.9,4.9-2.7,5.9c-1.8,1-4,1.5-6.6,1.5l-4.2-0.1V72.8l0-4.1l0-12.4l2.4,0
			c2.4,0,4.9,0.3,6.3,0.9c2.5,1.1,3.8,2.6,3.8,5.6c0,2.6-1.1,4.4-3.3,5.4C151.7,68.7,150.3,69,148.6,69L148.6,69z M147.9,54.4
			c4.1,0,7.4,0.7,9.8,2c2.4,1.3,3.6,3,3.6,6.3c0,2.4-0.8,4.3-2.5,5.5c-1,0.7-2.4,1.3-4.3,1.8c2.4,0.6,4.4,1.5,6,2.9
			c1.7,1.3,2.5,3.2,2.5,5.6c0,4-1.9,6.8-5.6,8.3c-2,0.8-4.4,1.2-7.2,1.2l-10.2,0c-0.9,0-1.6-0.7-1.6-1.6V56c0-0.9,0.7-1.6,1.6-1.6
			H147.9L147.9,54.4z"/>
		<path class="st0" d="M220.6,87.1c-3.1-4-7.3-9.5-11.7-15.4c-0.6-0.8-0.1-1.4,0.4-1.4c1.7,0,3.7-0.5,4.8-1c2.7-1.1,4-3.2,4-6.2
			c0-2.9-1.2-4.9-3.6-6c-1-0.4-1.9-0.7-5-0.8c-0.9,0-1.9,0-3.2,0v20.8v9.1c0,0.9-0.7,1.6-1.6,1.6h-2c-0.9,0-1.6-0.7-1.6-1.6V56
			c0-0.9,0.7-1.6,1.6-1.6l8.2,0c2.9,0,5.3,0.4,7.3,1.1c3.7,1.4,5.5,4,5.5,7.7c0,2.5-0.8,4.4-2.5,5.8c-1.6,1.3-3.8,2.2-6.7,2.7
			c0,0,6.1,7.7,11.5,14.4c0.8,1-0.1,1.7-1,1.7h-2.8C221.6,87.8,221.1,87.7,220.6,87.1L220.6,87.1z"/>
		<path class="st0" d="M258.4,56c0.5,0.2,0.8,0.7,0.6,1.1c-0.5,1.2-0.8,1.9-1.2,3c-0.1,0.4-0.7,0.3-1,0c-0.4-0.4-0.7-0.7-1.2-1.1
			c-2.8-2.4-5.2-3.5-8.9-3.2c-3.4,0.2-5.7,1.4-8,3.7c-2.5,2.5-3.7,6.5-3.7,12.1c0,4.7,1.2,8.3,3.7,10.9c2.5,2.6,5.5,3.9,9.1,3.9
			c0.6,0,1.3-0.1,2.1-0.2c0.8-0.1,1.6-0.3,2.3-0.5c1.2-0.4,1.7-0.6,2.7-1.2l0-13.1c0-0.9,0.7-1.6,1.6-1.6h1.7c0.9,0,1.6,0.7,1.6,1.6
			c0,0,0,7.4,0,12.4c0,0.5-0.2,0.9-0.6,1.2c-1.2,1-1.8,1.2-3.8,2c-2.9,1.1-5.7,1.5-8.4,1.5c-4.9,0-9.1-1.4-12.5-4.3
			c-3.7-3.2-5.6-7.4-5.6-12.8c0-4.7,1.4-8.8,4.5-12.1C242.6,49.8,256.2,54.9,258.4,56L258.4,56z"/>
		<path class="st0" d="M100.7,60.1l0,26.7c0,0.6-0.5,1-1,1h-0.5c-0.6,0-1-0.5-1-1l0-30.8c0-0.9,0.7-1.6,1.6-1.6h2.6
			c0.9,0,1.4,0.7,1.8,1.5l9.4,25.1l9.8-25.1c0.3-0.8,0.9-1.5,1.8-1.5h2.8c0.9,0,1.6,0.7,1.6,1.6v30.2c0,0.9-0.7,1.6-1.6,1.6h-2
			c-0.9,0-1.6-0.7-1.6-1.6V59.5c0,0-8.7,21.7-11,27.3c-0.6,1.4-2,1.4-2.6,0L100.7,60.1L100.7,60.1z"/>
		<path class="st0" d="M51.4,50.6c0-0.9,0.7-1.6,1.6-1.6h2c0.9,0,1.6,0.7,1.6,1.6v35.6c0,0.9-0.7,1.6-1.6,1.6h-2
			c-0.9,0-1.6-0.7-1.6-1.6V70.3H33.6v15.9c0,0.9-0.7,1.6-1.6,1.6h-2c-0.9,0-1.6-0.7-1.6-1.6V50.6c0-0.9,0.7-1.6,1.6-1.6h2
			c0.9,0,1.6,0.7,1.6,1.6v17.6h17.8V50.6L51.4,50.6z"/>
		<path class="st3" d="M81.7,74.8l-6.2-17.1l-6.2,17.1H81.7L81.7,74.8z M68.6,76.9c0,0-2.5,7-3.7,10.2c-0.2,0.4-0.5,0.7-1,0.7H63
			c-0.4,0-0.8-0.5-0.6-1C65.8,77.9,71.3,63,74,55.7c0.2-0.6,0.5-1.3,1.9-1.3h2.5c1.1,0,1.6,0.7,1.9,1.4c3.4,9.2,7.5,19.9,11.5,30.5
			c0.2,0.5,0.2,1.6-1.2,1.6l-2.5,0c-1.4,0-1.5-0.6-1.7-1.1c-1.4-3.3-3.8-9.8-3.8-9.8H68.6L68.6,76.9z"/>
		<path class="st3" d="M432.4,85.9c3.9,0,7.2-0.8,9.7-2.3c3.9-2.4,5.9-6.5,5.9-12.3c0-5.2-1.6-9.1-4.8-11.7c-2.8-2.2-6.4-3.4-11-3.4
			l-2.9,0.1l0,29.6L432.4,85.9L432.4,85.9z M433.3,54.4c4.6,0,8.5,0.8,11.6,2.3c5.7,2.7,8.6,7.6,8.6,14.6c0,2.5-0.5,4.9-1.6,7.2
			c-1,2.3-2.6,4.2-4.6,5.7c-1.3,1-2.7,1.7-4.1,2.2c-2.6,1-5.8,1.4-9.5,1.4l-8,0c-0.9,0-1.6-0.7-1.6-1.6V56c0-0.9,0.7-1.6,1.6-1.6
			L433.3,54.4L433.3,54.4z"/>
		<path class="st3" d="M398.4,50.1c0-1.4,1.1-2.5,2.5-2.5c1.4,0,2.5,1.1,2.5,2.5c0,1.4-1.1,2.5-2.5,2.5
			C399.5,52.6,398.4,51.4,398.4,50.1L398.4,50.1z M407.7,50.1c0-1.4,1.1-2.5,2.5-2.5s2.5,1.1,2.5,2.5c0,1.4-1.1,2.5-2.5,2.5
			S407.7,51.4,407.7,50.1L407.7,50.1z M396.7,76c0,3.6,0.3,4.7,1.1,6.2c1.3,2.7,3.8,4,7.6,4c3.3,0,6.5-1.4,7.9-4.2
			c1-2,1.3-4.3,1.3-7.1l0-19.6c0-0.6,0.5-1,1-1h0.5c0.6,0,1,0.5,1,1l0,19.6c0,3.5-0.5,6.2-1.6,8.2c-2,3.6-5.7,5.4-11.3,5.4
			c-5.5,0-9.2-1.8-11.2-5.3c-1.1-1.9-1.6-4.4-1.6-7.6l0-19.7c0-0.9,0.7-1.6,1.6-1.6h2c0.9,0,1.6,0.7,1.6,1.6V76L396.7,76z"/>
	</g>
	<g>
		<g>
			<path class="st0" d="M154.5,129.5h-7.1l-1.5,5.8h-1.4l4.2-16c0.1-0.3,0.3-0.4,0.5-0.4h3.4c0.3,0,0.4,0.1,0.5,0.4l4.2,16H156
				L154.5,129.5z M154.2,128.3l-2.1-8.2h-2.3l-2.1,8.2H154.2z"/>
			<path class="st0" d="M166.6,118.8h1.6l5.9,14.6l6-14.6h1.6v16.4h-1.3V121l-5.5,13.5c-0.1,0.3-0.3,0.4-0.5,0.4h-0.6
				c-0.2,0-0.4-0.1-0.5-0.4l-5.5-13.5v14.2h-1.2V118.8z"/>
			<path class="st0" d="M194.4,126.2v9.1h-1l-0.3-0.8c-1.6,0.6-2.9,1-4.2,1c-2.6,0-3.5-0.9-3.5-3.2c0-2.4,1.1-3.2,3.4-3.4l4.2-0.3
				v-2.5c0-1.3-0.3-2-3-2c-1.5,0-3.1,0.2-3.9,0.3v-1.2c0.8-0.1,2.3-0.4,3.9-0.4C193.4,122.8,194.4,123.7,194.4,126.2z M189.1,134.4
				c1.1,0,2.4-0.2,4-0.6v-4.2l-4.2,0.3c-1.8,0.1-2.1,0.8-2.1,2.3C186.8,134,187.3,134.4,189.1,134.4z"/>
			<path class="st0" d="M207.1,129.5H199c0.1,3.2,0.6,4.8,3.8,4.8c1.8,0,3.2-0.3,3.9-0.5v1.2c-0.7,0.3-2.2,0.6-3.8,0.6
				c-4.5,0-5.1-2.5-5.1-6.7c0-5.1,1.9-6,4.9-6c2.8,0,4.6,0.8,4.6,5V129.5z M205.9,127.4c0-2.6-1-3.4-3.1-3.4c-2.5,0-3.8,0.4-3.8,4.3
				h6.9V127.4z"/>
			<path class="st0" d="M216,122.8v1.5h-4.3v11h-1.3v-12.2h1.1l0.2,0.6L216,122.8z"/>
			<path class="st0" d="M217.6,134.9v-1.2c0.7,0.2,2,0.6,3.6,0.6c2.3,0,3-0.5,3-2.1c0-1.7-0.6-2.1-1.6-2.3l-2.5-0.6
				c-1.8-0.5-2.5-1.2-2.5-3.2c0-2.3,1.3-3.1,4-3.1c1.2,0,2.7,0.2,3.4,0.4v1.2c-1-0.2-2.2-0.4-3.4-0.4c-2,0-2.7,0.3-2.7,1.9
				c0,1.4,0.5,1.8,1.6,2l2.3,0.6c1.3,0.3,2.7,0.8,2.7,3.4c0,2.7-1.4,3.5-4.3,3.5C219.8,135.5,218.4,135.2,217.6,134.9z"/>
			<path class="st0" d="M235.8,135.3l-5.8-6.5v6.5h-1.3v-16.4h1.3v9.8l5.5-5.5h1.6l-5.6,5.6l6,6.6H235.8z"/>
			<path class="st0" d="M245,127c0-7.3,1.5-8.4,6.5-8.4c1.1,0,2.4,0.1,3.2,0.2v1.2c-0.8-0.1-2-0.2-3.2-0.2c-4.2,0-5.1,0.7-5.1,7.1
				c0,7.3,1.8,7.3,5.2,7.3c1.1,0,2.4-0.2,3.2-0.3v1.2c-0.8,0.1-2.1,0.3-3.3,0.3C247,135.5,245,134.9,245,127z"/>
			<path class="st0" d="M256.5,129.2c0-5.1,1.5-6.3,5.2-6.3c3.6,0,5.1,1.2,5.1,6.3c0,5.1-1.5,6.3-5.1,6.3
				C258,135.5,256.5,134.3,256.5,129.2z M265.5,129.2c0-4.3-0.9-5.1-3.8-5.1c-2.9,0-3.9,0.8-3.9,5.1c0,4.3,0.9,5.1,3.9,5.1
				C264.5,134.3,265.5,133.5,265.5,129.2z"/>
			<path class="st0" d="M286.9,125.9v9.3h-1.3v-9.1c0-1.5-0.6-2.1-2-2.1c-1.4,0-3.1,0.4-4.6,0.8c0.1,0.4,0.1,0.7,0.1,1.2v9.3H278
				v-9.1c0-1.5-0.6-2.1-2-2.1c-1.5,0-3.2,0.4-4.4,0.7v10.5h-1.3v-12.2h1.1l0.2,1c1.2-0.4,3.3-1.2,4.7-1.2c1.3,0,2.2,0.4,2.7,1.3
				c1.6-0.6,3.6-1.3,5.1-1.3C286,122.8,286.9,123.9,286.9,125.9z"/>
			<path class="st0" d="M300.5,129.5c0,5.2-1.9,6-4.6,6c-1.6,0-3-0.4-3.6-0.7v4.7h-1.3v-16.4h0.9l0.3,0.7c0.9-0.4,2.5-1,4-1
				C299.5,122.8,300.5,124.2,300.5,129.5z M292.3,124.5v9.2c0.7,0.3,2.1,0.6,3.5,0.6c2.1,0,3.4-0.4,3.4-4.8c0-4.3-0.7-5.4-3.3-5.4
				C294.7,124,293.1,124.3,292.3,124.5z"/>
			<path class="st0" d="M311.9,126.2v9.1h-1l-0.3-0.8c-1.6,0.6-2.9,1-4.2,1c-2.6,0-3.5-0.9-3.5-3.2c0-2.4,1.1-3.2,3.4-3.4l4.2-0.3
				v-2.5c0-1.3-0.3-2-3-2c-1.5,0-3.1,0.2-3.9,0.3v-1.2c0.8-0.1,2.3-0.4,3.9-0.4C311,122.8,311.9,123.7,311.9,126.2z M306.6,134.4
				c1.1,0,2.4-0.2,4-0.6v-4.2l-4.2,0.3c-1.8,0.1-2.1,0.8-2.1,2.3C304.4,134,304.9,134.4,306.6,134.4z"/>
			<path class="st0" d="M316,123.1h1.1l0.2,1c1.2-0.4,3.3-1.2,4.8-1.2c2.2,0,3.1,1.1,3.1,3.1v9.3h-1.3v-9.1c0-1.5-0.6-2.1-2.1-2.1
				c-1.5,0-3.3,0.4-4.5,0.7v10.5H316V123.1z"/>
			<path class="st0" d="M337.8,123.1l-6.3,16.4h-1.3l1.8-4.5l-4.7-12h1.3l4,10.6l3.8-10.6H337.8z"/>
		</g>
	</g>
</g>
</svg>
