<?xml version="1.0" encoding="utf-8"?>
<!-- Generator: Adobe Illustrator 24.0.1, SVG Export Plug-In . SVG Version: 6.00 Build 0)  -->
<svg version="1.1" id="Layer_1" xmlns="http://www.w3.org/2000/svg" xmlns:xlink="http://www.w3.org/1999/xlink" x="0px" y="0px"
	 viewBox="0 0 96 96" style="enable-background:new 0 0 96 96;" xml:space="preserve">
<style type="text/css">
	.st0{fill:#00243D;}
</style>
<g>
	<g>
		<path class="st0" d="M54.3,67L54.3,67L54.3,67L54.3,67C54.2,67,54.2,67,54.3,67z"/>
		<path class="st0" d="M63,55.7C63,55.7,63,55.7,63,55.7C63,55.7,63,55.7,63,55.7L63,55.7z"/>
	</g>
	<path class="st0" d="M18.7,64.9c-0.1-0.1-0.2-0.2-0.3-0.3c-0.3-0.2-0.5-0.5-0.8-0.7c-0.1-0.1-0.2-0.2-0.3-0.3
		c-0.1-0.1-0.2-0.2-0.2-0.2l-0.9,1.9l0.9,0.9c0.2,0.1,0.3,0.3,0.5,0.4c0.1,0.1,0.2,0.2,0.3,0.3L18.7,64.9
		C18.8,64.9,18.8,64.9,18.7,64.9z M54.2,67L54.2,67L54.2,67L54.2,67C54.2,67,54.2,67,54.2,67z M63,55.7C63,55.7,63,55.7,63,55.7
		C63,55.7,63,55.7,63,55.7L63,55.7z"/>
	<path class="st0" d="M86.7,41.2h-9.9c-1.3,0-2.4,1.1-2.4,2.4v12H63.1c0.1-0.2,0.1-0.3,0.2-0.4c1.5-3.5,2.3-7.4,2.3-11.5
		c0.2-16-13-29.2-29.2-29.2S6.9,27.7,6.9,43.9c0,8.4,3.5,15.9,9.1,21.2c0.1,0.1,0.2,0.2,0.3,0.3c0.1,0.1,0.2,0.2,0.3,0.3
		c0.2,0.2,0.4,0.4,0.6,0.6c0.2,0.1,0.3,0.3,0.5,0.4c0.1,0.1,0.2,0.2,0.3,0.3c5,4,11.3,6.3,18.2,6.3c5.7,0,11.1-1.6,15.6-4.5
		c0,0,0.4-0.3,0.6-0.4v11c0,1.2,1,2.2,2.2,2.2h26.7c1.2,0,2.2-1,2.2-2.2V56.9c0-0.7-0.6-1.3-1.3-1.3h-6V43.1h11v9.1h1.8v-8.6
		C89.1,42.3,88,41.3,86.7,41.2z M52.4,66.1c-0.5,0.4-1.1,0.8-1.6,1.1c-4.2,2.6-9.2,4.2-14.5,4.2c-6.6,0-12.6-2.3-17.3-6.2
		c-0.1-0.1-0.2-0.2-0.2-0.2L18,66.8c-0.1-0.1-0.2-0.2-0.3-0.3c-0.2-0.1-0.3-0.3-0.5-0.4l-0.9-0.9l0.9-1.9c0,0,0,0-0.1-0.1
		c-5-5.1-8-11.9-8-19.4c0-15.1,12.3-27.3,27.3-27.3s27.3,12.3,27.3,27.3c0,3.9-0.8,7.6-2.3,11c-0.3,0.5-0.5,1.1-0.8,1.6
		c-1.4,2.6-3.1,5-5.2,7c-0.1,0.1-0.2,0.2-0.3,0.3l0,0L55,63.6l-5.8-13.4c-0.4-1.1-1.4-1.7-2.5-1.7H25.3c-1.1,0-2.1,0.7-2.5,1.7
		l-5.6,13l0,0.1c0.1,0.1,0.2,0.2,0.2,0.2c0.1,0.1,0.2,0.2,0.3,0.3c0.3,0.2,0.5,0.5,0.8,0.7c0.1,0.1,0.2,0.2,0.3,0.3c0,0,0,0,0.1,0.1
		l0.1-0.1l6.1-14h22l6.2,14.3l0.1,0.3C53,65.6,52.7,65.9,52.4,66.1z M63,55.7C63,55.7,63,55.7,63,55.7C63,55.7,63,55.7,63,55.7
		L63,55.7z M81.7,57.4v22.3H54.3V67l0,0l0,0c0,0,0,0,0,0v0c0.1-0.1,0.3-0.2,0.4-0.3c0.4-0.3,0.8-0.6,1.2-1c0.1-0.1,0.2-0.2,0.3-0.3
		c2.3-2.1,4.3-4.7,5.8-7.5c0,0,0.1-0.2,0.3-0.5H81.7z"/>
	<g>
		<g>
			<path class="st0" d="M42.1,26.2H30c-1.4,0-2.6,1.2-2.6,2.6v12.1c0,1.4,1.2,2.6,2.6,2.6h12.1c1.4,0,2.6-1.2,2.6-2.6V28.8
				C44.7,27.4,43.5,26.2,42.1,26.2z M42.5,41.3H29.6V28.5h12.8L42.5,41.3L42.5,41.3z"/>
		</g>
		<g>
			<path class="st0" d="M18.8,64.9L18,66.8c-0.1-0.1-0.2-0.2-0.3-0.3c-0.2-0.1-0.3-0.3-0.5-0.4l-0.9-0.9l0.9-1.9
				c0.1,0.1,0.2,0.2,0.2,0.2c0.1,0.1,0.2,0.2,0.3,0.3c0.3,0.2,0.5,0.5,0.8,0.7C18.5,64.7,18.6,64.8,18.8,64.9
				C18.8,64.9,18.8,64.9,18.8,64.9z"/>
		</g>
	</g>
	<g>
		<path class="st0" d="M68.1,61.4c-2.5,0-4.6,2-4.6,4.6c0,2.1,1.4,3.8,3.2,4.4c0.1,0,0.3,0.1,0.4,0.1v3.8H69v-3.8
			c0.1,0,0.3-0.1,0.4-0.1c1.9-0.6,3.2-2.3,3.2-4.4C72.6,63.4,70.6,61.4,68.1,61.4z M69.4,68.4c-0.4,0.2-0.8,0.3-1.3,0.3
			s-0.9-0.1-1.3-0.3C66,67.9,65.4,67,65.4,66c0-1.5,1.2-2.7,2.7-2.7s2.7,1.2,2.7,2.7C70.8,67,70.2,67.9,69.4,68.4z"/>
	</g>
</g>
</svg>
