<svg id="Layer_1" data-name="Layer 1" xmlns="http://www.w3.org/2000/svg" viewBox="0 0 115.13 25.66"><defs><style>.cls-1{fill:#69b8d6;}.cls-2{fill:#fff;}</style></defs><title>logo</title><polygon points="35.06 12.03 35.06 0.76 38.06 0.76 41.86 9.18 45.6 0.76 48.47 0.76 48.47 12.03 46 12.03 46 5.47 43.15 12.03 40.51 12.03 37.62 5.51 37.62 12.03 35.06 12.03"/><path d="M76.69,37.57H73.78l5-11.27h3.58l5,11.27H84.52l-1-2.25-5.88,0Zm5.94-4.36-2.07-4.78-2,4.78h4.09Z" transform="translate(-24.2 -25.54)"/><polygon points="64.35 12.03 64.35 0.76 75.11 0.76 75.11 3.01 66.95 3.01 66.95 5.25 73.94 5.25 73.94 7.45 66.95 7.45 66.95 9.78 75.13 9.78 75.13 12.03 64.35 12.03"/><path d="M101.42,37.57V26.3h9a1.73,1.73,0,0,1,1.9,1.89V32c0,0.87-.77,1.66-2.27,1.66H109.8l2.62,3.93h-2.89L107,33.72h-3v3.85h-2.64Zm2.64-6.09h5.65V28.55h-5.65v2.92Z" transform="translate(-24.2 -25.54)"/><path d="M117.07,37.58h-0.89a1.54,1.54,0,0,1-1.73-1.65V34.45h2.62v0.87h5.56V33h-6.38a1.64,1.64,0,0,1-1.75-1.63V28a1.72,1.72,0,0,1,1.77-1.73h7.29a1.65,1.65,0,0,1,1.67,1.79v1.35h-2.6V28.56h-5.56v2.22h6.36a1.72,1.72,0,0,1,1.8,1.82v3.22a1.59,1.59,0,0,1-1.74,1.76h-6.42Z" transform="translate(-24.2 -25.54)"/><polygon points="103.54 12.04 103.54 0.77 106.21 0.77 106.21 5.27 111.3 0.77 114.91 0.77 108.84 6 115.13 12.04 111.39 12.04 106.21 6.91 106.21 12.04 103.54 12.04"/><path d="M62.88,42.61a0.09,0.09,0,0,0-.09-0.09H59.34a0.09,0.09,0,0,1-.09-0.09v-1a0.09,0.09,0,0,1,.09-0.09h8.39a0.09,0.09,0,0,1,.09.09v1a0.09,0.09,0,0,1-.09.09H64.27a0.09,0.09,0,0,0-.09.09v7.64a0.09,0.09,0,0,1-.09.09H63a0.09,0.09,0,0,1-.09-0.09V42.61Z" transform="translate(-24.2 -25.54)"/><path d="M70.47,46.67a0.09,0.09,0,0,0-.09.09v3.5a0.09,0.09,0,0,1-.09.09H69.18a0.09,0.09,0,0,1-.09-0.09V41.47a0.09,0.09,0,0,1,.09-0.09h6.35A1.47,1.47,0,0,1,77.16,43v2a1.4,1.4,0,0,1-1.46,1.61H75.38c-0.1,0-.13,0-0.09.09l2.13,3.47c0,0.09,0,.14-0.06.14H76.07a0.15,0.15,0,0,1-.13-0.09l-2.09-3.5a0.14,0.14,0,0,0-.12-0.09H70.47Zm-0.09-1.19a0.09,0.09,0,0,0,.09.09h4.78A0.53,0.53,0,0,0,75.86,45V43a0.51,0.51,0,0,0-.61-0.5H70.47a0.09,0.09,0,0,0-.09.09v2.87Z" transform="translate(-24.2 -25.54)"/><path d="M83.75,41.38a0.18,0.18,0,0,1,.15.12L88,50.24s0,0,0,0a0.06,0.06,0,0,1-.06.06h-1.2a0.18,0.18,0,0,1-.15-0.12l-1-2.2H80.32l-1,2.2a0.18,0.18,0,0,1-.15.12H78a0.06,0.06,0,0,1-.06-0.06,0,0,0,0,1,0,0l4.13-8.74a0.18,0.18,0,0,1,.15-0.12h1.52Zm-2.92,5.56H85.1L83,42.29Z" transform="translate(-24.2 -25.54)"/><path d="M90.36,41.38a0.09,0.09,0,0,1,.09.09v8.78a0.09,0.09,0,0,1-.09.09H89.25a0.09,0.09,0,0,1-.09-0.09V41.47a0.09,0.09,0,0,1,.09-0.09h1.11Z" transform="translate(-24.2 -25.54)"/><path d="M101,41.38a0.09,0.09,0,0,1,.09.09v8.78a0.09,0.09,0,0,1-.09.09H99.79a0.33,0.33,0,0,1-.26-0.13l-5.78-7.28v7.32a0.09,0.09,0,0,1-.09.09H92.59a0.09,0.09,0,0,1-.09-0.09V41.47a0.09,0.09,0,0,1,.09-0.09H94a0.16,0.16,0,0,1,.13.06l5.72,7.22v-7.2a0.09,0.09,0,0,1,.09-0.09H101Z" transform="translate(-24.2 -25.54)"/><path d="M104.35,41.38a0.09,0.09,0,0,1,.09.09v8.78a0.09,0.09,0,0,1-.09.09h-1.11a0.09,0.09,0,0,1-.09-0.09V41.47a0.09,0.09,0,0,1,.09-0.09h1.11Z" transform="translate(-24.2 -25.54)"/><path d="M115,41.38a0.09,0.09,0,0,1,.09.09v8.78a0.09,0.09,0,0,1-.09.09h-1.23a0.33,0.33,0,0,1-.26-0.13l-5.78-7.28v7.32a0.09,0.09,0,0,1-.09.09h-1.08a0.09,0.09,0,0,1-.09-0.09V41.47a0.09,0.09,0,0,1,.09-0.09H108a0.16,0.16,0,0,1,.13.06l5.72,7.22v-7.2a0.09,0.09,0,0,1,.09-0.09H115Z" transform="translate(-24.2 -25.54)"/><path d="M125.32,48.7a1.47,1.47,0,0,1-1.62,1.64h-5.06A1.48,1.48,0,0,1,117,48.7V43a1.48,1.48,0,0,1,1.63-1.64h5.06A1.47,1.47,0,0,1,125.32,43v1a0.09,0.09,0,0,1-.09.09h-1.11A0.09,0.09,0,0,1,124,44V43a0.41,0.41,0,0,0-.49-0.5h-4.75a0.41,0.41,0,0,0-.49.5V48.7a0.41,0.41,0,0,0,.49.5h4.75a0.41,0.41,0,0,0,.49-0.5V46.63a0.09,0.09,0,0,0-.09-0.09h-1.79a0.09,0.09,0,0,1-.09-0.09V45.52a0.09,0.09,0,0,1,.09-0.09h3.08a0.09,0.09,0,0,1,.09.09V48.7Z" transform="translate(-24.2 -25.54)"/><rect class="cls-1" width="24.32" height="25.66" rx="2.93" ry="2.93"/><polygon class="cls-2" points="16.04 12.16 20.84 6.15 20.82 6.13 13.88 9.47 12.17 1.96 12.15 1.96 10.43 9.47 3.5 6.13 3.48 6.15 8.28 12.16 1.35 15.51 1.35 15.53 9.05 15.53 7.34 23.03 7.36 23.04 12.16 17.03 16.96 23.04 16.98 23.03 15.27 15.53 22.96 15.53 22.97 15.51 16.04 12.16"/></svg>