<?xml version="1.0" encoding="UTF-8"?>
<svg width="421px" height="55px" viewBox="0 0 421 55" version="1.1" xmlns="http://www.w3.org/2000/svg" xmlns:xlink="http://www.w3.org/1999/xlink">
    <!-- Generator: Sketch 51.1 (57501) - http://www.bohemiancoding.com/sketch -->
    <title>maersk-container-industry</title>
    <desc>Created with Sketch.</desc>
    <defs>
        <polygon id="path-1" points="0 54.4258 420.821 54.4258 420.821 -0.0002 0 -0.0002"></polygon>
    </defs>
    <g id="Brand-Logos" stroke="none" stroke-width="1" fill="none" fill-rule="evenodd">
        <g id="Artboard" transform="translate(-72.000000, -135.000000)">
            <g id="maersk-container-industry" transform="translate(72.000000, 135.000000)">
                <path d="M89.4585,37.1151 C89.4585,36.3471 89.1845,36.0471 88.4165,36.0471 L79.0715,36.0471 C78.3045,36.0471 78.0305,36.3471 78.0305,37.1151 L78.0305,49.2831 C78.0305,50.0511 78.3045,50.3511 79.0715,50.3511 L88.4165,50.3511 C89.1845,50.3511 89.4585,50.0511 89.4585,49.2831 L89.4585,47.2561 C89.4585,47.1461 89.5405,47.0641 89.6505,47.0641 L92.0345,47.0641 C92.1445,47.0641 92.2265,47.1461 92.2265,47.2561 L92.2265,49.2831 C92.2265,51.5311 90.9935,52.7911 88.7465,52.7911 L78.7435,52.7911 C76.4965,52.7911 75.2625,51.5311 75.2625,49.2831 L75.2625,37.1151 C75.2625,34.8691 76.4965,33.6071 78.7435,33.6071 L88.7465,33.6071 C90.9935,33.6071 92.2265,34.8691 92.2265,37.1151 L92.2265,39.1441 C92.2265,39.2541 92.1445,39.3361 92.0345,39.3361 L89.6505,39.3361 C89.5405,39.3361 89.4585,39.2541 89.4585,39.1441 L89.4585,37.1151 Z" id="Fill-1" fill="#000000"></path>
                <path d="M99.6489,49.2831 C99.6489,50.0511 99.9229,50.3511 100.6899,50.3511 L110.9669,50.3511 C111.7339,50.3511 112.0079,50.0511 112.0079,49.2831 L112.0079,37.1151 C112.0079,36.3471 111.7339,36.0471 110.9669,36.0471 L100.6899,36.0471 C99.9229,36.0471 99.6489,36.3471 99.6489,37.1151 L99.6489,49.2831 Z M111.2959,33.6071 C113.5429,33.6071 114.7759,34.8691 114.7759,37.1151 L114.7759,49.2831 C114.7759,51.5311 113.5429,52.7911 111.2959,52.7911 L100.3609,52.7911 C98.1139,52.7911 96.8809,51.5311 96.8809,49.2831 L96.8809,37.1151 C96.8809,34.8691 98.1139,33.6071 100.3609,33.6071 L111.2959,33.6071 Z" id="Fill-3" fill="#000000"></path>
                <path d="M138.4771,33.6073 C138.5871,33.6073 138.6691,33.6893 138.6691,33.8003 L138.6691,52.5993 C138.6691,52.7093 138.5871,52.7913 138.4771,52.7913 L135.8461,52.7913 C135.6271,52.7913 135.4351,52.6813 135.2981,52.5173 L122.9381,36.9233 L122.9381,52.5993 C122.9381,52.7093 122.8561,52.7913 122.7471,52.7913 L120.4451,52.7913 C120.3351,52.7913 120.2531,52.7093 120.2531,52.5993 L120.2531,33.8003 C120.2531,33.6893 120.3351,33.6073 120.4451,33.6073 L123.4591,33.6073 C123.5691,33.6073 123.6791,33.6623 123.7331,33.7463 L135.9831,49.2013 L135.9831,33.8003 C135.9831,33.6893 136.0651,33.6073 136.1751,33.6073 L138.4771,33.6073 Z" id="Fill-5" fill="#000000"></path>
                <path d="M149.7358,36.2382 C149.7358,36.1292 149.6538,36.0472 149.5438,36.0472 L142.1448,36.0472 C142.0348,36.0472 141.9528,35.9652 141.9528,35.8552 L141.9528,33.8002 C141.9528,33.6892 142.0348,33.6072 142.1448,33.6072 L160.0948,33.6072 C160.2048,33.6072 160.2868,33.6892 160.2868,33.8002 L160.2868,35.8552 C160.2868,35.9652 160.2048,36.0472 160.0948,36.0472 L152.6948,36.0472 C152.5858,36.0472 152.5038,36.1292 152.5038,36.2382 L152.5038,52.5992 C152.5038,52.7092 152.4218,52.7912 152.3118,52.7912 L149.9278,52.7912 C149.8178,52.7912 149.7358,52.7092 149.7358,52.5992 L149.7358,36.2382 Z" id="Fill-7" fill="#000000"></path>
                <path d="M163.9839,45.5018 L173.1369,45.5018 L168.5879,35.5548 L163.9839,45.5018 Z M170.2329,33.6068 C170.3969,33.6068 170.4789,33.7168 170.5609,33.8558 L179.3849,52.5718 C179.3849,52.5998 179.4129,52.6268 179.4129,52.6538 C179.4129,52.7358 179.3579,52.7908 179.2759,52.7908 L176.6999,52.7908 C176.5629,52.7908 176.4259,52.6818 176.3719,52.5448 L174.2059,47.8318 L162.8869,47.8318 L160.7229,52.5448 C160.6679,52.6818 160.5309,52.7908 160.3939,52.7908 L157.9009,52.7908 C157.8179,52.7908 157.7629,52.7358 157.7629,52.6538 C157.7629,52.6268 157.7629,52.5998 157.7909,52.5718 L166.6429,33.8558 C166.7249,33.7168 166.8069,33.6068 166.9709,33.6068 L170.2329,33.6068 Z" id="Fill-9" fill="#000000"></path>
                <path d="M185.4927,33.6073 C185.6017,33.6073 185.6837,33.6893 185.6837,33.8003 L185.6837,52.5993 C185.6837,52.7093 185.6017,52.7913 185.4927,52.7913 L183.1077,52.7913 C182.9987,52.7913 182.9167,52.7093 182.9167,52.5993 L182.9167,33.8003 C182.9167,33.6893 182.9987,33.6073 183.1077,33.6073 L185.4927,33.6073 Z" id="Fill-11" fill="#000000"></path>
                <path d="M209.3872,33.6073 C209.4962,33.6073 209.5782,33.6893 209.5782,33.8003 L209.5782,52.5993 C209.5782,52.7093 209.4962,52.7913 209.3872,52.7913 L206.7562,52.7913 C206.5372,52.7913 206.3462,52.6813 206.2092,52.5173 L193.8482,36.9233 L193.8482,52.5993 C193.8482,52.7093 193.7662,52.7913 193.6572,52.7913 L191.3562,52.7913 C191.2442,52.7913 191.1622,52.7093 191.1622,52.5993 L191.1622,33.8003 C191.1622,33.6893 191.2442,33.6073 191.3562,33.6073 L194.3692,33.6073 C194.4792,33.6073 194.5882,33.6623 194.6432,33.7463 L206.8932,49.2013 L206.8932,33.8003 C206.8932,33.6893 206.9752,33.6073 207.0862,33.6073 L209.3872,33.6073 Z" id="Fill-13" fill="#000000"></path>
                <path d="M217.8247,41.8847 C217.8247,41.9937 217.9067,42.0757 218.0157,42.0757 L228.9497,42.0757 C229.0587,42.0757 229.1407,42.1577 229.1407,42.2677 L229.1407,44.2697 C229.1407,44.3787 229.0587,44.4607 228.9497,44.4607 L218.0157,44.4607 C217.9067,44.4607 217.8247,44.5427 217.8247,44.6527 L217.8247,50.1597 C217.8247,50.2697 217.9067,50.3517 218.0157,50.3517 L231.1707,50.3517 C231.2797,50.3517 231.3617,50.4357 231.3617,50.5447 L231.3617,52.5997 C231.3617,52.7087 231.2797,52.7907 231.1707,52.7907 L215.2487,52.7907 C215.1367,52.7907 215.0547,52.7087 215.0547,52.5997 L215.0547,33.8007 C215.0547,33.6897 215.1367,33.6077 215.2487,33.6077 L231.0607,33.6077 C231.1707,33.6077 231.2527,33.6897 231.2527,33.8007 L231.2527,35.8557 C231.2527,35.9647 231.1707,36.0467 231.0607,36.0467 L218.0157,36.0467 C217.9067,36.0467 217.8247,36.1287 217.8247,36.2387 L217.8247,41.8847 Z" id="Fill-15" fill="#000000"></path>
                <path d="M238.2368,42.3768 C238.2368,42.4858 238.3188,42.5698 238.4278,42.5698 L248.6508,42.5698 C249.4188,42.5698 249.9658,42.1858 249.9658,41.4178 L249.9658,37.1148 C249.9658,36.3478 249.4188,36.0468 248.6508,36.0468 L238.4278,36.0468 C238.3188,36.0468 238.2368,36.1288 238.2368,36.2378 L238.2368,42.3768 Z M238.4278,44.9258 C238.3188,44.9258 238.2368,45.0078 238.2368,45.1168 L238.2368,52.5998 C238.2368,52.7088 238.1548,52.7908 238.0458,52.7908 L235.6608,52.7908 C235.5508,52.7908 235.4688,52.7088 235.4688,52.5998 L235.4688,33.8008 C235.4688,33.6888 235.5508,33.6068 235.6608,33.6068 L249.2528,33.6068 C251.5008,33.6068 252.7328,34.8688 252.7328,37.1148 L252.7328,41.4178 C252.7328,43.5568 251.6648,44.8708 249.6098,44.8708 L248.9248,44.8708 C248.7058,44.8708 248.6508,44.9258 248.7328,45.0628 L253.2818,52.4898 C253.3638,52.6818 253.2818,52.7908 253.1448,52.7908 L250.4048,52.7908 C250.2958,52.7908 250.1838,52.7088 250.1298,52.5998 L245.6628,45.1168 C245.6078,45.0078 245.5258,44.9258 245.4168,44.9258 L238.4278,44.9258 Z" id="Fill-17" fill="#000000"></path>
                <path d="M267.1431,33.6073 C267.2521,33.6073 267.3341,33.6893 267.3341,33.8003 L267.3341,52.5993 C267.3341,52.7093 267.2521,52.7913 267.1431,52.7913 L264.7581,52.7913 C264.6491,52.7913 264.5671,52.7093 264.5671,52.5993 L264.5671,33.8003 C264.5671,33.6893 264.6491,33.6073 264.7581,33.6073 L267.1431,33.6073 Z" id="Fill-19" fill="#000000"></path>
                <path d="M291.0376,33.6073 C291.1466,33.6073 291.2286,33.6893 291.2286,33.8003 L291.2286,52.5993 C291.2286,52.7093 291.1466,52.7913 291.0376,52.7913 L288.4066,52.7913 C288.1876,52.7913 287.9966,52.6813 287.8596,52.5173 L275.4986,36.9233 L275.4986,52.5993 C275.4986,52.7093 275.4166,52.7913 275.3076,52.7913 L273.0066,52.7913 C272.8946,52.7913 272.8126,52.7093 272.8126,52.5993 L272.8126,33.8003 C272.8126,33.6893 272.8946,33.6073 273.0066,33.6073 L276.0196,33.6073 C276.1296,33.6073 276.2386,33.6623 276.2936,33.7463 L288.5436,49.2013 L288.5436,33.8003 C288.5436,33.6893 288.6256,33.6073 288.7366,33.6073 L291.0376,33.6073 Z" id="Fill-21" fill="#000000"></path>
                <path d="M299.6665,36.0468 C299.5555,36.0468 299.4735,36.1288 299.4735,36.2378 L299.4735,50.1598 C299.4735,50.2698 299.5555,50.3518 299.6665,50.3518 L309.2565,50.3518 C311.0665,50.3518 311.6685,49.7228 311.6685,47.9138 L311.6685,38.4858 C311.6685,36.6778 311.0665,36.0468 309.2565,36.0468 L299.6665,36.0468 Z M309.5865,33.6078 C312.8755,33.6078 314.4365,35.1968 314.4365,38.4858 L314.4365,47.9138 C314.4365,51.2008 312.8755,52.7908 309.5865,52.7908 L296.8965,52.7908 C296.7875,52.7908 296.7055,52.7088 296.7055,52.5998 L296.7055,33.8008 C296.7055,33.6898 296.7875,33.6078 296.8965,33.6078 L309.5865,33.6078 Z" id="Fill-23" fill="#000000"></path>
                <path d="M323.1196,52.7909 C320.8736,52.7909 319.6396,51.5309 319.6396,49.2829 L319.6396,33.8009 C319.6396,33.6889 319.7216,33.6069 319.8326,33.6069 L322.2156,33.6069 C322.3246,33.6069 322.4086,33.6889 322.4086,33.8009 L322.4086,49.2829 C322.4086,50.0509 322.6826,50.3519 323.4496,50.3519 L332.6296,50.3519 C333.3966,50.3519 333.6706,50.0509 333.6706,49.2829 L333.6706,33.8009 C333.6706,33.6889 333.7526,33.6069 333.8636,33.6069 L336.2466,33.6069 C336.3556,33.6069 336.4396,33.6889 336.4396,33.8009 L336.4396,49.2829 C336.4396,51.5309 335.2056,52.7909 332.9596,52.7909 L323.1196,52.7909 Z" id="Fill-25" fill="#000000"></path>
                <path d="M354.6587,41.912 C356.9067,41.912 358.1387,43.172 358.1387,45.42 L358.1387,49.283 C358.1387,51.531 356.9067,52.791 354.6587,52.791 L344.6567,52.791 C342.4087,52.791 341.1767,51.531 341.1767,49.283 L341.1767,48.023 C341.1767,47.914 341.2587,47.832 341.3677,47.832 L343.7527,47.832 C343.8617,47.832 343.9437,47.914 343.9437,48.023 L343.9437,49.283 C343.9437,50.051 344.2177,50.351 344.9847,50.351 L354.3307,50.351 C355.0977,50.351 355.3717,50.051 355.3717,49.283 L355.3717,45.42 C355.3717,44.652 355.0977,44.351 354.3307,44.351 L344.8477,44.351 C342.5997,44.351 341.3677,43.09 341.3677,40.844 L341.3677,37.115 C341.3677,34.869 342.5997,33.607 344.8477,33.607 L354.4397,33.607 C356.6857,33.607 357.9207,34.869 357.9207,37.115 L357.9207,38.432 C357.9207,38.541 357.8387,38.623 357.7287,38.623 L355.3447,38.623 C355.2347,38.623 355.1527,38.541 355.1527,38.432 L355.1527,37.115 C355.1527,36.348 354.8777,36.047 354.1117,36.047 L345.1767,36.047 C344.4087,36.047 344.1357,36.348 344.1357,37.115 L344.1357,40.844 C344.1357,41.609 344.4087,41.912 345.1767,41.912 L354.6587,41.912 Z" id="Fill-27" fill="#000000"></path>
                <path d="M367.9185,36.2382 C367.9185,36.1292 367.8365,36.0472 367.7275,36.0472 L360.3285,36.0472 C360.2195,36.0472 360.1375,35.9652 360.1375,35.8552 L360.1375,33.8002 C360.1375,33.6892 360.2195,33.6072 360.3285,33.6072 L378.2775,33.6072 C378.3875,33.6072 378.4695,33.6892 378.4695,33.8002 L378.4695,35.8552 C378.4695,35.9652 378.3875,36.0472 378.2775,36.0472 L370.8795,36.0472 C370.7705,36.0472 370.6885,36.1292 370.6885,36.2382 L370.6885,52.5992 C370.6885,52.7092 370.6045,52.7912 370.4945,52.7912 L368.1115,52.7912 C368.0005,52.7912 367.9185,52.7092 367.9185,52.5992 L367.9185,36.2382 Z" id="Fill-29" fill="#000000"></path>
                <path d="M385.0708,42.3768 C385.0708,42.4858 385.1528,42.5698 385.2638,42.5698 L395.4848,42.5698 C396.2528,42.5698 396.8008,42.1858 396.8008,41.4178 L396.8008,37.1148 C396.8008,36.3478 396.2528,36.0468 395.4848,36.0468 L385.2638,36.0468 C385.1528,36.0468 385.0708,36.1288 385.0708,36.2378 L385.0708,42.3768 Z M385.2638,44.9258 C385.1528,44.9258 385.0708,45.0078 385.0708,45.1168 L385.0708,52.5998 C385.0708,52.7088 384.9888,52.7908 384.8798,52.7908 L382.4948,52.7908 C382.3848,52.7908 382.3028,52.7088 382.3028,52.5998 L382.3028,33.8008 C382.3028,33.6888 382.3848,33.6068 382.4948,33.6068 L396.0888,33.6068 C398.3348,33.6068 399.5688,34.8688 399.5688,37.1148 L399.5688,41.4178 C399.5688,43.5568 398.5008,44.8708 396.4438,44.8708 L395.7588,44.8708 C395.5398,44.8708 395.4848,44.9258 395.5668,45.0628 L400.1158,52.4898 C400.1998,52.6818 400.1158,52.7908 399.9788,52.7908 L397.2388,52.7908 C397.1298,52.7908 397.0198,52.7088 396.9658,52.5998 L392.4988,45.1168 C392.4438,45.0078 392.3618,44.9258 392.2508,44.9258 L385.2638,44.9258 Z" id="Fill-31" fill="#000000"></path>
                <path d="M401.729,33.8827 C401.62,33.7167 401.784,33.6077 401.893,33.6077 L404.442,33.6077 C404.606,33.6077 404.772,33.6617 404.936,33.9097 L411.239,43.2537 L417.76,33.8007 C417.844,33.6617 417.954,33.6077 418.09,33.6077 L420.666,33.6077 C420.831,33.6077 420.858,33.6897 420.776,33.8007 L412.61,45.8027 L412.61,52.5997 C412.61,52.7087 412.526,52.7907 412.417,52.7907 L410.034,52.7907 C409.924,52.7907 409.84,52.7087 409.84,52.5997 L409.84,45.7477 L401.729,33.8827 Z" id="Fill-33" fill="#000000"></path>
                <polygon id="Fill-35" fill="#000000" points="74.5088 25.5116 74.5088 1.5346 80.8878 1.5346 88.9718 19.4526 96.9378 1.5346 103.0488 1.5346 103.0488 25.5116 97.7878 25.5116 97.7878 11.5636 91.7178 25.5116 86.1098 25.5116 79.9618 11.6406 79.9618 25.5116"></polygon>
                <path d="M124.2202,16.2284 L119.8192,6.0664 L115.5182,16.2284 L124.2202,16.2284 Z M111.5832,25.5114 L105.3952,25.5114 L116.0312,1.5354 L123.6482,1.5354 L134.3592,25.5114 L128.2512,25.5114 L126.1442,20.7364 L113.6262,20.7364 L111.5832,25.5114 Z" id="Fill-37" fill="#000000"></path>
                <polygon id="Fill-39" fill="#000000" points="136.8257 25.5116 136.8257 1.5346 159.7177 1.5346 159.7177 6.3296 142.3547 6.3296 142.3547 11.0916 157.2417 11.0916 157.2417 15.7716 142.3547 15.7716 142.3547 20.7166 159.7597 20.7166 159.7597 25.5116"></polygon>
                <mask id="mask-2" fill="white">
                    <use xlink:href="#path-1"></use>
                </mask>
                <g id="Clip-42"></g>
                <path d="M169.82,12.5448 L181.847,12.5448 L181.847,6.3298 L169.82,6.3298 L169.82,12.5448 Z M164.212,25.5118 L164.212,1.5348 L183.369,1.5348 C185.927,1.5348 187.414,3.0178 187.414,5.5568 L187.414,13.6108 C187.414,15.4648 185.773,17.1408 182.591,17.1408 C182.412,17.1488 182.228,17.1408 182.039,17.1408 L187.615,25.5118 L181.46,25.5118 L176.173,17.3148 L169.82,17.3148 L169.82,25.5118 L164.212,25.5118 Z" id="Fill-41" fill="#000000" mask="url(#mask-2)"></path>
                <path d="M197.5005,25.5253 L195.6035,25.5253 C193.1245,25.5253 191.9315,24.0933 191.9315,22.0093 L191.9315,18.8773 L197.5005,18.8773 L197.5005,20.7323 L209.3335,20.7323 L209.3335,15.8243 L195.7605,15.8243 C193.5935,15.8243 192.0325,14.3673 192.0325,12.3453 L192.0325,5.2263 C192.0325,3.0723 193.7315,1.5503 195.7985,1.5503 L211.3145,1.5503 C213.4115,1.5503 214.8625,3.1153 214.8625,5.3793 L214.8625,8.2403 L209.3335,8.2403 L209.3335,6.3443 L197.5005,6.3443 L197.5005,11.0663 L211.0345,11.0663 C213.0325,11.0663 214.8625,12.3883 214.8625,14.9333 L214.8625,21.7773 C214.8625,24.1073 213.5695,25.5253 211.1515,25.5253 L197.5005,25.5253 Z" id="Fill-43" fill="#000000" mask="url(#mask-2)"></path>
                <polygon id="Fill-44" fill="#000000" mask="url(#mask-2)" points="220.2065 25.5253 220.2065 1.5483 225.8905 1.5483 225.8905 11.1383 236.7175 1.5483 244.4135 1.5483 231.4975 12.6853 244.8785 25.5253 236.9105 25.5253 225.8905 14.6193 225.8905 25.5253"></polygon>
                <path d="M51.5742,48.2206 C51.5742,51.6476 48.7972,54.4256 45.3702,54.4256 L6.2052,54.4256 C2.7782,54.4256 0.0002,51.6476 0.0002,48.2206 L0.0002,6.2056 C0.0002,2.7786 2.7782,-0.0004 6.2052,-0.0004 L45.3702,-0.0004 C48.7972,-0.0004 51.5742,2.7786 51.5742,6.2056 L51.5742,48.2206 Z" id="Fill-45" fill="#64B2D4" mask="url(#mask-2)"></path>
                <polygon id="Fill-46" fill="#FFFFFF" mask="url(#mask-2)" points="34.0083 25.7997 44.1863 13.0377 44.1543 12.9967 29.4463 20.0787 25.8133 4.1637 25.7613 4.1637 22.1293 20.0787 7.4203 12.9967 7.3883 13.0377 17.5673 25.7997 2.8583 32.8837 2.8703 32.9337 19.1953 32.9337 15.5623 48.8507 15.6083 48.8717 25.7873 36.1087 35.9663 48.8717 36.0113 48.8487 32.3803 32.9337 48.7053 32.9337 48.7163 32.8837"></polygon>
            </g>
        </g>
    </g>
</svg>