<svg class="ign-icon" viewBox="0 0 24 24" version="1.1" xmlns="http://www.w3.org/2000/svg" xmlns:xlink="http://www.w3.org/1999/xlink"><g id="user-circle-24px" stroke="none" stroke-width="1" fill="none" fill-rule="evenodd"><g id="user-circle-/-user-circle-24px" transform="translate(1.000000, 2.000000)" fill="#141414" fill-rule="nonzero"><path class="ign-icon__fill" d="M10.5,0 C16.2989899,0 21,4.70101013 21,10.5 C21,16.2989899 16.2989899,21 10.5,21 C4.70101013,21 0,16.2989899 0,10.5 C0,4.70101013 4.70101013,0 10.5,0 Z M13.4844506,14 L7.51554944,14 C7.14753531,14 6.81288981,14.2016503 6.63893247,14.5187513 L6.58707275,14.6286093 L5.10905389,18.3233177 C6.64066434,19.3807383 8.49801401,20 10.5,20 C12.501986,20 14.3593357,19.3807383 15.8909461,18.3233177 L14.4129272,14.6286093 C14.2762502,14.2869168 13.9647384,14.0510973 13.6057114,14.0073503 L13.4844506,14 Z M10.5,1 C5.25329488,1 1,5.25329488 1,10.5 C1,13.3708025 2.27338233,15.9441907 4.28613352,17.686151 L5.65859606,14.2572186 C5.94207432,13.548523 6.60160322,13.0675488 7.35318966,13.0065686 L7.51554944,13 L13.4844506,13 C14.2477391,13 14.9392554,13.4337279 15.2750062,14.1089109 L15.3414039,14.2572186 L16.7138665,17.686151 C18.7266177,15.9441907 20,13.3708025 20,10.5 C20,5.25329488 15.7467051,1 10.5,1 Z M12,5 C12.5522847,5 13,5.44771525 13,6 L13,6 L13,10 C13,10.5522847 12.5522847,11 12,11 L12,11 L9,11 C8.44771525,11 8,10.5522847 8,10 L8,10 L8,6 C8,5.44771525 8.44771525,5 9,5 L9,5 Z M12,6 L9,6 L9,10 L12,10 L12,6 Z" id="Combined-Shape"></path></g></g></svg>