<?xml version="1.0" encoding="utf-8"?>
<!-- Generator: Adobe Illustrator 23.0.1, SVG Export Plug-In . SVG Version: 6.00 Build 0)  -->
<svg version="1.1" id="Layer_1" xmlns="http://www.w3.org/2000/svg" xmlns:xlink="http://www.w3.org/1999/xlink" x="0px" y="0px"
	 viewBox="0 0 64 64" style="enable-background:new 0 0 64 64;" xml:space="preserve">
<style type="text/css">
	.st0{fill:#00243D;}
</style>
<g>
	<path class="st0" d="M46,28h-5v-7c0-1.1-0.9-2-2-2H18c-1.1,0-2,0.9-2,2v12c0,1.1,0.9,2,2,2h10v3h-5v1h11v-1h-5v-3h8v8
		c0,1.1,0.9,2,2,2h7c1.1,0,2-0.9,2-2V30C48,28.9,47.1,28,46,28z M18,34c-0.55,0-1-0.45-1-1v-1h20v2H18z M37,30v1H17V21
		c0-0.55,0.45-1,1-1h21c0.55,0,1,0.45,1,1v7h-1C37.9,28,37,28.9,37,30z M47,43c0,0.55-0.45,1-1,1h-7c-0.55,0-1-0.45-1-1V30
		c0-0.55,0.45-1,1-1h7c0.55,0,1,0.45,1,1V43z"/>
	<rect x="41" y="41.5" class="st0" width="3" height="1"/>
</g>
</svg>
