<?xml version="1.0" encoding="utf-8"?>
<!-- Generator: Adobe Illustrator 23.0.1, SVG Export Plug-In . SVG Version: 6.00 Build 0)  -->
<svg version="1.1" id="Layer_1" xmlns="http://www.w3.org/2000/svg" xmlns:xlink="http://www.w3.org/1999/xlink" x="0px" y="0px"
	 viewBox="0 0 64 64" style="enable-background:new 0 0 64 64;" xml:space="preserve">
<style type="text/css">
	.st0{fill:#00243D;}
</style>
<g>
	<rect x="19" y="31" class="st0" width="1" height="11"/>
	<rect x="44" y="31" class="st0" width="1" height="11"/>
	<path class="st0" d="M15,46h34c0.55,0,1-0.45,1-1V28c0-0.55-0.45-1-1-1h-9.34l-7.16-5.25v-0.82c0.86-0.22,1.5-1,1.5-1.93h-1
		c0,0.55-0.45,1-1,1s-1-0.45-1-1s0.45-1,1-1c0.28,0,0.5-0.22,0.5-0.5V15h-1v2.06C30.64,17.29,30,18.07,30,19
		c0,0.93,0.64,1.71,1.5,1.93v0.82L24.34,27H15c-0.55,0-1,0.45-1,1v17C14,45.55,14.45,46,15,46z M32,22.62L37.97,27H26.03L32,22.62z
		 M15,28h34v17c0,0,0,0,0,0h0H15V28z"/>
	<path class="st0" d="M30.9,36.9l-3.2,3.2l-0.15-0.15l0.64-2.55l-0.97-0.24l-0.64,2.55c-0.08,0.34,0.02,0.7,0.26,0.95l1.01,1.01
		c0.19,0.19,0.45,0.29,0.71,0.29c0.08,0,0.16-0.01,0.24-0.03l2.55-0.64l-0.24-0.97l-2.55,0.64L28.4,40.8l3.2-3.2L30.9,36.9z"/>
	<path class="st0" d="M36.15,31.34c-0.25-0.25-0.61-0.35-0.95-0.26l-2.55,0.64l0.24,0.97l2.55-0.64l0.15,0.15l-3.2,3.2l0.71,0.71
		l3.2-3.2l0.15,0.15l-0.64,2.55l0.97,0.24l0.64-2.55c0.08-0.34-0.02-0.7-0.26-0.95L36.15,31.34z"/>
	<rect x="9" y="48" class="st0" width="46" height="1"/>
</g>
</svg>
