<?xml version="1.0" encoding="utf-8"?>
<!-- Generator: Adobe Illustrator 23.0.1, SVG Export Plug-In . SVG Version: 6.00 Build 0)  -->
<svg version="1.1" id="Layer_1" xmlns="http://www.w3.org/2000/svg" xmlns:xlink="http://www.w3.org/1999/xlink" x="0px" y="0px"
	 viewBox="0 0 64 64" style="enable-background:new 0 0 64 64;" xml:space="preserve">
<style type="text/css">
	.st0{fill:#00243D;}
</style>
<path class="st0" d="M46.23,27.84l-4.46-8.91c-0.6-1.19-1.8-1.93-3.13-1.93H36.5H36h-8h-0.5h-2.15c-1.33,0-2.54,0.74-3.13,1.93
	l-4.46,8.91c-0.24,0.48-0.06,1.07,0.42,1.32L23,31.8V46c0,0.55,0.45,1,1,1h16c0.55,0,1-0.45,1-1V31.8l4.82-2.63
	C46.29,28.91,46.47,28.33,46.23,27.84z M36,18v1c0,0.55-0.45,1-1,1h-6c-0.55,0-1-0.45-1-1v-1H36z M41,30.66V26h-1v20H24V26h-1v4.66
	l-4.34-2.37l4.46-8.91C23.54,18.53,24.4,18,25.35,18H27v1c0,1.1,0.9,2,2,2h6c1.1,0,2-0.9,2-2v-1h1.65c0.95,0,1.81,0.53,2.24,1.38
	l4.46,8.91L41,30.66z"/>
</svg>
