<?xml version="1.0" encoding="utf-8"?>
<!-- Generator: Adobe Illustrator 24.1.2, SVG Export Plug-In . SVG Version: 6.00 Build 0)  -->
<svg version="1.1" id="Layer_1" xmlns="http://www.w3.org/2000/svg" xmlns:xlink="http://www.w3.org/1999/xlink" x="0px" y="0px"
	 viewBox="0 0 64 64" style="enable-background:new 0 0 64 64;" xml:space="preserve">
<style type="text/css">
	.st0{fill:#00243D;}
	.st1{fill:none;}
</style>
<g id="Layer_1-2">
	<rect x="42.8" y="42.3" class="st0" width="2.5" height="1"/>
	<rect x="31.6" y="42.3" class="st0" width="5.4" height="1"/>
	<path class="st0" d="M26.3,43.3h-0.5c-1.4,0-2.6-1-2.9-2.3l-4.7-22.2l-3.1,4.6l-0.8-0.6l3.1-4.6c0.3-0.5,0.9-0.6,1.4-0.3
		c0.2,0.1,0.4,0.4,0.4,0.6l4.7,22.2c0.2,0.9,1,1.5,1.9,1.5h0.5V43.3z"/>
	<path class="st0" d="M45.9,35.4c-0.1,0.4-0.5,0.7-1,0.7H22.4v-1h22.5l3.8-11.5H23.4v-1h25.3c0.6,0,1,0.4,1,1c0,0.1,0,0.2,0,0.3
		L45.9,35.4z"/>
	<path class="st0" d="M39.9,46.2c-1.9,0-3.4-1.5-3.4-3.4c0-1.9,1.5-3.4,3.4-3.4s3.4,1.5,3.4,3.4C43.2,44.7,41.7,46.2,39.9,46.2z
		 M39.9,40.5c-1.3,0-2.4,1.1-2.4,2.4c0,1.3,1.1,2.4,2.4,2.4s2.4-1.1,2.4-2.4C42.2,41.5,41.2,40.5,39.9,40.5
		C39.9,40.5,39.9,40.5,39.9,40.5z"/>
	<path class="st0" d="M28.8,46.2c-1.9,0-3.4-1.5-3.4-3.4c0-1.9,1.5-3.4,3.4-3.4c1.9,0,3.4,1.5,3.4,3.4
		C32.1,44.7,30.6,46.2,28.8,46.2z M28.8,40.5c-1.3,0-2.4,1.1-2.4,2.4c0,1.3,1.1,2.4,2.4,2.4c1.3,0,2.4-1.1,2.4-2.4
		C31.1,41.5,30.1,40.5,28.8,40.5C28.8,40.5,28.8,40.5,28.8,40.5z"/>
	<rect x="32.3" y="26.6" class="st0" width="15.8" height="1"/>
	<rect x="39.3" y="30.7" class="st0" width="7.4" height="1"/>
	<rect x="12" y="12" class="st1" width="40" height="40"/>
</g>
</svg>
