<?xml version="1.0" encoding="utf-8"?>
<!-- Generator: Adobe Illustrator 24.1.2, SVG Export Plug-In . SVG Version: 6.00 Build 0)  -->
<svg version="1.1" id="Layer_1" xmlns="http://www.w3.org/2000/svg" xmlns:xlink="http://www.w3.org/1999/xlink" x="0px" y="0px"
	 viewBox="0 0 64 64" style="enable-background:new 0 0 64 64;" xml:space="preserve">
<style type="text/css">
	.st0{fill:#00243D;}
	.st1{fill:none;}
</style>
<g id="Layer_1-2_1_">
	<path class="st0" d="M46.8,45.7c-0.1,0.5-0.5,0.9-1,0.9H26.3v-1h19.5l1.9-17.7h-23v-1h23c0.6,0,1,0.4,1,1c0,0,0,0.1,0,0.1
		L46.8,45.7z"/>
	<path class="st0" d="M25.5,48.8h-9.2c-0.6,0-1-0.4-1-1V29.4c0-0.2,0.1-0.4,0.2-0.6l3.1-4.5c0.1-0.2,0.2-0.4,0.2-0.6v-5h1V24
		c0,0.2-0.1,0.4-0.2,0.6l-3.2,4.8v18.5h9.2V29.4l-3.2-4.8c-0.1-0.2-0.2-0.4-0.2-0.6v-5.3h1v5c0,0.2,0.1,0.4,0.2,0.6l3.1,4.5
		c0.1,0.2,0.2,0.4,0.2,0.6v18.5C26.5,48.4,26.1,48.8,25.5,48.8z"/>
	<path class="st0" d="M24.7,19.2h-7.6v-3c0-0.6,0.5-1.1,1.1-1.1h5.4c0.6,0,1.1,0.5,1.1,1.1V19.2z M18.1,18.2h5.6v-1.6
		c0-0.2-0.2-0.4-0.4-0.4h-4.7c-0.2,0-0.4,0.2-0.4,0.4V18.2z"/>
	<rect x="37.3" y="18.4" transform="matrix(0.3201 -0.9474 0.9474 0.3201 6.6142 49.4674)" class="st0" width="1" height="3.4"/>
	<rect x="36.5" y="20.8" transform="matrix(0.3203 -0.9473 0.9473 0.3203 3.7779 50.3266)" class="st0" width="1" height="3.4"/>
	<rect x="35.6" y="23.2" transform="matrix(0.3204 -0.9473 0.9473 0.3204 0.9188 51.1896)" class="st0" width="1" height="3.4"/>
	<path class="st0" d="M46.7,27.7l-1-0.3l1.1-3.3c0.5-1.6-0.3-3.3-1.9-3.9c0,0,0,0,0,0l-4.6-1.6c-1.6-0.6-3.3,0.3-3.8,1.8
		c0,0,0,0.1,0,0.1l-2.3,6.8l-0.9-0.3l2.3-6.8c0.7-2.1,3-3.3,5.1-2.5c0,0,0,0,0,0l4.7,1.6c2.1,0.7,3.3,3,2.5,5.1c0,0,0,0,0,0
		L46.7,27.7z"/>
	<path class="st0" d="M25.5,27.5l-1-0.3l2.3-6.8c0.7-2.1,3-3.3,5.1-2.5c0,0,0,0,0,0l4.7,1.6l-0.3,1l-4.7-1.6
		c-1.6-0.5-3.3,0.3-3.9,1.9c0,0,0,0,0,0L25.5,27.5z"/>
	<rect x="28.8" y="18.4" transform="matrix(0.3201 -0.9474 0.9474 0.3201 0.8516 41.4251)" class="st0" width="1" height="3.4"/>
	<rect x="28" y="20.8" transform="matrix(0.3203 -0.9473 0.9473 0.3203 -2.0044 42.2932)" class="st0" width="1" height="3.4"/>
	<rect x="27.2" y="23.2" transform="matrix(0.3204 -0.9473 0.9473 0.3204 -4.8464 43.1578)" class="st0" width="1" height="3.4"/>
	<rect x="39.5" y="42" transform="matrix(0.1193 -0.9929 0.9929 0.1193 -4.3847 80.0768)" class="st0" width="6.9" height="1"/>
	<path class="st0" d="M21,44.5c0,0.6-0.4,1-1,1h-4.2v-1H20V32.2h-4.2v-1H20c0.6,0,1,0.4,1,1V44.5z"/>
	<rect x="15.8" y="34.6" class="st0" width="2.6" height="1"/>
	<rect x="15.8" y="36.9" class="st0" width="2.6" height="1"/>
	<rect x="15.8" y="42.4" class="st0" width="2.6" height="1"/>
	<rect x="12" y="12" class="st1" width="40" height="40"/>
	<rect x="12" y="12" class="st1" width="40" height="40"/>
	<rect x="12" y="12" class="st1" width="40" height="40"/>
</g>
</svg>
