<?xml version="1.0" encoding="utf-8"?>
<!-- Generator: Adobe Illustrator 23.0.1, SVG Export Plug-In . SVG Version: 6.00 Build 0)  -->
<svg version="1.1" id="Layer_1" xmlns="http://www.w3.org/2000/svg" xmlns:xlink="http://www.w3.org/1999/xlink" x="0px" y="0px"
	 viewBox="0 0 64 64" style="enable-background:new 0 0 64 64;" xml:space="preserve">
<style type="text/css">
	.st0{fill:#00243D;}
</style>
<g>
	<polygon class="st0" points="41.5,40 21.5,40 9,40 9,41 55,41 55,40 	"/>
	<path class="st0" d="M24.95,37H27h1h10.05c0.25,1.69,1.69,3,3.45,3s3.2-1.31,3.45-3H48c0.55,0,1-0.45,1-1v-6c0-0.55-0.45-1-1-1
		h-6.32l-6.54-5.23C34.52,23.27,33.74,23,32.95,23h-8.9c-0.79,0-1.57,0.27-2.19,0.77l-6.68,5.34l0,0.01
		C15.08,29.21,15,29.34,15,29.5V36c0,0.55,0.45,1,1,1h2.05c0.25,1.69,1.69,3,3.45,3S24.7,38.69,24.95,37z M41.5,39
		c-1.38,0-2.5-1.12-2.5-2.5s1.12-2.5,2.5-2.5s2.5,1.12,2.5,2.5S42.88,39,41.5,39z M48,36h-3.05c-0.25-1.69-1.69-3-3.45-3
		s-3.2,1.31-3.45,3H28v-6h20V36z M32.95,24c0.57,0,1.12,0.19,1.56,0.55L40.07,29H28v-5H32.95z M22.49,24.55
		c0.44-0.35,1-0.55,1.56-0.55H27v5H16.93L22.49,24.55z M16,30h11v6h-2.05c-0.25-1.69-1.69-3-3.45-3s-3.2,1.31-3.45,3H16V30z
		 M21.5,39c-1.38,0-2.5-1.12-2.5-2.5s1.12-2.5,2.5-2.5s2.5,1.12,2.5,2.5S22.88,39,21.5,39z"/>
	<rect x="30" y="31.5" class="st0" width="2" height="1"/>
</g>
</svg>
