<?xml version="1.0" encoding="utf-8"?>
<!-- Generator: Adobe Illustrator 23.0.1, SVG Export Plug-In . SVG Version: 6.00 Build 0)  -->
<svg version="1.1" id="Layer_1" xmlns="http://www.w3.org/2000/svg" xmlns:xlink="http://www.w3.org/1999/xlink" x="0px" y="0px"
	 viewBox="0 0 64 64" style="enable-background:new 0 0 64 64;" xml:space="preserve">
<style type="text/css">
	.st0{fill:#00243D;}
</style>
<path class="st0" d="M40.53,41.93L35,30.88v-9.95c0.86-0.22,1.5-1,1.5-1.93v-1c0-0.55-0.45-1-1-1h-7c-0.55,0-1,0.45-1,1v1
	c0,0.93,0.64,1.71,1.5,1.93v9.95l-5.53,11.05c-0.55,1.09-0.49,2.37,0.15,3.41C24.27,46.38,25.38,47,26.6,47H37.4
	c1.22,0,2.33-0.62,2.98-1.66C41.02,44.3,41.07,43.03,40.53,41.93z M28.5,19v-1h7v1c0,0.55-0.45,1-1,1h-5
	C28.95,20,28.5,19.55,28.5,19z M29.9,31.33c0.07-0.14,0.1-0.29,0.1-0.44V29h2v-1h-2v-1.5h2v-1h-2V24h2v-1h-2v-2h4v9.88
	c0,0.15,0.04,0.31,0.11,0.45L37.94,39H36c-0.55,0-1-0.45-1-1h-1c0,0.55-0.45,1-1,1h-2c-0.55,0-1-0.45-1-1h-1c0,0.55-0.45,1-1,1
	h-1.94L29.9,31.33z M39.52,44.81C39.06,45.56,38.27,46,37.4,46H26.6c-0.87,0-1.67-0.44-2.13-1.19s-0.5-1.65-0.11-2.43L25.56,40H28
	c0.6,0,1.13-0.27,1.5-0.69C29.87,39.73,30.4,40,31,40h2c0.6,0,1.13-0.27,1.5-0.69C34.87,39.73,35.4,40,36,40h2.44l1.19,2.38
	C40.02,43.16,39.98,44.07,39.52,44.81z"/>
</svg>
