<?xml version="1.0" encoding="UTF-8"?>
<svg width="96px" height="96px" viewBox="0 0 96 96" version="1.1" xmlns="http://www.w3.org/2000/svg" xmlns:xlink="http://www.w3.org/1999/xlink">
    <!-- Generator: Sketch 55.2 (78181) - https://sketchapp.com -->
    <title>supply-chain-management-menu-icon_96x96_v2</title>
    <desc>Created with Sketch.</desc>
    <g id="supply-chain-management-menu-icon_96x96_v2" stroke="none" stroke-width="1" fill="none" fill-rule="evenodd">
        <g id="Icon">
            <rect id="Rectangle" x="0" y="0" width="96" height="96"></rect>
            <path d="M66.54,53.1 C74.1916107,44.8360267 73.9448137,32.0025465 65.9811336,24.0388664 C58.0174535,16.0751863 45.1839733,15.8283893 36.92,23.48 L34,20.64 C33.6230335,20.2488963 33.1031996,20.0279481 32.56,20.0279481 C32.0168004,20.0279481 31.4969665,20.2488963 31.12,20.64 C23.9224981,28.3888657 21.9117672,39.6264786 25.9757397,49.3903447 C30.0397122,59.1542108 39.4300461,65.6464069 50,66 L50,70 L41,70 C38.790861,70 37,71.790861 37,74 L37,77 C37,77.5522847 37.4477153,78 38,78 L64,78 C64.5522847,78 65,77.5522847 65,77 L65,74 C65,71.790861 63.209139,70 61,70 L52,70 L52,66 C58.4435079,65.7775043 64.5916212,63.243005 69.32,58.86 C69.7090713,58.4892014 69.9325285,57.9774125 69.94,57.44 C69.9594383,56.8877232 69.7494996,56.3520174 69.36,55.96 L66.54,53.1 Z M63.02,74 L63.02,76 L39.02,76 L39.02,74 C39.02,72.8954305 39.9154305,72 41.02,72 L61.02,72 C62.1245695,72 63.02,72.8954305 63.02,74 Z M51.02,19.9999981 C59.1952518,19.9963704 66.4563024,25.222637 69.0482308,32.9761306 C71.6401591,40.7296242 68.9818059,49.2718649 62.4478904,54.1853875 C55.9139749,59.0989101 46.9695246,59.2820098 40.24,54.64 L43.7,45.9999981 C43.9991631,45.2568573 43.8260239,44.4069009 43.26,43.84 L38.3,38.9 C37.6289688,38.2245526 36.5748054,38.1157897 35.78,38.64 L32.14,41.08 C32.0619249,40.4161644 32.0218595,39.7484086 32.0199052,39.08 C32.0040623,34.0286585 33.9981657,29.1784544 37.5625095,25.5991028 C41.1268534,22.0197512 45.9686361,20.0052865 51.02,19.9999981 Z M32.5,43.22 L36.9,40.28 L41.84,45.24 L38.6,53.34 C35.5459536,50.6980406 33.4099385,47.1543565 32.5,43.22 L32.5,43.22 Z M33.34,56.68 C23.764247,47.2094413 23.4628591,31.8386547 32.66,22 L35.5,24.84 C27.3040943,33.0193371 27.2906629,46.2940943 35.47,54.49 C43.6493371,62.6859057 56.9240943,62.6993371 65.12,54.52 L68,57.36 C58.155923,66.5230109 42.817099,66.2220761 33.34,56.68 Z" id="Shape" fill="#FFFFFF" fill-rule="nonzero"></path>
            <path d="M44.3,36.38 L49.12,39.6 L50.88,48.4 C51.0729473,49.3462464 51.9144785,50.0194714 52.88,50 L55.28,50 C56.2213944,50.0274272 57.0543689,49.3943666 57.28,48.48 L58.98,41.68 L62.2,40.08 C62.6740424,39.841333 63.0337831,39.4240338 63.2,38.92 L64.78,34 L64.78,34 C64.9962312,33.2921725 64.8038875,32.5227978 64.28,32 L61.02,28.72 C60.6667071,28.2938245 60.1525787,28.0331397 59.6,27.9999766 L48.56,27.9999766 C47.8838706,27.9967358 47.2518676,28.3353088 46.88,28.9 L43.74,33.62 C43.4451831,34.0604921 43.3372813,34.6000008 43.44,35.12 C43.5489376,35.6371271 43.8581219,36.090118 44.3,36.38 L44.3,36.38 Z M48.56,30 L59.6,30 L62.88,33.26 L61.2,38.3 L58,40 C57.4808818,40.2616013 57.101268,40.7361185 56.96,41.3 L55.24,48 L52.84,48 L51.08,39.2 C50.9710624,38.6828729 50.6618781,38.229882 50.22,37.94 L45.4,34.72 L48.56,30 Z" id="Shape" fill="#FFFFFF" fill-rule="nonzero"></path>
        </g>
    </g>
</svg>