<?xml version="1.0" encoding="UTF-8"?>
<svg width="228px" height="61px" viewBox="0 0 228 61" version="1.1" xmlns="http://www.w3.org/2000/svg" xmlns:xlink="http://www.w3.org/1999/xlink">
    <!-- Generator: Sketch 49.3 (51167) - http://www.bohemiancoding.com/sketch -->
    <title>Svitzer</title>
    <desc>Created with Sketch.</desc>
    <defs>
        <polygon id="path-1" points="0.3594 0.779853431 40.826 0.779853431 40.826 58.6081763 0.3594 58.6081763"></polygon>
    </defs>
    <g id="Brand-Logos" stroke="none" stroke-width="1" fill="none" fill-rule="evenodd">
        <g id="Artboard" transform="translate(-548.000000, -927.000000)">
            <g id="Other" transform="translate(548.000000, 85.000000)">
                <g id="Svitzer" transform="translate(0.000000, 842.000000)">
                    <g id="Group-3" transform="translate(187.000000, 0.633500)">
                        <mask id="mask-2" fill="white">
                            <use xlink:href="#path-1"></use>
                        </mask>
                        <g id="Clip-2"></g>
                        <path d="M28.6824,16.4067 C28.6034,17.5117 28.4624,18.6247 28.2154,19.7037 C27.1064,24.5247 24.0134,26.5997 18.8964,25.8697 C19.6534,22.0507 20.3744,18.3227 21.1344,14.6037 C21.6804,11.9317 21.7034,11.9367 24.4694,11.9407 C27.7394,11.9467 28.9134,13.1677 28.6824,16.4067 M40.6994,10.3407 C40.1134,4.0887 36.4174,0.8497 30.1194,0.8207 C24.6344,0.7957 19.1494,0.8647 13.6664,0.7807 C12.2964,0.7597 11.7884,1.1237 11.5154,2.5107 C8.2334,19.1677 4.8754,35.8097 1.5414,52.4577 C1.1444,54.4447 0.7734,56.4377 0.3594,58.5857 C4.2174,58.5857 7.8514,58.5527 11.4844,58.6077 C12.4224,58.6227 12.7034,58.2847 12.8744,57.4107 C14.0894,51.1987 15.3724,44.9997 16.6144,38.7937 C17.1394,36.1647 17.1184,36.1607 19.8184,36.4187 C21.8144,36.6087 22.5364,37.2957 22.7304,39.3177 C22.7984,40.0347 22.7824,40.7797 22.6724,41.4927 C22.1854,44.6627 21.6564,47.8267 21.1324,50.9917 C20.7234,53.4627 20.3014,55.9287 19.8784,58.4417 C20.2754,58.5147 20.4374,58.5707 20.6004,58.5717 C24.3284,58.5797 28.0554,58.5627 31.7824,58.5977 C32.5904,58.6057 32.7864,58.2597 32.8284,57.5327 C32.9114,56.0817 33.0244,54.6267 33.2304,53.1877 C33.8724,48.6997 34.6934,44.2327 35.1964,39.7287 C35.6044,36.0707 35.0794,32.6457 30.8614,30.9897 C31.1274,30.7527 31.2084,30.6197 31.3164,30.5937 C34.7384,29.7367 36.7234,27.2787 38.2034,24.3217 C40.4094,19.9177 41.1534,15.1937 40.6994,10.3407" id="Fill-1" fill="#07385D" mask="url(#mask-2)"></path>
                    </g>
                    <path d="M0.9856,39.6632 L12.8276,39.6632 C12.5456,41.5302 12.2726,43.3382 11.9996,45.1442 C11.9796,45.2712 11.9506,45.3972 11.9416,45.5242 C11.7966,47.5222 12.5236,48.9212 13.8966,49.2962 C15.5086,49.7362 17.6116,48.8552 18.3516,47.2522 C19.5996,44.5432 19.5516,41.7322 17.9116,39.2742 C16.4036,37.0142 14.4746,35.0312 12.7116,32.9432 C12.1596,32.2902 11.5566,31.6792 10.9526,31.0712 C5.6306,25.7232 4.6136,19.3612 6.5736,12.3242 C8.7176,4.6272 14.5056,0.2122 22.6186,0.0132 C24.9876,-0.0448 27.3256,0.0612 29.5686,0.9482 C33.8016,2.6212 36.0886,5.7812 36.2096,10.2682 C36.2866,13.1102 35.8646,15.9652 35.6536,19.0022 L29.5106,19.0022 L23.6426,19.0022 C23.8686,17.7962 24.0806,16.7132 24.2706,15.6262 C24.3446,15.2062 24.4016,14.7782 24.4116,14.3522 C24.4516,12.6672 23.8186,11.6462 22.5796,11.3482 C21.1916,11.0142 19.5906,11.8162 19.0276,13.2532 C18.0726,15.6922 18.2346,18.1592 19.7806,20.2322 C21.5386,22.5872 23.5776,24.7392 25.5776,26.9032 C28.5426,30.1102 31.0686,33.6302 31.4526,38.0652 C32.0326,44.7662 31.1176,51.1962 26.1276,56.3022 C23.2176,59.2792 19.4036,60.3162 15.3966,60.5682 C13.2746,60.7022 11.1016,60.6322 8.9976,60.3312 C3.6376,59.5652 0.5896,56.2542 0.0946,50.7952 C-0.0474,49.2252 -0.0214,47.6202 0.1196,46.0482 C0.3096,43.9232 0.6846,41.8152 0.9856,39.6632" id="Fill-4" fill="#07385D"></path>
                    <path d="M39.2434,59.2189 C39.7854,39.8929 40.3204,20.7809 40.8594,1.5609 L53.6274,1.5609 C52.5394,14.8529 51.4514,28.1279 50.3654,41.4039 C50.4764,41.4439 50.5894,41.4849 50.7014,41.5249 C50.9004,41.1169 51.1414,40.7249 51.2914,40.2999 C55.7094,27.8029 60.1314,15.3069 64.5024,2.7929 C64.8574,1.7809 65.2934,1.3989 66.3894,1.4219 C69.8934,1.4939 73.4004,1.4479 77.1204,1.4479 C76.1194,4.0379 75.1974,6.4559 74.2534,8.8659 C67.8484,25.2349 61.4294,41.5959 55.0564,57.9759 C54.6804,58.9429 54.2224,59.2579 53.2014,59.2439 C49.0474,59.1849 44.8914,59.2189 40.7354,59.2189 L39.2434,59.2189 Z" id="Fill-6" fill="#07385D"></path>
                    <path d="M176.7429,12.5675 C175.9319,16.6625 175.1609,20.5595 174.3539,24.6335 L186.0109,24.6335 C185.4769,27.2825 185.0049,29.7505 184.4789,32.2075 C183.8309,35.2405 183.8119,35.2365 180.6449,35.2365 C178.1599,35.2365 175.6759,35.2455 173.1899,35.2315 C172.5909,35.2275 172.1399,35.2575 171.9939,36.0265 C171.2589,39.8945 170.4709,43.7535 169.7069,47.6155 C169.6839,47.7305 169.7299,47.8585 169.7559,48.0825 L183.0499,48.0825 C182.3459,51.6345 181.6799,55.0775 180.9499,58.5055 C180.8889,58.7895 180.3939,59.1835 180.0999,59.1845 C171.8759,59.2065 163.6519,59.1835 155.4279,59.1665 C155.3899,59.1665 155.3539,59.1275 155.1529,59.0165 C155.5599,56.9185 155.9669,54.7565 156.3979,52.5995 C159.7319,35.9555 163.0709,19.3105 166.4059,2.6665 C166.5439,1.9765 166.6379,1.4205 167.6289,1.4255 C175.5969,1.4685 183.5659,1.4515 191.5339,1.4555 C191.7429,1.4555 191.9509,1.4945 192.3809,1.5365 C191.6499,5.2215 190.9329,8.8385 190.1939,12.5675 L176.7429,12.5675 Z" id="Fill-8" fill="#07385D"></path>
                    <path d="M135.7869,48.0919 L151.6909,48.0919 C150.9859,51.6599 150.3289,55.1309 149.5669,58.5789 C149.5029,58.8709 148.7439,59.1879 148.3049,59.1919 C143.6799,59.2369 139.0549,59.2189 134.4299,59.2199 L122.0959,59.2199 C121.6339,59.2189 121.1729,59.2189 120.5409,59.2189 C121.2379,55.7899 121.9779,52.5519 122.5279,49.2819 C122.8429,47.4109 123.5979,45.8309 124.6359,44.2739 C131.3759,34.1609 138.0639,24.0129 144.7669,13.8759 C144.9999,13.5249 145.2179,13.1629 145.5549,12.6299 L130.5699,12.6299 C131.1689,9.5779 131.7179,6.6969 132.3019,3.8239 C132.7859,1.4449 132.8049,1.4479 135.2579,1.4479 L159.0259,1.4479 L160.6669,1.44789999 C159.8379,5.6069 159.0579,9.5839 158.2339,13.5539 C158.1429,13.9919 157.8319,14.3969 157.5759,14.7869 C150.6809,25.3109 143.7779,35.8289 136.8799,46.3509 C136.5559,46.8449 136.2509,47.3519 135.7869,48.0919" id="Fill-10" fill="#07385D"></path>
                    <path d="M96.4802,59.2081 C99.6012,43.6101 102.6762,28.2441 105.7882,12.6941 L97.1522,12.6941 C97.6562,10.1431 98.1222,7.7701 98.5952,5.4001 C98.7962,4.3951 99.0622,3.3991 99.2082,2.3861 C99.3052,1.7031 99.5772,1.4381 100.2772,1.4401 C109.3992,1.4571 118.5212,1.4531 127.6422,1.4601 C127.8462,1.4601 128.0502,1.5291 128.4042,1.5941 C128.0092,3.6061 127.6262,5.5641 127.2402,7.5221 C126.9672,8.9061 126.6612,10.2851 126.4262,11.6761 C126.2962,12.4451 125.9492,12.7191 125.1512,12.7011 C122.8442,12.6491 120.5362,12.6831 118.1002,12.6831 C117.4622,15.8431 116.8342,18.9271 116.2162,22.0141 C113.8052,34.0841 111.4032,46.1561 108.9652,58.2211 C108.8922,58.5861 108.4742,59.1621 108.2092,59.1661 C104.3662,59.2281 100.5202,59.2081 96.4802,59.2081" id="Fill-12" fill="#07385D"></path>
                    <path d="M94.3767,1.5167 C93.0327,8.2297 91.7267,14.7737 90.4127,21.3157 C87.9637,33.5197 85.4967,45.7187 83.0877,57.9307 C82.8887,58.9427 82.5277,59.2567 81.5177,59.2417 C77.9257,59.1857 74.3337,59.2187 70.5127,59.2187 C74.3837,39.8997 78.2247,20.7297 82.0747,1.5167 L94.3767,1.5167 Z" id="Fill-14" fill="#07385D"></path>
                </g>
            </g>
        </g>
    </g>
</svg>