<svg id="NEW_Logo" data-name="NEW Logo" xmlns="http://www.w3.org/2000/svg" xmlns:xlink="http://www.w3.org/1999/xlink" viewBox="0 0 883.54 634.08"><defs><style>.cls-1{fill:#266593;}.cls-2{fill:url(#linear-gradient);}.cls-3{fill:url(#linear-gradient-2);}</style><linearGradient id="linear-gradient" x1="34.34" y1="273.06" x2="822.01" y2="273.06" gradientUnits="userSpaceOnUse"><stop offset="0" stop-color="#142146"/><stop offset="0.25" stop-color="#142146"/><stop offset="0.5" stop-color="#266593"/><stop offset="0.75" stop-color="#50afc8"/><stop offset="1" stop-color="#50afc8"/></linearGradient><linearGradient id="linear-gradient-2" x1="340.13" y1="521.7" x2="871.87" y2="266.93" gradientUnits="userSpaceOnUse"><stop offset="0" stop-color="#142146"/><stop offset="0.36" stop-color="#142146"/><stop offset="0.54" stop-color="#266593"/><stop offset="0.74" stop-color="#50afc8"/><stop offset="1" stop-color="#50afc8"/></linearGradient></defs><path class="cls-1" d="M725.24,475.77l-19.56-21.71,18.48-18.32h-5.24L701,453.9v-32h-4.16v53.89H701v-21.4l18.93,21.4Zm-49.27.77c9.55,0,14.24-2.85,14.24-11.55,0-8.47-4.77-10-8.93-11.09L673.89,452c-3.54-.92-5.23-2.08-5.23-6.7,0-5.31,2.39-6.31,8.93-6.31a53.8,53.8,0,0,1,11.24,1.16V436.2A55.25,55.25,0,0,0,677.59,435c-8.78,0-13.16,2.69-13.16,10.31,0,6.62,2.23,9,8.16,10.55l8.08,2.08c3.39.84,5.31,2.08,5.31,7.62s-2.31,7-9.78,7a46.74,46.74,0,0,1-11.85-1.84v3.92A38,38,0,0,0,676,476.54m-29.83-39-.53-1.85h-3.47v40h4.16V439.82h13.93V435ZM631,453.21H608.32c.08-13.08,4.39-14.24,12.47-14.24,6.85,0,10.16,2.39,10.16,11Zm4.16-1.69c0-14-5.85-16.55-14.94-16.55-9.77,0-16,2.85-16,19.63,0,13.78,2.16,21.94,16.78,21.94a40.3,40.3,0,0,0,12.47-1.85v-3.93a41.38,41.38,0,0,1-12.7,1.77c-10.39,0-12.08-5.08-12.39-15.7h26.79Zm-63,14.39c0-5.15.85-7.23,6.85-7.69l13.71-1v13.71a69.88,69.88,0,0,1-13.25,1.84c-5.69,0-7.31-1.3-7.31-6.85M583,435a77.78,77.78,0,0,0-12.78,1.15v3.93A77.9,77.9,0,0,1,582.88,439c8.85,0,9.78,2.39,9.78,6.62v8.08l-13.71,1c-7.69.62-11.16,3.39-11.16,11.24,0,7.55,2.7,10.63,11.32,10.63,4.23,0,8.46-1.31,13.7-3.24l.85,2.47h3.15V446c0-8.24-3.08-11-13.78-11m-72.6,40.8h4.08V429.2l18.17,44.33c.38,1,.92,1.31,1.61,1.31h1.93c.69,0,1.23-.31,1.61-1.31L556,429.12v46.65h4.16V421.88h-5.24l-19.63,48-19.47-48h-5.39Zm-28.32-40-12.55,34.64-13-34.64h-4.39l15.32,39.18-5.85,14.7h4.24l20.55-53.88ZM435.48,439c7.92,0,10.16,3.62,10.16,17.78,0,14.4-4,15.78-11.09,15.78a53.55,53.55,0,0,1-11.31-1.31V440.36A56.73,56.73,0,0,1,435.48,439m.92-4a34.59,34.59,0,0,0-13.24,3.15V421.88H419v53.89h3.08l.77-2.31c3.39,1.31,8.08,3.08,12.09,3.08,9,0,15-2.85,15-19.79S446.33,435,436.4,435"/><path class="cls-2" d="M526.22,226.56v158.3h48.37V226.56Zm-341.3-34.3v34.3H158.31V265h26.61v65c0,40,16,57.81,52,57.81,21.19,0,40.85-6.66,40.85-6.66V340.65s-16.42,5.8-30.62,5.8c-7.57,0-13.83-1.35-13.83-17.92V265h61l31.12,119.89h49.46l22.26-84.62,22,84.62h49.46L510,226.56H465.86l-23.38,90.66-23.84-90.66h-43l-23.73,90.87-23.75-90.87H233.29V169.07Zm339.3,1.19a26.9,26.9,0,1,0,32.34-32.34,28,28,0,0,0-6.15-.69,26.93,26.93,0,0,0-26.19,33m77.32-12V384.86h48.37V158.31Zm75.32,0V384.86h48.38V158.31Z"/><path class="cls-3" d="M526.22,384.86h48.37V361.68Zm75.32-36.09v36.1h48.37V325.6Zm75.32-36.09v72.19h48.38V289.5Z"/></svg>